<!--
    By: Nawicon from https://thenounproject.com/icon/checked-calendar-3953399/
    This work is licensed under a <a rel="license" href="http://creativecommons.org/licenses/by/4.0/">Creative Commons Attribution 4.0 International License</a>.
-->
<svg xmlns="http://www.w3.org/2000/svg" viewBox="0 0 64 64" x="0px" y="0px"><g data-name="32-Checked"><path d="M28,52.17a3,3,0,0,0,2.12-.88L46.29,35.12a3,3,0,0,0,0-4.24l-2.17-2.17a3,3,0,0,0-4.24,0L28,40.59l-3.88-3.88a3.06,3.06,0,0,0-4.24,0l-2.17,2.17a3,3,0,0,0,0,4.24l8.17,8.17A3,3,0,0,0,28,52.17ZM19.12,40.29l2.17-2.17a1,1,0,0,1,1.42,0l4.58,4.59a1,1,0,0,0,1.42,0L41.29,30.12a1,1,0,0,1,1.42,0l2.17,2.17a1,1,0,0,1,0,1.42L28.71,49.88a1,1,0,0,1-1.42,0l-8.17-8.17A1,1,0,0,1,19.12,40.29Z"/><path d="M59,7H53V5a3,3,0,0,0-6,0V7H41V5a3,3,0,0,0-6,0V7H29V5a3,3,0,0,0-6,0V7H17V5a3,3,0,0,0-6,0V7H5a3,3,0,0,0-3,3V25a1,1,0,0,0,2,0V20H60V51a1,1,0,0,0,2,0V10A3,3,0,0,0,59,7ZM49,5a1,1,0,0,1,2,0v6a1,1,0,0,1-2,0ZM37,5a1,1,0,0,1,2,0v6a1,1,0,0,1-2,0ZM25,5a1,1,0,0,1,2,0v6a1,1,0,0,1-2,0ZM13,5a1,1,0,0,1,2,0v6a1,1,0,0,1-2,0ZM4,18V10A1,1,0,0,1,5,9h6v2a3,3,0,0,0,6,0V9h6v2a3,3,0,0,0,6,0V9h6v2a3,3,0,0,0,6,0V9h6v2a3,3,0,0,0,6,0V9h6a1,1,0,0,1,1,1v8Z"/><path d="M61,54a1,1,0,0,0-1,1v4a1,1,0,0,1-1,1H5a1,1,0,0,1-1-1V29a1,1,0,0,0-2,0V59a3,3,0,0,0,3,3H59a3,3,0,0,0,3-3V55A1,1,0,0,0,61,54Z"/></g></svg>