<svg xmlns="http://www.w3.org/2000/svg" viewBox="0 0 512 512"><path d="M256 0c141.385 0 256 114.615 256 256S397.385 512 256 512 0 397.385 0 256 114.615 0 256 0z" fill="#ff757c"/><path d="M453.808 300.506c-5.935 67.55-81.207 109.954-196.182 109.954-114.97 0-207.244-50.46-206.09-112.707 1.145-61.762 93.849-111.913 207.614-112.684 20.914-1.58 111.774 10.91 71.891 38.391-73.014 50.308 24.974 76.344 47.67 44.987 31.477-43.481 79.212-14.784 75.097 32.059z" fill="#dfe1e3"/><path d="M451.762 294.174c-4.679 65.43-79.17 106.509-194.141 106.509-114.975 0-208.182-48.876-208.182-109.178 0-59.832 91.775-108.407 205.526-109.155 20.886-1.533 111.977 10.568 72.602 37.19-72.081 48.733 26.387 73.951 48.502 43.578 30.669-42.119 78.939-14.323 75.692 31.052v.004z" fill="#fff"/><path d="M224.107 200.704s-27.68.291-28.073 5.921c-.388 5.63-21.246 5.487-11.501 13.14 9.746 7.653 21.44.725 35.477 2.166 14.036 1.446 27.486-6.933 22.807-11.986-4.678-5.056-7.989-10.543-18.71-9.241z" fill="#f5a209"/><path d="M143.071 244.878c18.041 1.94 18.6 6.84 20.794 10.023 2.194 3.182-11.662 11.279-22.253 13.972-10.591 2.693-12.471-3.967-28.179-.046-32.877 8.198-19.326-29.214 29.638-23.949z" fill="#ec4b53"/><path d="M135.542 307.425s-36.137-10.152-45.758.185c-9.616 10.337-12.12 14.9 1.002 18.854 13.127 3.954 37.241-1.353 45.703.069 8.462 1.423 14.72-11.981-.951-19.108h.004z" fill="#15bdb1"/><path d="M164.53 354.297c-13.999 8.79-.776 17.768 18.711 21.948 19.491 4.18 20.84-3.991 31.366-7.912s29.449-16.133 13.468-18.743c-15.981-2.614-18.424-10.152-29.685-7.972-23.602 4.568-16.886 2.023-33.86 12.674v.005z" fill="#f5a209"/><path d="M290.724 365.008c-1.182 9.713 22.013 12.24 32.669 12.799 10.66.554 28.909-7.718 36.604-11.884 7.699-4.161 11.552-16.932-.887-18.595-12.434-1.663-12.729 2.222-21.616-2.499-8.882-4.72-16.581-4.161-24.872 1.663-8.291 5.829-21.602 10.466-21.902 18.517h.004z" fill="#076673"/><path d="M402.641 290.752c-6.023 1.455-14.087 5.145-21.14 10.175-7.057 5.034-6.508 8.305-8.129 13.662-1.626 5.358 17.889 11.251 31.546 8.037 13.662-3.215 35.777-21.962 25.043-25.177-10.734-3.215-10.734-10.448-27.32-6.697z" fill="#ec4b53"/><path d="M318.852 265.247l-9.007-10.323-36.068 31.458 9.007 10.323 36.068-31.458z" fill="#15bdb1"/><path d="M315.998 261.977l-3.302-3.787-36.068 31.458 3.307 3.787 36.063-31.458z" fill="#20d0c2"/><path d="M273.773 286.382s-15.81-5.967-27.874 12.873c-12.069 18.835-23.292 15.071-34.267 16.221 0 0 74.565 22.512 71.152-18.775l-9.011-10.323v.004z" fill="#ec4b53"/><path d="M220.994 316.589c15.316-2.157 20.863-6.342 24.581-13.26 6.272-11.672 17.159-19.242 28.313-14.54l7.034 8.669c-1.5 32.646-59.928 19.131-59.928 19.131z" fill="#ff5b61"/><path d="M353.955 240.389c-18.923 13.902-35.117 24.844-35.117 24.844l-8.993-10.314s13.043-14.554 29.385-31.417l14.729 16.882-.004.005z" fill="#0e7886"/><path d="M339.226 223.507c11.362-11.722 24.313-24.558 35.592-34.396C402.3 165.14 503.663 83.752 509.335 89.983v-.005c.005.005.005.005.005.009 0 .005.005.005.009.005l-.005.005c5.395 6.462-88.999 95.835-116.481 119.806-11.279 9.838-25.754 20.928-38.909 30.59l-14.729-16.882v-.004z" fill="#fbb429"/><path d="M223.719 199.628s-27.68.291-28.073 5.921c-.388 5.63-21.246 5.487-11.501 13.145 9.746 7.653 21.44.721 35.477 2.166 14.036 1.441 27.482-6.933 22.807-11.986-4.679-5.053-7.99-10.545-18.711-9.242v-.004z" fill="#ffba1b"/><path d="M142.678 243.802c18.041 1.94 18.6 6.84 20.794 10.023 2.189 3.182-11.662 11.279-22.253 13.972-10.595 2.693-12.471-3.967-28.179-.046-32.877 8.197-19.325-29.21 29.638-23.949z" fill="#ff5b61"/><path d="M135.15 306.354s-36.137-10.152-45.754.185c-9.616 10.337-12.12 14.9 1.002 18.854 13.127 3.954 37.246-1.353 45.703.069 8.462 1.427 14.716-11.981-.951-19.108z" fill="#20d0c2"/><path d="M164.137 353.221c-13.999 8.79-.781 17.768 18.711 21.948s20.84-3.991 31.366-7.907c10.526-3.921 29.449-16.133 13.468-18.743-15.986-2.614-18.424-10.152-29.685-7.972-23.601 4.568-16.89 2.023-33.86 12.674z" fill="#ffba1b"/><path d="M290.331 363.936c-1.187 9.718 22.008 12.24 32.669 12.799 10.66.554 28.909-7.718 36.604-11.879 7.699-4.162 11.547-16.932-.887-18.595-12.438-1.667-12.734 2.222-21.616-2.499-8.882-4.72-16.581-4.161-24.872 1.667s-21.607 10.466-21.902 18.512l.004-.005z" fill="#0e7886"/><path d="M402.253 289.675c-6.023 1.455-14.083 5.145-21.14 10.18-7.057 5.034-6.508 8.3-8.134 13.662-1.626 5.358 17.888 11.251 31.551 8.037 13.658-3.215 35.777-21.962 25.043-25.182-10.734-3.214-10.734-10.447-27.32-6.697z" fill="#ff5b61"/></svg>