<?xml version="1.0" encoding="iso-8859-1"?>
<!-- Generator: Adobe Illustrator 19.0.0, SVG Export Plug-In . SVG Version: 6.00 Build 0)  -->
<svg version="1.1" id="Layer_1" xmlns="http://www.w3.org/2000/svg" xmlns:xlink="http://www.w3.org/1999/xlink" x="0px" y="0px"
	 viewBox="0 0 512 512" style="enable-background:new 0 0 512 512;" xml:space="preserve">
<path style="fill:#F14742;" d="M444.023,0H100.866l-23.22,22.157v458l375.083-19.424V8.708C452.73,3.897,448.831,0,444.023,0z"/>
<path style="fill:#CD3F39;" d="M100.868,0v480.157l-41.595,1.858V21.281C59.271,9.532,68.803,0,80.552,0H100.868z"/>
<circle style="fill:#FAD4C6;" cx="272.442" cy="253.122" r="70.427"/>
<g>
	<path style="fill:#F99D88;" d="M272.447,289.988c-9.858,0-19.119-3.831-26.076-10.787c-3.401-3.402-3.401-8.914,0-12.315
		c3.402-3.399,8.914-3.399,12.315,0c7.587,7.59,19.934,7.59,27.522,0c3.402-3.399,8.914-3.399,12.315,0
		c3.401,3.402,3.401,8.914,0,12.315C291.565,286.158,282.305,289.988,272.447,289.988z"/>
	<path style="fill:#F99D88;" d="M272.447,346.768c-47.282,0-87.736,29.135-104.455,70.423h208.909
		C360.183,375.903,319.729,346.768,272.447,346.768z"/>
</g>
<g>
	<path style="fill:#FFF1CD;" d="M344.257,111.424c-2.115,0-4.231-0.766-5.897-2.3l-30.014-27.625l-30.009,27.624
		c-3.331,3.069-8.46,3.07-11.793,0.001L236.533,81.5l-30.006,27.623c-3.333,3.069-8.464,3.069-11.795,0L158.827,76.07
		c-3.539-3.257-3.766-8.766-0.509-12.303c3.257-3.539,8.767-3.767,12.303-0.509l30.009,27.623l30.006-27.623
		c3.333-3.069,8.461-3.07,11.795-0.001l30.011,27.625l30.009-27.624c3.331-3.069,8.46-3.07,11.793-0.001l30.014,27.625
		l30.013-27.625c3.54-3.257,9.045-3.028,12.304,0.51c3.257,3.539,3.028,9.047-0.51,12.304l-35.91,33.053
		C348.488,110.658,346.373,111.424,344.257,111.424z"/>
	<path style="fill:#FFF1CD;" d="M89.261,460.729c-11.754,0-21.282,9.528-21.282,21.282c0,11.754,9.528,21.282,21.282,21.282h354.762
		V460.73H89.261V460.729z"/>
</g>
<path style="fill:#F99D88;" d="M444.023,512H89.26c-16.536,0-29.989-13.454-29.989-29.99c0-16.536,13.453-29.989,29.989-29.989
	h354.762c4.81,0,8.708,3.897,8.708,8.708s-3.897,8.708-8.708,8.708H89.26c-6.934,0-12.574,5.64-12.574,12.574
	c0,6.935,5.64,12.575,12.574,12.575h354.762c4.81,0,8.708,3.897,8.708,8.708C452.729,508.103,448.831,512,444.023,512z"/>
<g>
</g>
<g>
</g>
<g>
</g>
<g>
</g>
<g>
</g>
<g>
</g>
<g>
</g>
<g>
</g>
<g>
</g>
<g>
</g>
<g>
</g>
<g>
</g>
<g>
</g>
<g>
</g>
<g>
</g>
</svg>
