<svg xmlns="http://www.w3.org/2000/svg" viewBox="0 0 512 512"><path d="M444.023 0H100.866l-23.22 22.157v458l375.083-19.424V8.708A8.705 8.705 0 0 0 444.023 0z" fill="#f14742"/><path d="M100.868 0v480.157l-41.595 1.858V21.281C59.271 9.532 68.803 0 80.552 0h20.316z" fill="#cd3f39"/><circle cx="272.442" cy="253.122" r="70.427" fill="#fad4c6"/><g fill="#f99d88"><path d="M272.447 289.988c-9.858 0-19.119-3.831-26.076-10.787a8.707 8.707 0 1 1 12.315-12.315c7.587 7.59 19.934 7.59 27.522 0a8.707 8.707 0 1 1 12.315 12.315c-6.958 6.957-16.218 10.787-26.076 10.787zM272.447 346.768c-47.282 0-87.736 29.135-104.455 70.423h208.909c-16.718-41.288-57.172-70.423-104.454-70.423z"/></g><g fill="#fff1cd"><path d="M344.257 111.424a8.684 8.684 0 0 1-5.897-2.3l-30.014-27.625-30.009 27.624a8.704 8.704 0 0 1-11.793.001L236.533 81.5l-30.006 27.623a8.706 8.706 0 0 1-11.795 0L158.827 76.07a8.706 8.706 0 0 1-.509-12.303c3.257-3.539 8.767-3.767 12.303-.509l30.009 27.623 30.006-27.623a8.706 8.706 0 0 1 11.795-.001l30.011 27.625 30.009-27.624a8.704 8.704 0 0 1 11.793-.001l30.014 27.625 30.013-27.625a8.708 8.708 0 0 1 11.794 12.814l-35.91 33.053a8.686 8.686 0 0 1-5.898 2.3zM89.261 460.729c-11.754 0-21.282 9.528-21.282 21.282s9.528 21.282 21.282 21.282h354.762V460.73H89.261v-.001z"/></g><path d="M444.023 512H89.26c-16.536 0-29.989-13.454-29.989-29.99 0-16.536 13.453-29.989 29.989-29.989h354.762c4.81 0 8.708 3.897 8.708 8.708s-3.897 8.708-8.708 8.708H89.26c-6.934 0-12.574 5.64-12.574 12.574 0 6.935 5.64 12.575 12.574 12.575h354.762a8.707 8.707 0 0 1 .001 17.414z" fill="#f99d88"/></svg>