<?xml version="1.0" encoding="iso-8859-1"?>
<!-- Generator: Adobe Illustrator 19.0.0, SVG Export Plug-In . SVG Version: 6.00 Build 0)  -->
<svg version="1.1" id="Layer_1" xmlns="http://www.w3.org/2000/svg" xmlns:xlink="http://www.w3.org/1999/xlink" x="0px" y="0px"
	 viewBox="0 0 512.001 512.001" style="enable-background:new 0 0 512.001 512.001;" xml:space="preserve">
<path style="fill:#A5694B;" d="M370.798,265.352c-0.155-0.183-0.335-0.341-0.491-0.524H141.694
	c-0.156,0.183-0.337,0.341-0.491,0.524c-9.244,4.862-79.622,43.491-69.61,87.752c4.831,21.356,24.061,25.837,35.482,26.571
	c8.8,74.494,72.065,132.308,148.925,132.308s140.125-57.814,148.925-132.308c11.422-0.734,30.652-5.215,35.482-26.571
	C450.419,308.843,380.041,270.214,370.798,265.352z"/>
<g>
	<path style="fill:#925F4A;" d="M256.001,344.258c55.33,0,104.669-25.49,137.041-65.324c-10.504-7.251-19.357-12.064-22.243-13.583
		c-0.155-0.183-0.335-0.341-0.491-0.524H141.694c-0.156,0.183-0.337,0.341-0.491,0.524c-2.888,1.518-11.74,6.333-22.243,13.583
		C151.332,318.77,200.67,344.258,256.001,344.258z"/>
	<path style="fill:#925F4A;" d="M141.208,265.347L141.208,265.347l-0.004,0.004c-9.244,4.862-79.622,43.491-69.61,87.752
		c4.831,21.356,24.061,25.837,35.482,26.571c8.8,74.494,72.065,132.308,148.925,132.308c8.914,0,17.618-0.855,26.102-2.346
		c0.122-0.031,0.262-0.107,0.381-0.128c-70.228-12.526-123.586-73.766-123.586-147.594c0-37.062,13.459-70.94,35.735-97.086h-52.938
		C141.541,265.009,141.445,265.347,141.208,265.347z"/>
</g>
<circle style="fill:#A5694B;" cx="141.242" cy="61.793" r="61.793"/>
<circle style="fill:#925F4A;" cx="141.242" cy="61.793" r="44.138"/>
<circle style="fill:#A5694B;" cx="370.759" cy="61.793" r="61.793"/>
<circle style="fill:#925F4A;" cx="370.759" cy="61.793" r="44.138"/>
<g>
	<path style="fill:#B97850;" d="M396.909,424.068c-7.957-7.957-19.676-10.879-32.995-8.205
		c-12.146,2.432-24.408,9.341-34.526,19.457c-10.118,10.116-17.026,22.379-19.458,34.525c-2.666,13.326,0.248,25.037,8.206,32.994
		c6.03,6.03,14.221,9.162,23.639,9.162c2.999,0,6.131-0.319,9.348-0.963c12.153-2.432,24.416-9.341,34.526-19.457
		c10.118-10.11,17.026-22.371,19.458-34.525C407.772,443.735,404.858,432.018,396.909,424.068z"/>
	<circle style="fill:#B97850;" cx="256.001" cy="167.702" r="158.897"/>
</g>
<path style="fill:#A5694B;" d="M153.186,167.706c0-78.172,56.497-143.014,130.856-156.276c-9.118-1.626-18.456-2.621-28.041-2.621
	c-87.756,0-158.897,71.14-158.897,158.897s71.14,158.897,158.897,158.897c9.585,0,18.923-0.994,28.041-2.621
	C209.682,310.72,153.186,245.878,153.186,167.706z"/>
<ellipse style="fill:#FFE678;" cx="256.001" cy="256" rx="69.65" ry="61.793"/>
<path style="fill:#FFC855;" d="M210.89,256c0-30.407,24.776-55.627,57.379-60.777c-3.99-0.63-8.075-1.016-12.269-1.016
	c-38.465,0-69.649,27.666-69.649,61.793s31.182,61.793,69.649,61.793c4.194,0,8.279-0.386,12.269-1.016
	C235.666,311.627,210.89,286.407,210.89,256z"/>
<g>
	<path style="fill:#6E4141;" d="M189.794,194.207L189.794,194.207c-7.313,0-13.241-5.929-13.241-13.241v-8.845
		c0-7.313,5.929-13.241,13.241-13.241l0,0c7.313,0,13.241,5.929,13.241,13.241v8.845
		C203.035,188.278,197.106,194.207,189.794,194.207z"/>
	<path style="fill:#6E4141;" d="M322.207,194.207L322.207,194.207c-7.313,0-13.241-5.929-13.241-13.241v-8.845
		c0-7.313,5.929-13.241,13.241-13.241l0,0c7.313,0,13.241,5.929,13.241,13.241v8.845
		C335.449,188.278,329.52,194.207,322.207,194.207z"/>
</g>
<path style="fill:#B97850;" d="M182.615,435.318c-10.118-10.118-22.38-17.026-34.526-19.458
	c-13.304-2.665-25.038,0.241-32.995,8.206c-7.949,7.949-10.863,19.668-8.199,32.987c2.432,12.153,9.341,24.416,19.458,34.526
	c10.11,10.118,22.372,17.026,34.526,19.458c3.225,0.646,6.349,0.963,9.348,0.963c9.418,0,17.609-3.132,23.639-9.162
	c7.957-7.957,10.871-19.668,8.206-32.994C199.641,457.698,192.732,445.436,182.615,435.318z"/>
<path style="fill:#A5694B;" d="M150.211,491.578c-10.118-10.11-17.026-22.372-19.458-34.526
	c-2.666-13.319,0.248-25.037,8.199-32.987c3.4-3.403,7.52-5.822,12.125-7.338c-0.998-0.259-1.991-0.669-2.987-0.868
	c-13.304-2.665-25.038,0.241-32.995,8.206c-7.949,7.949-10.863,19.668-8.199,32.987c2.432,12.153,9.341,24.416,19.458,34.526
	c10.11,10.118,22.372,17.026,34.526,19.458c3.225,0.646,6.349,0.963,9.348,0.963c4.085,0,7.88-0.701,11.426-1.859
	C170.527,507.229,159.464,500.84,150.211,491.578z"/>
<g>
	<path style="fill:#925F4A;" d="M341.992,502.816c-7.957-7.957-10.871-19.668-8.206-32.994c2.432-12.146,9.341-24.407,19.458-34.525
		c9.288-9.287,20.387-15.691,31.54-18.59c-6.172-2.034-13.244-2.399-20.872-0.868c-12.146,2.432-24.408,9.341-34.526,19.457
		c-10.118,10.116-17.026,22.379-19.458,34.525c-2.666,13.326,0.248,25.037,8.206,32.994c6.03,6.03,14.221,9.162,23.639,9.162
		c2.999,0,6.131-0.319,9.348-0.963c1.03-0.206,2.053-0.626,3.083-0.896C349.573,508.605,345.407,506.23,341.992,502.816z"/>
	<path style="fill:#925F4A;" d="M297.552,248.776c-3.448-3.448-9.035-3.448-12.483,0c-8.211,8.211-15.944,5.621-20.242,2.905V220.69
		c0-4.875-3.953-8.828-8.828-8.828c-4.875,0-8.828,3.953-8.828,8.828v30.983c-4.086,2.526-11.975,5.362-20.242-2.897
		c-3.448-3.448-9.035-3.448-12.483,0s-3.448,9.035,0,12.483c7.758,7.758,16.151,10.634,23.923,10.634
		c6.616,0,12.69-2.155,17.63-5.084c4.939,2.929,11.014,5.084,17.63,5.084c7.772,0,16.168-2.874,23.923-10.634
		C301,257.811,301,252.224,297.552,248.776z"/>
</g>
<ellipse style="fill:#784B46;" cx="256.001" cy="207.448" rx="35.31" ry="22.069"/>
<path style="fill:#6E4141;" d="M238.345,207.448c0-10.272,11.279-18.828,26.483-21.289c-2.837-0.459-5.761-0.78-8.828-0.78
	c-19.501,0-35.31,9.88-35.31,22.069c0,12.188,15.809,22.069,35.31,22.069c3.066,0,5.991-0.321,8.828-0.78
	C249.625,226.276,238.345,217.719,238.345,207.448z"/>
<circle style="fill:#A0786E;" cx="273.656" cy="203.034" r="8.828"/>
<g>
</g>
<g>
</g>
<g>
</g>
<g>
</g>
<g>
</g>
<g>
</g>
<g>
</g>
<g>
</g>
<g>
</g>
<g>
</g>
<g>
</g>
<g>
</g>
<g>
</g>
<g>
</g>
<g>
</g>
</svg>
