<svg xmlns="http://www.w3.org/2000/svg" viewBox="0 0 512.001 512.001"><path d="M370.798 265.352c-.155-.183-.335-.341-.491-.524H141.694c-.156.183-.337.341-.491.524-9.244 4.862-79.622 43.491-69.61 87.752 4.831 21.356 24.061 25.837 35.482 26.571 8.8 74.494 72.065 132.308 148.925 132.308s140.125-57.814 148.925-132.308c11.422-.734 30.652-5.215 35.482-26.571 10.012-44.261-60.366-82.89-69.609-87.752z" fill="#a5694b"/><g fill="#925f4a"><path d="M256.001 344.258c55.33 0 104.669-25.49 137.041-65.324-10.504-7.251-19.357-12.064-22.243-13.583-.155-.183-.335-.341-.491-.524H141.694c-.156.183-.337.341-.491.524-2.888 1.518-11.74 6.333-22.243 13.583 32.372 39.836 81.71 65.324 137.041 65.324z"/><path d="M141.208 265.347l-.004.004c-9.244 4.862-79.622 43.491-69.61 87.752 4.831 21.356 24.061 25.837 35.482 26.571 8.8 74.494 72.065 132.308 148.925 132.308 8.914 0 17.618-.855 26.102-2.346.122-.031.262-.107.381-.128-70.228-12.526-123.586-73.766-123.586-147.594 0-37.062 13.459-70.94 35.735-97.086h-52.938c-.154.181-.25.519-.487.519z"/></g><circle cx="141.242" cy="61.793" r="61.793" fill="#a5694b"/><circle cx="141.242" cy="61.793" r="44.138" fill="#925f4a"/><circle cx="370.759" cy="61.793" r="61.793" fill="#a5694b"/><circle cx="370.759" cy="61.793" r="44.138" fill="#925f4a"/><g fill="#b97850"><path d="M396.909 424.068c-7.957-7.957-19.676-10.879-32.995-8.205-12.146 2.432-24.408 9.341-34.526 19.457-10.118 10.116-17.026 22.379-19.458 34.525-2.666 13.326.248 25.037 8.206 32.994 6.03 6.03 14.221 9.162 23.639 9.162 2.999 0 6.131-.319 9.348-.963 12.153-2.432 24.416-9.341 34.526-19.457 10.118-10.11 17.026-22.371 19.458-34.525 2.665-13.321-.249-25.038-8.198-32.988z"/><circle cx="256.001" cy="167.702" r="158.897"/></g><path d="M153.186 167.706c0-78.172 56.497-143.014 130.856-156.276-9.118-1.626-18.456-2.621-28.041-2.621-87.756 0-158.897 71.14-158.897 158.897s71.14 158.897 158.897 158.897c9.585 0 18.923-.994 28.041-2.621-74.36-13.262-130.856-78.104-130.856-156.276z" fill="#a5694b"/><ellipse cx="256.001" cy="256" rx="69.65" ry="61.793" fill="#ffe678"/><path d="M210.89 256c0-30.407 24.776-55.627 57.379-60.777-3.99-.63-8.075-1.016-12.269-1.016-38.465 0-69.649 27.666-69.649 61.793s31.182 61.793 69.649 61.793c4.194 0 8.279-.386 12.269-1.016-32.603-5.15-57.379-30.37-57.379-60.777z" fill="#ffc855"/><g fill="#6e4141"><path d="M189.794 194.207c-7.313 0-13.241-5.929-13.241-13.241v-8.845c0-7.313 5.929-13.241 13.241-13.241 7.313 0 13.241 5.929 13.241 13.241v8.845c0 7.312-5.929 13.241-13.241 13.241zM322.207 194.207c-7.313 0-13.241-5.929-13.241-13.241v-8.845c0-7.313 5.929-13.241 13.241-13.241 7.313 0 13.241 5.929 13.241 13.241v8.845c.001 7.312-5.928 13.241-13.241 13.241z"/></g><path d="M182.615 435.318c-10.118-10.118-22.38-17.026-34.526-19.458-13.304-2.665-25.038.241-32.995 8.206-7.949 7.949-10.863 19.668-8.199 32.987 2.432 12.153 9.341 24.416 19.458 34.526 10.11 10.118 22.372 17.026 34.526 19.458 3.225.646 6.349.963 9.348.963 9.418 0 17.609-3.132 23.639-9.162 7.957-7.957 10.871-19.668 8.206-32.994-2.431-12.146-9.34-24.408-19.457-34.526z" fill="#b97850"/><path d="M150.211 491.578c-10.118-10.11-17.026-22.372-19.458-34.526-2.666-13.319.248-25.037 8.199-32.987 3.4-3.403 7.52-5.822 12.125-7.338-.998-.259-1.991-.669-2.987-.868-13.304-2.665-25.038.241-32.995 8.206-7.949 7.949-10.863 19.668-8.199 32.987 2.432 12.153 9.341 24.416 19.458 34.526 10.11 10.118 22.372 17.026 34.526 19.458 3.225.646 6.349.963 9.348.963 4.085 0 7.88-.701 11.426-1.859-11.127-2.911-22.19-9.3-31.443-18.562z" fill="#a5694b"/><g fill="#925f4a"><path d="M341.992 502.816c-7.957-7.957-10.871-19.668-8.206-32.994 2.432-12.146 9.341-24.407 19.458-34.525 9.288-9.287 20.387-15.691 31.54-18.59-6.172-2.034-13.244-2.399-20.872-.868-12.146 2.432-24.408 9.341-34.526 19.457-10.118 10.116-17.026 22.379-19.458 34.525-2.666 13.326.248 25.037 8.206 32.994 6.03 6.03 14.221 9.162 23.639 9.162 2.999 0 6.131-.319 9.348-.963 1.03-.206 2.053-.626 3.083-.896-4.631-1.513-8.797-3.888-12.212-7.302zM297.552 248.776a8.825 8.825 0 0 0-12.483 0c-8.211 8.211-15.944 5.621-20.242 2.905V220.69a8.829 8.829 0 0 0-17.656 0v30.983c-4.086 2.526-11.975 5.362-20.242-2.897-3.448-3.448-9.035-3.448-12.483 0s-3.448 9.035 0 12.483c7.758 7.758 16.151 10.634 23.923 10.634 6.616 0 12.69-2.155 17.63-5.084 4.939 2.929 11.014 5.084 17.63 5.084 7.772 0 16.168-2.874 23.923-10.634a8.825 8.825 0 0 0 0-12.483z"/></g><ellipse cx="256.001" cy="207.448" rx="35.31" ry="22.069" fill="#784b46"/><path d="M238.345 207.448c0-10.272 11.279-18.828 26.483-21.289-2.837-.459-5.761-.78-8.828-.78-19.501 0-35.31 9.88-35.31 22.069 0 12.188 15.809 22.069 35.31 22.069 3.066 0 5.991-.321 8.828-.78-15.203-2.461-26.483-11.018-26.483-21.289z" fill="#6e4141"/><circle cx="273.656" cy="203.034" r="8.828" fill="#a0786e"/></svg>