<svg xmlns="http://www.w3.org/2000/svg" viewBox="0 0 512 512"><g fill="#492d25"><path d="M239.787 455.047a8.391 8.391 0 0 0-8.393 8.393 8.391 8.391 0 0 0 8.393 8.393H256v-16.787h-16.213zM272.213 414.882H256v16.787h16.213c4.637 0 8.393-3.757 8.393-8.393s-3.757-8.394-8.393-8.394z"/></g><path d="M312.241 338.74l-11.871-11.87-35.975 35.977V211.145h-16.787v151.7l-35.975-35.977-11.871 11.871 47.847 47.846v117.021a8.391 8.391 0 0 0 8.393 8.393 8.391 8.391 0 0 0 8.393-8.393v-117.02l47.846-47.846z" fill="#9e5439"/><path d="M288.427 0h-64.852c-12.61 9.744-22.141 38.032-22.141 38.032l54.567 22.383 54.567-22.383c-.001 0-9.532-28.288-22.141-38.032z" fill="#bb2c25"/><path d="M360.424 38.032H167.028L308.615 216.58c19.978-14.559 33.532-37.753 33.532-66.714-.001-50.613-5.714-71.599 18.277-111.834z" fill="#dd3b31"/><path d="M167.028 38.032h-15.453c23.992 40.234 18.279 61.221 18.279 111.833S211.21 233.528 256 233.528c19.161 0 37.68-6.065 52.615-16.948a154.626 154.626 0 0 0 2.064-25.241c-.001-81.496-63.455-148.159-143.651-153.307z" fill="#991b17"/><g fill="#c3a458"><path d="M433.013 206.096c-36.087-2.159-75.541 12.54-106.046 43.045-27.217 27.217-41.839 61.556-43.145 94.275l11.871 11.871c32.718-1.306 67.057-15.926 94.275-43.145 30.505-30.505 45.204-69.959 43.045-106.046zM185.033 249.141c-30.505-30.505-69.959-45.204-106.046-43.045-2.159 36.087 12.54 75.541 43.045 106.046 27.217 27.217 61.556 41.839 94.275 43.145l11.871-11.871c-1.307-32.719-15.928-67.058-43.145-94.275z"/></g></svg>