<?xml version="1.0" encoding="iso-8859-1"?>
<!-- Generator: Adobe Illustrator 19.0.0, SVG Export Plug-In . SVG Version: 6.00 Build 0)  -->
<svg version="1.1" id="Layer_1" xmlns="http://www.w3.org/2000/svg" xmlns:xlink="http://www.w3.org/1999/xlink" x="0px" y="0px"
	 viewBox="0 0 512 512" style="enable-background:new 0 0 512 512;" xml:space="preserve">
<path style="fill:#DEDAD2;" d="M483.007,2.692c-3.138-2.651-7.083-4.101-11.171-0.717
	c-34.422,28.496-165.527,138.589-165.527,138.589l42.529,34.402c0,0,107.151-127.601,134.885-161.104
	C487.108,9.775,485.658,5.83,483.007,2.692z"/>
<path style="fill:#FFCE6E;" d="M473.293,257.613L313.355,97.676l66.667-66.667c-195.355,0-353.721,158.367-353.721,353.721
	c0,13.042,0.705,25.92,2.081,38.596C137.969,423.34,152.131,512,348.793,512c0-83.058-90.522-119.467-90.522-228.374
	c24.023,8.545,50.91,6.75,73.739-5.399l98.07,22.6c11.933,11.933,31.281,11.933,43.214,0
	C485.226,288.894,485.226,269.546,473.293,257.613z"/>
<path style="fill:#FFAC55;" d="M473.293,257.613L335.81,120.129c-35.034-21.339-81.359-16.883-111.651,13.41
	c-35.546,35.546-35.546,93.178,0,128.725c29.245,29.245,73.432,34.406,107.977,15.528l-0.124,0.435l98.069,22.601
	c11.933,11.933,31.281,11.933,43.214,0C485.226,288.894,485.226,269.546,473.293,257.613z"/>
<g>
</g>
<g>
</g>
<g>
</g>
<g>
</g>
<g>
</g>
<g>
</g>
<g>
</g>
<g>
</g>
<g>
</g>
<g>
</g>
<g>
</g>
<g>
</g>
<g>
</g>
<g>
</g>
<g>
</g>
</svg>
