<svg xmlns="http://www.w3.org/2000/svg" viewBox="0 0 512 512"><path d="M483.007 2.692c-3.138-2.651-7.083-4.101-11.171-.717-34.422 28.496-165.527 138.589-165.527 138.589l42.529 34.402S455.989 47.365 483.723 13.862c3.385-4.087 1.935-8.032-.716-11.17z" fill="#dedad2"/><path d="M473.293 257.613L313.355 97.676l66.667-66.667c-195.355 0-353.721 158.367-353.721 353.721 0 13.042.705 25.92 2.081 38.596C137.969 423.34 152.131 512 348.793 512c0-83.058-90.522-119.467-90.522-228.374 24.023 8.545 50.91 6.75 73.739-5.399l98.07 22.6c11.933 11.933 31.281 11.933 43.214 0 11.932-11.933 11.932-31.281-.001-43.214z" fill="#ffce6e"/><path d="M473.293 257.613L335.81 120.129c-35.034-21.339-81.359-16.883-111.651 13.41-35.546 35.546-35.546 93.178 0 128.725 29.245 29.245 73.432 34.406 107.977 15.528l-.124.435 98.069 22.601c11.933 11.933 31.281 11.933 43.214 0 11.931-11.934 11.931-31.282-.002-43.215z" fill="#ffac55"/></svg>