<?xml version="1.0" encoding="iso-8859-1"?>
<!-- Generator: Adobe Illustrator 19.0.0, SVG Export Plug-In . SVG Version: 6.00 Build 0)  -->
<svg version="1.1" id="Layer_1" xmlns="http://www.w3.org/2000/svg" xmlns:xlink="http://www.w3.org/1999/xlink" x="0px" y="0px"
	 viewBox="0 0 504.051 504.051" style="enable-background:new 0 0 504.051 504.051;" xml:space="preserve">
<path style="fill:#324D5B;" d="M396.208,389.442c-3.151-5.514-10.634-7.483-16.148-4.332
	c-101.218,58.289-230.794,24.025-289.083-76.012C33.082,209.061,68.134,80.273,169.352,21.984
	c5.514-3.151,7.483-10.634,4.332-16.148s-10.634-7.483-16.148-4.332C44.897,66.488,5.906,209.848,70.497,320.913
	c40.172,69.317,110.671,109.883,185.502,115.397v32.295h-45.292c-9.846,0-17.723,7.877-17.723,17.723
	c0,9.846,7.877,17.723,17.723,17.723h114.215c9.846,0,17.723-7.877,17.723-17.723c0-9.846-7.877-17.723-17.723-17.723h-48.443h3.151
	v-31.508c38.203-0.788,76.8-11.028,112.246-31.508C397.389,402.045,399.359,394.956,396.208,389.442z"/>
<path style="fill:#26A6D1;" d="M275.691,15.682c104.369,0,189.046,84.677,189.046,189.046S380.06,393.774,275.691,393.774
	S86.645,309.098,86.645,204.728S171.322,15.682,275.691,15.682z"/>
<path style="fill:#AEC225;" d="M416.688,330.759c12.997-50.412,24.812-123.274-12.603-115.003
	c-35.84,7.877-80.345,16.542-101.612,19.692s-46.868-18.117-75.618-33.477c-3.938-16.148-4.332-24.812,18.117-41.354
	c22.843-16.935,33.477,16.148,42.535,6.302c14.966-18.117,4.726-35.052,24.025-74.437c19.298-38.597,21.268-32.689,35.052-63.015
	c-21.662-8.665-45.686-13.785-70.892-13.785c-73.255,0-136.665,41.748-168.172,102.4c5.12,10.634,12.209,21.662,22.055,33.871
	c30.326,36.628,62.228,51.594,112.246,82.314c50.018,30.326,42.535,44.111,30.326,57.895c-12.209,13.785-31.114,72.862,4.726,91.372
	l16.148,9.846C341.857,388.654,385.574,365.418,416.688,330.759z"/>
<path style="fill:#2295BC;" d="M303.26,366.205c-104.369,0-189.046-84.677-189.046-189.046c0-45.292,15.754-86.646,42.142-119.335
	c-42.535,35.052-69.711,87.828-69.711,146.905c0,104.369,84.677,189.046,189.046,189.046c59.077,0,112.246-27.175,146.905-69.711
	C389.906,350.451,348.552,366.205,303.26,366.205z"/>
<path style="fill:#9CAE21;" d="M417.082,328.002c-31.508,24.025-70.892,38.203-113.822,38.203c-15.36,0-30.326-1.969-44.505-5.514
	c2.757,9.452,8.665,17.329,18.117,22.449c6.302,3.938,11.422,7.089,16.148,9.846h1.182l6.695-0.788l2.757-0.394l6.695-1.182
	l2.363-0.394c7.483-1.575,14.966-3.545,22.055-5.908l2.363-0.788c1.969-0.788,3.938-1.182,5.514-1.969l3.545-1.182l5.12-2.363
	c1.182-0.394,2.363-1.182,3.938-1.575l4.726-2.363l3.938-1.969l4.332-2.363l4.726-2.757c1.575-0.788,2.757-1.575,4.332-2.757
	c2.363-1.575,4.332-3.151,6.695-4.332l3.151-2.363l4.726-3.545l3.151-2.363c1.575-1.182,3.151-2.363,4.332-3.545
	c0.788-0.788,1.969-1.575,2.757-2.757l4.332-3.938c0.788-0.788,1.575-1.575,2.757-2.363l4.726-4.726l1.969-1.969l0.394-0.394
	C416.688,329.971,417.081,328.79,417.082,328.002L417.082,328.002z M118.546,136.987c6.302-29.145,19.692-55.926,37.809-78.769
	l-0.394,0.394c-2.363,1.969-4.332,3.545-6.302,5.514l-1.969,1.969c-1.575,1.575-3.545,3.151-5.12,5.12l-2.363,2.363l-4.726,4.726
	c-0.788,0.788-1.575,1.575-2.363,2.757l-4.726,5.908c-0.788,0.788-1.575,1.969-2.363,3.151l-3.151,3.938l-3.151,4.332l-3.151,4.726
	c-0.788,1.182-1.575,2.363-2.363,3.938l-2.363,3.545l-3.545,6.302l-1.182,1.969C110.669,124.384,114.214,130.291,118.546,136.987z"
	/>
<g>
</g>
<g>
</g>
<g>
</g>
<g>
</g>
<g>
</g>
<g>
</g>
<g>
</g>
<g>
</g>
<g>
</g>
<g>
</g>
<g>
</g>
<g>
</g>
<g>
</g>
<g>
</g>
<g>
</g>
</svg>
