<svg xmlns="http://www.w3.org/2000/svg" viewBox="0 0 504.051 504.051"><path d="M396.208 389.442c-3.151-5.514-10.634-7.483-16.148-4.332-101.218 58.289-230.794 24.025-289.083-76.012C33.082 209.061 68.134 80.273 169.352 21.984c5.514-3.151 7.483-10.634 4.332-16.148s-10.634-7.483-16.148-4.332C44.897 66.488 5.906 209.848 70.497 320.913c40.172 69.317 110.671 109.883 185.502 115.397v32.295h-45.292a17.65 17.65 0 0 0-17.723 17.723 17.65 17.65 0 0 0 17.723 17.723h114.215a17.65 17.65 0 0 0 17.723-17.723 17.65 17.65 0 0 0-17.723-17.723h-48.443 3.151v-31.508c38.203-.788 76.8-11.028 112.246-31.508 5.513-3.544 7.483-10.633 4.332-16.147z" fill="#324d5b"/><path d="M275.691 15.682c104.369 0 189.046 84.677 189.046 189.046S380.06 393.774 275.691 393.774 86.645 309.098 86.645 204.728 171.322 15.682 275.691 15.682z" fill="#26a6d1"/><path d="M416.688 330.759c12.997-50.412 24.812-123.274-12.603-115.003-35.84 7.877-80.345 16.542-101.612 19.692s-46.868-18.117-75.618-33.477c-3.938-16.148-4.332-24.812 18.117-41.354 22.843-16.935 33.477 16.148 42.535 6.302 14.966-18.117 4.726-35.052 24.025-74.437 19.298-38.597 21.268-32.689 35.052-63.015-21.662-8.665-45.686-13.785-70.892-13.785-73.255 0-136.665 41.748-168.172 102.4 5.12 10.634 12.209 21.662 22.055 33.871 30.326 36.628 62.228 51.594 112.246 82.314 50.018 30.326 42.535 44.111 30.326 57.895-12.209 13.785-31.114 72.862 4.726 91.372l16.148 9.846c48.836-4.726 92.553-27.962 123.667-62.621z" fill="#aec225"/><path d="M303.26 366.205c-104.369 0-189.046-84.677-189.046-189.046 0-45.292 15.754-86.646 42.142-119.335-42.535 35.052-69.711 87.828-69.711 146.905 0 104.369 84.677 189.046 189.046 189.046 59.077 0 112.246-27.175 146.905-69.711-32.69 26.387-74.044 42.141-119.336 42.141z" fill="#2295bc"/><path d="M417.082 328.002c-31.508 24.025-70.892 38.203-113.822 38.203-15.36 0-30.326-1.969-44.505-5.514 2.757 9.452 8.665 17.329 18.117 22.449 6.302 3.938 11.422 7.089 16.148 9.846h1.182l6.695-.788 2.757-.394 6.695-1.182 2.363-.394c7.483-1.575 14.966-3.545 22.055-5.908l2.363-.788c1.969-.788 3.938-1.182 5.514-1.969l3.545-1.182 5.12-2.363c1.182-.394 2.363-1.182 3.938-1.575l4.726-2.363 3.938-1.969 4.332-2.363 4.726-2.757c1.575-.788 2.757-1.575 4.332-2.757 2.363-1.575 4.332-3.151 6.695-4.332l3.151-2.363 4.726-3.545 3.151-2.363c1.575-1.182 3.151-2.363 4.332-3.545.788-.788 1.969-1.575 2.757-2.757l4.332-3.938c.788-.788 1.575-1.575 2.757-2.363l4.726-4.726 1.969-1.969.394-.394c.397-1.968.79-3.149.791-3.937zM118.546 136.987c6.302-29.145 19.692-55.926 37.809-78.769l-.394.394c-2.363 1.969-4.332 3.545-6.302 5.514l-1.969 1.969c-1.575 1.575-3.545 3.151-5.12 5.12l-2.363 2.363-4.726 4.726c-.788.788-1.575 1.575-2.363 2.757l-4.726 5.908c-.788.788-1.575 1.969-2.363 3.151l-3.151 3.938-3.151 4.332-3.151 4.726c-.788 1.182-1.575 2.363-2.363 3.938l-2.363 3.545-3.545 6.302-1.182 1.969c3.546 5.514 7.091 11.421 11.423 18.117z" fill="#9cae21"/></svg>