<?xml version="1.0" encoding="iso-8859-1"?>
<!-- Generator: Adobe Illustrator 19.0.0, SVG Export Plug-In . SVG Version: 6.00 Build 0)  -->
<svg version="1.1" id="Layer_1" xmlns="http://www.w3.org/2000/svg" xmlns:xlink="http://www.w3.org/1999/xlink" x="0px" y="0px"
	 viewBox="0 0 56 56" style="enable-background:new 0 0 56 56;" xml:space="preserve">
<g>
	<path style="fill:#EE8B26;" d="M26,29h8c0.551,0,1-0.741,1-1.292v-1c0-0.197,0.059-0.244,0.168-0.408l0.963-1.3H36
		c-0.552,0-1-0.448-1-1c0-0.551-0.449-1-1-1h-8c-0.551,0-1,0.156-1,0.708v4C25,28.259,25.449,29,26,29z M27,25h6v2h-6V25z"/>
	<circle style="fill:#F8CF26;" cx="12" cy="17.708" r="4"/>
	<path style="fill:#EE8B26;" d="M20,8c0.552,0,1,0.155,1,0.708v1l1.2-1.454C22.389,8.002,22.685,8,23,8h8c0.551,0,1-0.741,1-1.292
		v-4C32,2.156,31.551,2,31,2H19c-0.551,0-1,0.156-1,0.707v4C18,7.259,18.449,8,19,8H20z M20,4h10v2H20V4z"/>
	<circle style="fill:#F8CF26;" cx="44" cy="17.708" r="4"/>
	<path style="fill:#F8CF26;" d="M46,28h-4v2.708v1v2C42,34.26,41.552,35,41,35h-8v2h3h2h6v-6h2v6.708C46,38.26,45.552,39,45,39h-7
		c-0.551,0-1,0.156-1,0.708V54h2V42.708C39,42.155,39.448,42,40,42h9V30.708C49,29.053,47.654,28,46,28z"/>
	<path style="fill:#F8CF26;" d="M14,33.708v-2v-1V28h-4c-1.654,0-3,1.053-3,2.708V42h9c0.552,0,1,0.155,1,0.708V54h2V39.708
		C19,39.156,18.551,39,18,39h-7c-0.552,0-1-0.74-1-1.292V31h2v6h6h2h3v-2h-8C14.448,35,14,34.26,14,33.708z"/>
	<g>
		<path d="M12,23.708c3.309,0,6-2.691,6-6s-2.691-6-6-6s-6,2.691-6,6S8.691,23.708,12,23.708z M12,13.708c2.206,0,4,1.794,4,4
			s-1.794,4-4,4s-4-1.794-4-4S9.794,13.708,12,13.708z"/>
		<path d="M44,23.708c3.309,0,6-2.691,6-6s-2.691-6-6-6s-6,2.691-6,6S40.691,23.708,44,23.708z M44,13.708c2.206,0,4,1.794,4,4
			s-1.794,4-4,4s-4-1.794-4-4S41.794,13.708,44,13.708z"/>
		<path d="M54,26v12.708c0,1.654-1.346,3-3,3v-11C51,27.951,48.757,26,46,26h-5c-0.552,0-1,0.155-1,0.708v4v1V33h-8
			c-0.552,0-1,0.155-1,0.708V37h-6v-3.292C25,33.155,24.552,33,24,33h-8v-1.292v-1v-4C16,26.155,15.552,26,15,26h-5
			c-2.757,0-5,1.951-5,4.708v11c-1.654,0-3-1.346-3-3V26H0v12.708c0,2.045,1.237,3.802,3,4.576V56h2V44h1h1h8v10.708
			C15,55.26,15.448,56,16,56h3h1h1v-1.292v-15V39h3h8h3v0.708v15V56h1h1h3c0.552,0,1-0.74,1-1.292V44h8h1h1v12h2V43.284
			c1.763-0.774,3-2.531,3-4.576V26H54z M20,37h-2h-6v-6h-2v6.708C10,38.26,10.448,39,11,39h7c0.551,0,1,0.156,1,0.708V54h-2V42.708
			C17,42.155,16.552,42,16,42H7V30.708C7,29.053,8.346,28,10,28h4v2.708v1v2C14,34.26,14.448,35,15,35h8v2H20z M40,42
			c-0.552,0-1,0.155-1,0.708V54h-2V39.708C37,39.156,37.449,39,38,39h7c0.552,0,1-0.74,1-1.292V31h-2v6h-6h-2h-3v-2h8
			c0.552,0,1-0.74,1-1.292v-2v-1V28h4c1.654,0,3,1.053,3,2.708V42H40z"/>
		<path d="M19,9.708v3c0,0.431,0.275,0.812,0.684,0.949c0.104,0.035,0.211,0.051,0.316,0.051c0.309,0,0.607,0.003,0.8-0.254L23.5,10
			H31c1.654,0,3-1.638,3-3.292v-4C34,1.053,32.654,0,31,0H19c-1.654,0-3,1.053-3,2.707v4C16,8.362,17.346,9.708,19,9.708z M18,2.707
			C18,2.156,18.449,2,19,2h12c0.551,0,1,0.156,1,0.707v4C32,7.259,31.551,8,31,8h-8c-0.315,0-0.611,0.002-0.8,0.254L21,9.708v-1
			C21,8.155,20.552,8,20,8h-1c-0.551,0-1-0.741-1-1.292V2.707z"/>
		<rect x="20" y="4" width="10" height="2"/>
		<rect x="27" y="25" width="6" height="2"/>
		<path d="M26,21c-1.654,0-3,1.053-3,2.708v4C23,29.362,24.346,31,26,31h8c1.654,0,3-1.638,3-3.292V27.01l1.832-2.748
			c0.205-0.307,0.224-0.555,0.05-0.88S38.369,23,38,23h-1.171c-0.413-2-1.525-2-2.829-2H26L26,21z M35,24c0,0.552,0.448,1,1,1h0.131
			l-0.963,1.299C35.059,26.463,35,26.51,35,26.708v1C35,28.259,34.551,29,34,29h-8c-0.551,0-1-0.741-1-1.292v-4
			C25,23.156,25.449,23,26,23h8C34.551,23,35,23.449,35,24z"/>
		<rect x="23" y="15.708" width="2" height="2"/>
		<rect x="27" y="15.708" width="2" height="2"/>
		<rect x="31" y="15.708" width="2" height="2"/>
	</g>
</g>
<g>
</g>
<g>
</g>
<g>
</g>
<g>
</g>
<g>
</g>
<g>
</g>
<g>
</g>
<g>
</g>
<g>
</g>
<g>
</g>
<g>
</g>
<g>
</g>
<g>
</g>
<g>
</g>
<g>
</g>
</svg>
