<svg xmlns="http://www.w3.org/2000/svg" viewBox="0 0 56 56"><path d="M26 29h8c.551 0 1-.741 1-1.292v-1c0-.197.059-.244.168-.408l.963-1.3H36a1 1 0 0 1-1-1c0-.551-.449-1-1-1h-8c-.551 0-1 .156-1 .708v4c0 .551.449 1.292 1 1.292zm1-4h6v2h-6v-2z" fill="#ee8b26"/><circle cx="12" cy="17.708" r="4" fill="#f8cf26"/><path d="M20 8c.552 0 1 .155 1 .708v1l1.2-1.454c.189-.252.485-.254.8-.254h8c.551 0 1-.741 1-1.292v-4C32 2.156 31.551 2 31 2H19c-.551 0-1 .156-1 .707v4C18 7.259 18.449 8 19 8h1zm0-4h10v2H20V4z" fill="#ee8b26"/><circle cx="44" cy="17.708" r="4" fill="#f8cf26"/><path d="M46 28h-4v5.708C42 34.26 41.552 35 41 35h-8v2h11v-6h2v6.708C46 38.26 45.552 39 45 39h-7c-.551 0-1 .156-1 .708V54h2V42.708c0-.553.448-.708 1-.708h9V30.708C49 29.053 47.654 28 46 28zM14 33.708V28h-4c-1.654 0-3 1.053-3 2.708V42h9c.552 0 1 .155 1 .708V54h2V39.708c0-.552-.449-.708-1-.708h-7c-.552 0-1-.74-1-1.292V31h2v6h11v-2h-8c-.552 0-1-.74-1-1.292z" fill="#f8cf26"/><path d="M12 23.708c3.309 0 6-2.691 6-6s-2.691-6-6-6-6 2.691-6 6 2.691 6 6 6zm0-10c2.206 0 4 1.794 4 4s-1.794 4-4 4-4-1.794-4-4 1.794-4 4-4zM44 23.708c3.309 0 6-2.691 6-6s-2.691-6-6-6-6 2.691-6 6 2.691 6 6 6zm0-10c2.206 0 4 1.794 4 4s-1.794 4-4 4-4-1.794-4-4 1.794-4 4-4zM54 26v12.708c0 1.654-1.346 3-3 3v-11C51 27.951 48.757 26 46 26h-5c-.552 0-1 .155-1 .708V33h-8c-.552 0-1 .155-1 .708V37h-6v-3.292c0-.553-.448-.708-1-.708h-8v-6.292c0-.553-.448-.708-1-.708h-5c-2.757 0-5 1.951-5 4.708v11c-1.654 0-3-1.346-3-3V26H0v12.708a5.003 5.003 0 0 0 3 4.576V56h2V44h10v10.708c0 .552.448 1.292 1 1.292h5V39h14v17h5c.552 0 1-.74 1-1.292V44h10v12h2V43.284a5.003 5.003 0 0 0 3-4.576V26h-2zM20 37h-8v-6h-2v6.708c0 .552.448 1.292 1 1.292h7c.551 0 1 .156 1 .708V54h-2V42.708c0-.553-.448-.708-1-.708H7V30.708C7 29.053 8.346 28 10 28h4v5.708c0 .552.448 1.292 1 1.292h8v2h-3zm20 5c-.552 0-1 .155-1 .708V54h-2V39.708c0-.552.449-.708 1-.708h7c.552 0 1-.74 1-1.292V31h-2v6H33v-2h8c.552 0 1-.74 1-1.292V28h4c1.654 0 3 1.053 3 2.708V42h-9zM19 9.708v3a1 1 0 0 0 1 1c.309 0 .607.003.8-.254L23.5 10H31c1.654 0 3-1.638 3-3.292v-4C34 1.053 32.654 0 31 0H19c-1.654 0-3 1.053-3 2.707v4a3.004 3.004 0 0 0 3 3.001zm-1-7.001c0-.551.449-.707 1-.707h12c.551 0 1 .156 1 .707v4C32 7.259 31.551 8 31 8h-8c-.315 0-.611.002-.8.254L21 9.708v-1C21 8.155 20.552 8 20 8h-1c-.551 0-1-.741-1-1.292V2.707z"/><path d="M20 4h10v2H20zM27 25h6v2h-6z"/><path d="M26 21c-1.654 0-3 1.053-3 2.708v4C23 29.362 24.346 31 26 31h8c1.654 0 3-1.638 3-3.292v-.698l1.832-2.748c.205-.307.224-.555.05-.88S38.369 23 38 23h-1.171c-.413-2-1.525-2-2.829-2h-8zm9 3a1 1 0 0 0 1 1h.131l-.963 1.299c-.109.164-.168.211-.168.409v1c0 .551-.449 1.292-1 1.292h-8c-.551 0-1-.741-1-1.292v-4c0-.552.449-.708 1-.708h8c.551 0 1 .449 1 1zM23 15.708h2v2h-2zM27 15.708h2v2h-2zM31 15.708h2v2h-2z"/></svg>