<?xml version="1.0" encoding="iso-8859-1"?>
<!-- Generator: Adobe Illustrator 19.0.0, SVG Export Plug-In . SVG Version: 6.00 Build 0)  -->
<svg version="1.1" id="Capa_1" xmlns="http://www.w3.org/2000/svg" xmlns:xlink="http://www.w3.org/1999/xlink" x="0px" y="0px"
	 viewBox="0 0 385.786 385.786" style="enable-background:new 0 0 385.786 385.786;" xml:space="preserve">
<g>
	<g id="Guides_For_Artboard_24_">
	</g>
	<g id="Artwork_23_">
	</g>
	<g id="Layer_2_23_">
		<g>
			<g>
				<path style="fill:#D43D21;" d="M182.171,125.785c-0.39,0.058-0.77,0.081-1.153,0.12v66.619c8.89,1.581,18.783,0.154,25.84-0.82
					v-65.451c-0.741-0.095-1.472-0.24-2.182-0.46C195.47,122.948,194.167,124.007,182.171,125.785z"/>
				<path style="fill:#D43D21;" d="M194.102,0c-16.121,0-29.189,13.068-29.189,29.189c0,11.415,6.556,21.293,16.104,26.092v3.975
					c0.177-0.007,0.354-0.013,0.526-0.021h24.007c0.421,0.021,0.859,0.034,1.307,0.041v-3.825
					c9.729-4.734,16.435-14.714,16.435-26.261C223.292,13.068,210.224,0,194.102,0z"/>
			</g>
			<path style="fill:none;" d="M216.928,264.451c6.499-5.537,9.923-11.332,9.923-16.837c0-5.238,1.412-15.716-19.993-25.257v49.227
				C210.197,269.67,213.675,267.223,216.928,264.451z"/>
			<path style="fill:none;" d="M157.774,246.631c0,5.776,3.14,12.595,9.892,17.82c5.283,4.089,8.446,5.347,13.352,8.426v-51.94
				C156.161,230.683,157.774,240.998,157.774,246.631z"/>
			<path style="fill:#D43D21;" d="M181.017,219.936v53.94c10.144,6.057,18.985,2.208,23.113,0.17
				c0.893-0.44,1.806-0.936,2.727-1.463v-51.227c-1.091-0.486-2.222-0.971-3.434-1.451l-0.001,0.091
				c-7.174-3.333-11.525-2.587-20.475-0.802C182.283,219.441,181.648,219.689,181.017,219.936z"/>
			<path style="fill:#D43D21;" d="M181.017,310.696v55.987c-0.009,0.189-0.028,0.377-0.028,0.569
				c0,7.151,5.792,12.949,12.935,12.949s12.932-5.797,12.934-12.948v-54.288c-1.433-1.116-2.951-2.203-4.558-3.251
				C195.224,305.823,188.037,305.928,181.017,310.696z"/>
			<path style="fill:#2B3237;" d="M203.423,220.997l0.001-0.091c1.212,0.48,2.343,0.965,3.434,1.451
				c21.405,9.541,19.993,20.019,19.993,25.257c0,5.505-3.424,11.3-9.923,16.837c-3.253,2.772-6.73,5.219-10.07,7.133
				c-0.921,0.527-1.834,1.022-2.727,1.463c-4.128,2.038-12.97,5.887-23.113-0.17c-4.905-3.079-8.068-4.337-13.352-8.426
				c-6.752-5.226-9.892-12.044-9.892-17.82c0-5.633-1.613-15.947,23.243-25.694c0.631-0.247,1.266-0.495,1.931-0.741
				C191.897,218.41,196.249,217.664,203.423,220.997z M181.017,191.524c-0.579-0.103-1.155-0.215-1.725-0.345
				c-9.918-2.257-19.629-4.251-40.388-10.003c-19.88-5.268-41.76-13.786-45.014-18.13c0.253-0.25,0.627-0.517,1.254-0.767
				c1.747-1,4.875-1.859,8.375-2.626c7.376-1.5,17.256-2.25,27.259-2.75c19.882-0.609,21.394,0.391,23.757,0.25
				c2.362-0.142,14.446-0.291,14.826-9.478c0.379-9.187-6.162-9.857-11.287-10.89c-8.125-1.109-4.666-0.765-15.669-0.623
				c-18.253,1.375-74.146-3.143-81.147,26.241c0,0.859-0.124,1.376-0.25,2.142c2.374,25.601,55.516,36.761,93.9,44.356
				c-13.004,8.909-20.006,20.537-22.754,35.667c-1.376,16.005,11.377,31.259,41.013,48.232
				c-22.507,15.88-37.264,30.884-36.011,48.921c1.82,13.42,12.942,30.984,34.096,43.347c2.104,1.229,5.139,1.093,2.952-2.569
				c-5.301-8.879-14.496-25.626-15.294-36.183c-1.096-7.654,2.627-18.535,18.176-31.46c1.303-1.229,2.614-2.268,3.931-3.162
				c7.02-4.768,14.206-4.873,21.282-0.981c1.606,1.048,3.125,2.135,4.558,3.251c14.065,10.958,19.847,24.778,18.825,32.353
				c-0.792,10.494-9.759,27.178-15.199,36.021c-1.82,2.959,0.055,4.459,2.943,2.687c20.94-12.849,32.188-29.858,34.01-43.303
				c1.254-18.037-13.504-33.041-35.916-48.921c29.541-16.974,42.295-32.228,40.918-48.232c-2.748-15.004-9.75-26.633-22.754-35.667
				c38.385-7.596,91.526-18.756,93.9-44.356c-0.126-0.766-0.25-1.282-0.25-2.142c-7.002-29.384-62.895-24.866-81.146-26.241
				c-11.004-0.142-9.636-0.209-14.786-0.188c-5.151,0.02-11.809,2.73-11.976,10.941c-0.166,8.21,9.308,10.326,14.631,10.237
				c3.111-0.052,3.875-0.859,23.758-0.125c10.002,0.375,19.882,1.125,27.131,2.625c3.628,0.767,6.629,1.626,8.503,2.626
				c0.5,0.25,1,0.517,1.253,0.767c-3.254,4.344-25.134,12.862-45.014,18.13c-18.237,5.054-33.373,8.459-37.405,9.332
				c-0.46,0.062-0.937,0.128-1.426,0.195C199.801,191.678,189.907,193.105,181.017,191.524z"/>
			<path style="fill:#E0DCD3;" d="M363.591,90.785c-48.088-8.912-86.096-52.576-96.771-61.277
				c-12.128-9.895-20.507-7.628-32.634,14.113c-7.574,13.507-19.405,15.781-27.328,15.654c-0.447-0.007-0.886-0.021-1.307-0.041
				h-24.007c-0.172,0.009-0.35,0.015-0.526,0.021c-7.908,0.286-20.281-1.677-28.108-15.635
				c-12.127-21.741-20.63-24.008-32.633-14.113c-10.845,8.838-49.933,53.278-99.051,61.62c-13.646,2.317-16.077,8.77-7.286,15.014
				c6.886,4.89,16.921,8.541,30.814,6.015c0,0,16.882,17.506,44.263,5.252c0,0,14.254,12.863,37.011,1.109
				c0,0,16.755,12.863,34.761,1.767c0,0,8.794,6.789,20.229,5.621c0.384-0.039,0.764-0.063,1.153-0.12
				c11.996-1.777,13.299-2.837,22.505,0.008c0.71,0.22,1.44,0.365,2.182,0.46c8.868,1.138,19.449-5.969,19.449-5.969
				c17.882,11.097,34.761-1.767,34.761-1.767c22.756,11.754,36.884-1.109,36.884-1.109c27.509,12.254,44.39-5.252,44.39-5.252
				c11.498,2.091,20.354-0.05,26.968-3.622C380.892,102.279,379.746,93.779,363.591,90.785z"/>
		</g>
	</g>
</g>
<g>
</g>
<g>
</g>
<g>
</g>
<g>
</g>
<g>
</g>
<g>
</g>
<g>
</g>
<g>
</g>
<g>
</g>
<g>
</g>
<g>
</g>
<g>
</g>
<g>
</g>
<g>
</g>
<g>
</g>
</svg>
