<svg xmlns="http://www.w3.org/2000/svg" viewBox="0 0 385.786 385.786"><g fill="#d43d21"><path d="M182.171 125.785c-.39.058-.77.081-1.153.12v66.619c8.89 1.581 18.783.154 25.84-.82v-65.451a12.903 12.903 0 0 1-2.182-.46c-9.206-2.845-10.509-1.786-22.505-.008zM194.102 0c-16.121 0-29.189 13.068-29.189 29.189 0 11.415 6.556 21.293 16.104 26.092v3.975c.177-.007.354-.013.526-.021h24.007c.421.021.859.034 1.307.041v-3.825c9.729-4.734 16.435-14.714 16.435-26.261 0-16.122-13.068-29.19-29.19-29.19z"/></g><path d="M216.928 264.451c6.499-5.537 9.923-11.332 9.923-16.837 0-5.238 1.412-15.716-19.993-25.257v49.227c3.339-1.914 6.817-4.361 10.07-7.133zM157.774 246.631c0 5.776 3.14 12.595 9.892 17.82 5.283 4.089 8.446 5.347 13.352 8.426v-51.94c-24.857 9.746-23.244 20.061-23.244 25.694z" fill="none"/><path d="M181.017 219.936v53.94c10.144 6.057 18.985 2.208 23.113.17a50.33 50.33 0 0 0 2.727-1.463v-51.227a88.002 88.002 0 0 0-3.434-1.451l-.001.091c-7.174-3.333-11.525-2.587-20.475-.802-.664.247-1.299.495-1.93.742zM181.017 310.696v55.987c-.009.189-.028.377-.028.569 0 7.151 5.792 12.949 12.935 12.949s12.932-5.797 12.934-12.948v-54.288a66.82 66.82 0 0 0-4.558-3.251c-7.076-3.891-14.263-3.786-21.283.982z" fill="#d43d21"/><path d="M203.423 220.997l.001-.091c1.212.48 2.343.965 3.434 1.451 21.405 9.541 19.993 20.019 19.993 25.257 0 5.505-3.424 11.3-9.923 16.837-3.253 2.772-6.73 5.219-10.07 7.133a51.038 51.038 0 0 1-2.727 1.463c-4.128 2.038-12.97 5.887-23.113-.17-4.905-3.079-8.068-4.337-13.352-8.426-6.752-5.226-9.892-12.044-9.892-17.82 0-5.633-1.613-15.947 23.243-25.694.631-.247 1.266-.495 1.931-.741 8.949-1.786 13.301-2.532 20.475.801zm-22.406-29.473a36.532 36.532 0 0 1-1.725-.345c-9.918-2.257-19.629-4.251-40.388-10.003-19.88-5.268-41.76-13.786-45.014-18.13.253-.25.627-.517 1.254-.767 1.747-1 4.875-1.859 8.375-2.626 7.376-1.5 17.256-2.25 27.259-2.75 19.882-.609 21.394.391 23.757.25 2.362-.142 14.446-.291 14.826-9.478.379-9.187-6.162-9.857-11.287-10.89-8.125-1.109-4.666-.765-15.669-.623-18.253 1.375-74.146-3.143-81.147 26.241 0 .859-.124 1.376-.25 2.142 2.374 25.601 55.516 36.761 93.9 44.356-13.004 8.909-20.006 20.537-22.754 35.667-1.376 16.005 11.377 31.259 41.013 48.232-22.507 15.88-37.264 30.884-36.011 48.921 1.82 13.42 12.942 30.984 34.096 43.347 2.104 1.229 5.139 1.093 2.952-2.569-5.301-8.879-14.496-25.626-15.294-36.183-1.096-7.654 2.627-18.535 18.176-31.46a31.467 31.467 0 0 1 3.931-3.162c7.02-4.768 14.206-4.873 21.282-.981a67.07 67.07 0 0 1 4.558 3.251c14.065 10.958 19.847 24.778 18.825 32.353-.792 10.494-9.759 27.178-15.199 36.021-1.82 2.959.055 4.459 2.943 2.687 20.94-12.849 32.188-29.858 34.01-43.303 1.254-18.037-13.504-33.041-35.916-48.921 29.541-16.974 42.295-32.228 40.918-48.232-2.748-15.004-9.75-26.633-22.754-35.667 38.385-7.596 91.526-18.756 93.9-44.356-.126-.766-.25-1.282-.25-2.142-7.002-29.384-62.895-24.866-81.146-26.241-11.004-.142-9.636-.209-14.786-.188-5.151.02-11.809 2.73-11.976 10.941-.166 8.21 9.308 10.326 14.631 10.237 3.111-.052 3.875-.859 23.758-.125 10.002.375 19.882 1.125 27.131 2.625 3.628.767 6.629 1.626 8.503 2.626.5.25 1 .517 1.253.767-3.254 4.344-25.134 12.862-45.014 18.13-18.237 5.054-33.373 8.459-37.405 9.332l-1.426.195c-7.056.975-16.95 2.402-25.84.821z" fill="#2b3237"/><path d="M363.591 90.785c-48.088-8.912-86.096-52.576-96.771-61.277-12.128-9.895-20.507-7.628-32.634 14.113-7.574 13.507-19.405 15.781-27.328 15.654a41.27 41.27 0 0 1-1.307-.041h-24.007c-.172.009-.35.015-.526.021-7.908.286-20.281-1.677-28.108-15.635-12.127-21.741-20.63-24.008-32.633-14.113-10.845 8.838-49.933 53.278-99.051 61.62-13.646 2.317-16.077 8.77-7.286 15.014 6.886 4.89 16.921 8.541 30.814 6.015 0 0 16.882 17.506 44.263 5.252 0 0 14.254 12.863 37.011 1.109 0 0 16.755 12.863 34.761 1.767 0 0 8.794 6.789 20.229 5.621.384-.039.764-.063 1.153-.12 11.996-1.777 13.299-2.837 22.505.008.71.22 1.44.365 2.182.46 8.868 1.138 19.449-5.969 19.449-5.969 17.882 11.097 34.761-1.767 34.761-1.767 22.756 11.754 36.884-1.109 36.884-1.109 27.509 12.254 44.39-5.252 44.39-5.252 11.498 2.091 20.354-.05 26.968-3.622 11.582-6.255 10.436-14.755-5.719-17.749z" fill="#e0dcd3"/></svg>