<?xml version="1.0" encoding="iso-8859-1"?>
<!-- Generator: Adobe Illustrator 19.0.0, SVG Export Plug-In . SVG Version: 6.00 Build 0)  -->
<svg version="1.1" id="Capa_1" xmlns="http://www.w3.org/2000/svg" xmlns:xlink="http://www.w3.org/1999/xlink" x="0px" y="0px"
	 viewBox="0 0 57 57" style="enable-background:new 0 0 57 57;" xml:space="preserve">
<path style="fill:#E4C05C;" d="M48.571,26.695C42.026,15.63,43.503,5.601,44.663,1.801c0.329-1.077-0.697-2.072-1.771-1.733
	c-1.29,0.407-2.833,1.194-4.081,2.715C37.926,3.861,37.169,6.664,36.928,8H20.616c-0.242-1.338-0.917-4.142-1.805-5.221
	c-1.24-1.506-2.77-2.292-4.055-2.702c-1.097-0.35-2.128,0.67-1.795,1.772c1.156,3.823,2.512,13.828-4.006,24.846
	C5.712,32.177,4.841,39.328,8.97,44.83c1.268,1.689,3.907,5.857,6.841,8.17c0.56-1.128,2.08-2,3.419-2h18.24
	c1.293,0,2.76,0.934,3.341,2c2.588-2.173,5.55-6.192,6.919-8.17C51.537,39.332,51.815,32.177,48.571,26.695z M40.901,37
	c-0.187,0.944-0.325,2-1.287,2h-0.803c0.064,0.179,0.106,0.369,0.106,0.57c0,0.941-1.165,1.43-2.106,1.43h-16
	c-0.941,0-2.106-0.489-2.106-1.43c0-0.201,0.041-0.391,0.106-0.57h-1.142c-0.963,0-1.802-0.674-1.988-1.619
	c-1.603-8.11,2.611-19.981,4.489-24.964c0.002-0.006,0.004-0.011,0.006-0.017C20.484,11.579,21.222,11,22.099,11h13.348
	c0.877,0,1.614,0.579,1.922,1.4c0.002,0.005,0.003,0.009,0.005,0.014C39.252,17.396,42.505,28.888,40.901,37z"/>
<path style="fill:#F3D55B;" d="M38.272,11h-18.66c-0.825,0-1.5-0.675-1.5-1.5v0c0-0.825,0.675-1.5,1.5-1.5h18.66
	c0.825,0,1.5,0.675,1.5,1.5v0C39.772,10.325,39.097,11,38.272,11z"/>
<path style="fill:#F3D55B;" d="M38.272,41h-18.66c-0.825,0-1.5-0.675-1.5-1.5l0,0c0-0.825,0.675-1.5,1.5-1.5h18.66
	c0.825,0,1.5,0.675,1.5,1.5l0,0C39.772,40.325,39.097,41,38.272,41z"/>
<rect x="24.822" y="11" style="fill:#D1D4D1;" width="2" height="27"/>
<rect x="21.811" y="11" style="fill:#D1D4D1;" width="2" height="27"/>
<rect x="27.8" y="11" style="fill:#D1D4D1;" width="2" height="27"/>
<rect x="30.811" y="11" style="fill:#D1D4D1;" width="2" height="27"/>
<rect x="33.811" y="11" style="fill:#D1D4D1;" width="2" height="27"/>
<path style="fill:#7F6E5D;" d="M37.89,57H18.81c-1.65,0-3-1.35-3-3v0c0-1.65,1.35-3,3-3h19.08c1.65,0,3,1.35,3,3v0
	C40.89,55.65,39.54,57,37.89,57z"/>
<g>
</g>
<g>
</g>
<g>
</g>
<g>
</g>
<g>
</g>
<g>
</g>
<g>
</g>
<g>
</g>
<g>
</g>
<g>
</g>
<g>
</g>
<g>
</g>
<g>
</g>
<g>
</g>
<g>
</g>
</svg>
