<svg xmlns="http://www.w3.org/2000/svg" viewBox="0 0 57 57"><path d="M48.571 26.695C42.026 15.63 43.503 5.601 44.663 1.801c.329-1.077-.697-2.072-1.771-1.733-1.29.407-2.833 1.194-4.081 2.715-.885 1.078-1.642 3.881-1.883 5.217H20.616c-.242-1.338-.917-4.142-1.805-5.221-1.24-1.506-2.77-2.292-4.055-2.702-1.097-.35-2.128.67-1.795 1.772 1.156 3.823 2.512 13.828-4.006 24.846-3.243 5.482-4.114 12.633.015 18.135 1.268 1.689 3.907 5.857 6.841 8.17.56-1.128 2.08-2 3.419-2h18.24c1.293 0 2.76.934 3.341 2 2.588-2.173 5.55-6.192 6.919-8.17 3.807-5.498 4.085-12.653.841-18.135zM40.901 37c-.187.944-.325 2-1.287 2h-.803c.064.179.106.369.106.57 0 .941-1.165 1.43-2.106 1.43h-16c-.941 0-2.106-.489-2.106-1.43 0-.201.041-.391.106-.57h-1.142a2.02 2.02 0 0 1-1.988-1.619c-1.603-8.11 2.611-19.981 4.489-24.964l.006-.017c.308-.821 1.046-1.4 1.923-1.4h13.348c.877 0 1.614.579 1.922 1.4l.005.014c1.878 4.982 5.131 16.474 3.527 24.586z" fill="#e4c05c"/><path d="M38.272 11h-18.66c-.825 0-1.5-.675-1.5-1.5s.675-1.5 1.5-1.5h18.66c.825 0 1.5.675 1.5 1.5s-.675 1.5-1.5 1.5zM38.272 41h-18.66c-.825 0-1.5-.675-1.5-1.5s.675-1.5 1.5-1.5h18.66c.825 0 1.5.675 1.5 1.5s-.675 1.5-1.5 1.5z" fill="#f3d55b"/><path fill="#d1d4d1" d="M24.822 11h2v27h-2zM21.811 11h2v27h-2zM27.8 11h2v27h-2zM30.811 11h2v27h-2zM33.811 11h2v27h-2z"/><path d="M37.89 57H18.81c-1.65 0-3-1.35-3-3s1.35-3 3-3h19.08c1.65 0 3 1.35 3 3s-1.35 3-3 3z" fill="#7f6e5d"/></svg>