<?xml version="1.0" encoding="iso-8859-1"?>
<!-- Generator: Adobe Illustrator 19.0.0, SVG Export Plug-In . SVG Version: 6.00 Build 0)  -->
<svg version="1.1" id="Layer_1" xmlns="http://www.w3.org/2000/svg" xmlns:xlink="http://www.w3.org/1999/xlink" x="0px" y="0px"
	 viewBox="0 0 297 297" style="enable-background:new 0 0 297 297;" xml:space="preserve">
<g>
	<g>
		<g>
			<g>
				<g>
					<g>
						<circle style="fill:#D0D5D9;" cx="148.5" cy="148.5" r="148.5"/>
					</g>
				</g>
			</g>
		</g>
	</g>
	<path style="fill:#929DA5;" d="M200.561,74.307l-96.224,152.094l68.588,68.588c63.667-10.537,113.656-61.566,122.627-125.749
		L200.561,74.307z"/>
	<g>
		<path style="fill:#C3A99A;" d="M74,154.375c0-41.145,33.355-74.5,74.5-74.5s74.5,33.355,74.5,74.5S189.645,247.5,148.5,247.5
			S74,195.52,74,154.375z"/>
	</g>
	<g>
		<path style="fill:#A89286;" d="M148.5,79.875c-0.112,0-0.221,0.008-0.333,0.008v167.61c0.111,0.001,0.222,0.007,0.333,0.007
			c41.145,0,74.5-51.98,74.5-93.125S189.645,79.875,148.5,79.875z"/>
	</g>
	<g>
		<path style="fill:#32373B;" d="M148.5,162.072c49.114,0,84.101-9.954,104.239-17.92c5.18-2.049,3.7-9.746-1.87-9.746h-15.607
			c-2.205,0-4.157-1.425-4.817-3.529C226.722,119.004,213.157,80.404,190,65.24c-18.93-12.396-31.45-1.2-37.424,7.001
			c-2.017,2.769-6.135,2.769-8.152,0C138.45,64.038,125.93,52.842,107,65.238c-23.157,15.164-36.722,53.764-40.445,65.637
			c-0.66,2.104-2.612,3.529-4.817,3.529H46.131c-5.57,0-7.05,7.697-1.87,9.746C64.399,152.118,99.386,162.072,148.5,162.072z"/>
	</g>
	<g>
		<path style="fill:#292D30;" d="M250.869,134.405h-15.607c-2.205,0-4.157-1.426-4.817-3.53
			c-3.723-11.873-17.289-50.473-40.445-65.637c-18.93-12.396-31.45-1.2-37.424,7.001c-1.081,1.485-2.767,2.166-4.409,2.058v87.772
			c0.112,0,0.221,0.002,0.333,0.002c49.114,0,84.101-9.954,104.239-17.92C257.918,142.102,256.439,134.405,250.869,134.405z"/>
	</g>
	<path style="fill:#4A5054;" d="M188.593,163.154c-11.71,0-21.907,1.103-27.235,5.418h-25.716
		c-5.328-4.315-15.525-5.418-27.235-5.418C91.19,163.154,85,172.459,85,183.937s5.038,20.783,16.794,20.783
		c17.217,0,37.787-16.233,37.787-27.711c0-0.865-0.089-1.673-0.243-2.438h18.322c-0.154,0.765-0.243,1.572-0.243,2.438
		c0,11.478,20.57,27.711,37.787,27.711c11.756,0,16.794-9.305,16.794-20.783S205.811,163.154,188.593,163.154z"/>
	<path style="fill:#363C3F;" d="M188.593,163.154c-11.71,0-21.907,1.103-27.235,5.418h-13.191v6h9.494
		c-0.154,0.765-0.243,1.572-0.243,2.438c0,11.478,20.57,27.711,37.787,27.711c11.756,0,16.794-9.305,16.794-20.783
		S205.811,163.154,188.593,163.154z"/>
</g>
<g>
</g>
<g>
</g>
<g>
</g>
<g>
</g>
<g>
</g>
<g>
</g>
<g>
</g>
<g>
</g>
<g>
</g>
<g>
</g>
<g>
</g>
<g>
</g>
<g>
</g>
<g>
</g>
<g>
</g>
</svg>
