<?xml version="1.0" encoding="iso-8859-1"?>
<!-- Generator: Adobe Illustrator 19.0.0, SVG Export Plug-In . SVG Version: 6.00 Build 0)  -->
<svg version="1.1" id="Layer_1" xmlns="http://www.w3.org/2000/svg" xmlns:xlink="http://www.w3.org/1999/xlink" x="0px" y="0px"
	 viewBox="0 0 504.334 504.334" style="enable-background:new 0 0 504.334 504.334;" xml:space="preserve">
<path style="fill:#E2574C;" d="M198.588,341.561v-33.083l-92.16,25.994c0,0,6.695-39.385,54.745-53.169
	c14.572-3.938,27.175-3.938,37.415-1.969V143.062h46.08c-5.12-15.36-9.846-27.569-13.785-35.84
	c-6.695-13.785-13.785-4.726-29.145,8.665c-11.028,9.058-38.991,29.145-81.132,40.172c-42.142,11.422-76.012,8.271-90.191,5.908
	c-20.086-3.545-30.72-7.877-29.538,7.483c0.788,13.391,3.938,34.265,11.422,62.228c15.754,59.865,68.135,175.262,167.385,148.48
	c25.994-7.089,44.505-20.874,57.108-38.597H198.588z M50.108,232.465l70.498-18.511c0,0-1.969,27.175-28.357,34.265
	C65.862,254.914,50.108,232.465,50.108,232.465z"/>
<path style="fill:#EFC75E;" d="M465.222,145.819c-18.905,3.151-63.803,7.483-119.335-7.483s-92.554-40.96-107.126-53.169
	c-20.874-17.329-29.932-29.145-38.597-11.028c-7.877,16.148-18.117,42.142-27.963,78.769
	c-21.268,79.163-37.022,246.154,94.129,281.206c131.545,35.052,201.255-117.366,222.523-196.529
	c9.846-36.628,14.178-64.197,15.36-81.92C505.788,135.185,492.004,141.093,465.222,145.819z M201.345,211.591
	c0,0,20.874-32.689,56.32-22.449c35.446,10.24,38.203,49.231,38.203,49.231L201.345,211.591z M287.204,355.345
	c-61.834-18.117-71.286-67.348-71.286-67.348l165.809,46.08C381.727,334.471,348.25,373.068,287.204,355.345z M347.068,254.914
	c0,0,20.086-32.295,53.957-22.449c33.871,10.24,36.628,49.231,36.628,49.231L347.068,254.914z"/>
<path style="fill:#DCB757;" d="M291.93,356.527l-4.726-1.182c-61.834-18.117-71.286-67.348-71.286-67.348l87.434,24.418
	l44.898-173.686c-0.788-0.394-1.575-0.394-2.363-0.394c-55.532-14.966-92.554-40.96-107.126-53.169
	c-20.874-17.329-29.932-29.145-38.597-11.028c-7.877,16.148-18.117,42.142-27.963,78.769c-20.48,76.012-35.84,232.763,79.557,276.48
	l19.692,5.908L291.93,356.527L291.93,356.527z M201.345,211.591c0,0,20.874-32.689,56.32-22.449
	c35.446,10.24,38.203,49.231,38.203,49.231L201.345,211.591z"/>
<path style="fill:#D05046;" d="M165.899,317.93l-59.471,16.935c0,0,6.302-37.022,50.018-51.594l-33.871-127.212
	c-0.788,0.394-1.575,0.394-2.757,0.788c-42.142,11.422-76.012,8.271-90.191,5.908c-20.086-3.545-30.72-7.877-29.538,7.483
	c0.788,13.391,3.938,34.265,11.422,62.228c16.542,59.077,68.923,174.474,168.172,147.692l2.363-0.788
	C182.047,379.37,165.899,317.93,165.899,317.93z M50.108,232.465l70.498-18.511c0,0-1.969,27.175-28.357,34.265
	C65.862,254.914,50.108,232.465,50.108,232.465z"/>
<g>
</g>
<g>
</g>
<g>
</g>
<g>
</g>
<g>
</g>
<g>
</g>
<g>
</g>
<g>
</g>
<g>
</g>
<g>
</g>
<g>
</g>
<g>
</g>
<g>
</g>
<g>
</g>
<g>
</g>
</svg>
