<?xml version="1.0" encoding="iso-8859-1"?>
<!-- Generator: Adobe Illustrator 19.0.0, SVG Export Plug-In . SVG Version: 6.00 Build 0)  -->
<svg version="1.1" id="Layer_1" xmlns="http://www.w3.org/2000/svg" xmlns:xlink="http://www.w3.org/1999/xlink" x="0px" y="0px"
	 viewBox="0 0 512 512" style="enable-background:new 0 0 512 512;" xml:space="preserve">
<polygon style="fill:#19CCFE;" points="282.819,132.794 256,132.794 229.181,132.794 0,89.95 0,434.07 229.181,476.914 
	282.819,476.914 512,434.07 512,89.95 "/>
<path style="fill:#F7EE00;" d="M512,89.95l-32.339-54.864L303.695,77.702C270.013,85.389,256,102.887,256,132.794h26.819L512,89.95z
	"/>
<path style="fill:#FFFC99;" d="M256,132.794c0-29.907-14.013-47.405-47.695-55.092L32.339,35.086L0,89.95l229.181,42.844H256z"/>
<polygon style="fill:#9BE7FE;" points="0,89.95 0,434.07 229.181,476.914 229.181,132.794 "/>
<path style="fill:#0BAEBC;" d="M142.193,165.278l-0.001,47.445c0,8.67-2.482,15.733-7.175,20.427
	c-1.379,1.379-2.985,2.543-4.754,3.533v-71.404H98.915v71.402c-1.768-0.99-3.373-2.154-4.751-3.531
	c-4.695-4.695-7.176-11.758-7.175-20.427V165.28H55.642v47.441c-0.001,17.163,5.655,31.891,16.358,42.594
	c7.276,7.276,16.417,12.213,26.917,14.631v142.421h31.347v-142.42c10.5-2.418,19.643-7.355,26.92-14.632
	c10.702-10.7,16.358-25.429,16.358-42.593l0.001-47.445L142.193,165.278L142.193,165.278z"/>
<path style="fill:#088690;" d="M397.41,160.914c-21.882,0-39.616,17.735-39.615,39.614l-0.001,43.29
	c0,16.309,9.86,30.312,23.943,36.386v132.162h31.347V280.204c14.082-6.074,23.942-20.077,23.941-36.385l0.002-43.29
	C437.022,178.65,419.287,160.915,397.41,160.914z"/>
<rect x="229.177" y="132.796" style="fill:#71DFFE;" width="53.635" height="344.116"/>
<g>
</g>
<g>
</g>
<g>
</g>
<g>
</g>
<g>
</g>
<g>
</g>
<g>
</g>
<g>
</g>
<g>
</g>
<g>
</g>
<g>
</g>
<g>
</g>
<g>
</g>
<g>
</g>
<g>
</g>
</svg>
