<svg xmlns="http://www.w3.org/2000/svg" viewBox="0 0 512 512"><path fill="#19ccfe" d="M282.819 132.794h-53.638L0 89.95v344.12l229.181 42.844h53.638L512 434.07V89.95z"/><path d="M512 89.95l-32.339-54.864-175.966 42.616C270.013 85.389 256 102.887 256 132.794h26.819L512 89.95z" fill="#f7ee00"/><path d="M256 132.794c0-29.907-14.013-47.405-47.695-55.092L32.339 35.086 0 89.95l229.181 42.844H256z" fill="#fffc99"/><path fill="#9be7fe" d="M0 89.95v344.12l229.181 42.844v-344.12z"/><path d="M142.193 165.278l-.001 47.445c0 8.67-2.482 15.733-7.175 20.427-1.379 1.379-2.985 2.543-4.754 3.533v-71.404H98.915v71.402c-1.768-.99-3.373-2.154-4.751-3.531-4.695-4.695-7.176-11.758-7.175-20.427V165.28H55.642v47.441c-.001 17.163 5.655 31.891 16.358 42.594 7.276 7.276 16.417 12.213 26.917 14.631v142.421h31.347v-142.42c10.5-2.418 19.643-7.355 26.92-14.632 10.702-10.7 16.358-25.429 16.358-42.593l.001-47.445-31.35.001z" fill="#0baebc"/><path d="M397.41 160.914c-21.882 0-39.616 17.735-39.615 39.614l-.001 43.29c0 16.309 9.86 30.312 23.943 36.386v132.162h31.347V280.204c14.082-6.074 23.942-20.077 23.941-36.385l.002-43.29c-.005-21.879-17.74-39.614-39.617-39.615z" fill="#088690"/><path fill="#71dffe" d="M229.177 132.796h53.635v344.116h-53.635z"/></svg>