<?xml version="1.0" encoding="iso-8859-1"?>
<!-- Generator: Adobe Illustrator 19.0.0, SVG Export Plug-In . SVG Version: 6.00 Build 0)  -->
<svg version="1.1" id="Capa_1" xmlns="http://www.w3.org/2000/svg" xmlns:xlink="http://www.w3.org/1999/xlink" x="0px" y="0px"
	 viewBox="0 0 480 480" style="enable-background:new 0 0 480 480;" xml:space="preserve">
<g>
	<path style="fill:#A08A8A;" d="M300.845,439.437v6.761h47.324v-27.042h-13.521V366.31c0-4.418,3.582-8,8-8h5.521v-33.803h-13.521
		v-52.845c0-4.418,3.582-8,8-8h5.521v-54.084h-47.324v47.324v27.042V439.437z"/>
	<path style="fill:#A08A8A;" d="M131.831,419.155H118.31V366.31c0-4.418,3.582-8,8-8h5.521v-33.803H118.31v-52.845
		c0-4.418,3.582-8,8-8h5.521v-54.084H84.507v236.62h47.324V419.155z"/>
	<path style="fill:#83727A;" d="M131.831,263.662h5.521c4.418,0,8,3.582,8,8v52.845h-13.521v33.803h5.521c4.418,0,8,3.582,8,8
		v52.845h-13.521v27.042h47.324v-6.761V283.944v-27.042v-47.324h-47.324V263.662z"/>
	<path style="fill:#83727A;" d="M348.169,209.577v54.084h5.521c4.418,0,8,3.582,8,8v52.845h-13.521v33.803h5.521
		c4.418,0,8,3.582,8,8v52.845h-13.521v27.042h47.324v-236.62H348.169z"/>
	<polygon style="fill:#695A69;" points="240,175.775 300.845,283.944 300.845,256.901 243.38,154.742 243.38,128.451 
		253.521,128.451 253.521,121.69 243.38,121.69 243.38,114.93 236.62,114.93 236.62,121.69 226.479,121.69 226.479,128.451 
		236.62,128.451 236.62,154.742 179.155,256.901 179.155,283.944 	"/>
	<path style="fill:#C8B2A8;" d="M300.845,283.944L240,175.775l-60.845,108.169v155.493v6.761h27.042v-54.084
		c0-18.669,15.134-33.803,33.803-33.803s33.803,15.134,33.803,33.803v54.084h27.042v-6.761V283.944z M240,331.268
		c-18.669,0-33.803-15.134-33.803-33.803s15.134-33.803,33.803-33.803s33.803,15.134,33.803,33.803S258.669,331.268,240,331.268z"/>
	<rect x="131.831" y="446.197" style="fill:#695A69;" width="47.324" height="33.803"/>
	<polygon style="fill:#695A69;" points="395.493,209.577 351.549,46.358 351.549,13.521 361.69,13.521 361.69,6.761 351.549,6.761 
		351.549,0 344.789,0 344.789,6.761 334.648,6.761 334.648,13.521 344.789,13.521 344.789,46.358 300.845,209.577 348.169,209.577 	
		"/>
	<polygon style="fill:#695A69;" points="179.155,209.577 135.211,46.358 135.211,13.521 145.352,13.521 145.352,6.761 
		135.211,6.761 135.211,0 128.451,0 128.451,6.761 118.31,6.761 118.31,13.521 128.451,13.521 128.451,46.358 84.507,209.577 
		131.831,209.577 	"/>
	<path style="fill:#695A69;" d="M273.803,392.113c0-18.669-15.134-33.803-33.803-33.803s-33.803,15.134-33.803,33.803v54.084V480
		h67.606v-33.803V392.113z"/>
	<path style="fill:#695A69;" d="M240,263.662c-18.669,0-33.803,15.134-33.803,33.803s15.134,33.803,33.803,33.803
		s33.803-15.134,33.803-33.803S258.669,263.662,240,263.662z M240,310.986c-7.468,0-13.521-6.054-13.521-13.521
		s6.054-13.521,13.521-13.521s13.521,6.054,13.521,13.521S247.468,310.986,240,310.986z"/>
	<rect x="179.155" y="446.197" style="fill:#A08A8A;" width="27.042" height="33.803"/>
	<rect x="273.803" y="446.197" style="fill:#A08A8A;" width="27.042" height="33.803"/>
	<path style="fill:#695A69;" d="M145.352,271.662c0-4.418-3.582-8-8-8h-5.521h-5.521c-4.418,0-8,3.582-8,8v52.845h13.521h13.521
		V271.662z"/>
	<path style="fill:#695A69;" d="M145.352,366.31c0-4.418-3.582-8-8-8h-5.521h-5.521c-4.418,0-8,3.582-8,8v52.845h13.521h13.521
		V366.31z"/>
	<path style="fill:#695A69;" d="M334.648,271.662v52.845h13.521h13.521v-52.845c0-4.418-3.582-8-8-8h-5.521h-5.521
		C338.23,263.662,334.648,267.244,334.648,271.662z"/>
	<path style="fill:#695A69;" d="M334.648,366.31v52.845h13.521h13.521V366.31c0-4.418-3.582-8-8-8h-5.521h-5.521
		C338.23,358.31,334.648,361.892,334.648,366.31z"/>
	<circle style="fill:#A08A8A;" cx="240" cy="297.465" r="13.521"/>
	<rect x="84.507" y="446.197" style="fill:#83727A;" width="47.324" height="33.803"/>
	<rect x="348.169" y="446.197" style="fill:#695A69;" width="47.324" height="33.803"/>
	<rect x="300.845" y="446.197" style="fill:#83727A;" width="47.324" height="33.803"/>
</g>
<g>
</g>
<g>
</g>
<g>
</g>
<g>
</g>
<g>
</g>
<g>
</g>
<g>
</g>
<g>
</g>
<g>
</g>
<g>
</g>
<g>
</g>
<g>
</g>
<g>
</g>
<g>
</g>
<g>
</g>
</svg>
