<svg xmlns="http://www.w3.org/2000/svg" viewBox="0 0 480 480"><path d="M300.845 439.437v6.761h47.324v-27.042h-13.521V366.31a8 8 0 0 1 8-8h5.521v-33.803h-13.521v-52.845a8 8 0 0 1 8-8h5.521v-54.084h-47.324V439.437zM131.831 419.155H118.31V366.31a8 8 0 0 1 8-8h5.521v-33.803H118.31v-52.845a8 8 0 0 1 8-8h5.521v-54.084H84.507v236.62h47.324v-27.043z" fill="#a08a8a"/><path d="M131.831 263.662h5.521a8 8 0 0 1 8 8v52.845h-13.521v33.803h5.521a8 8 0 0 1 8 8v52.845h-13.521v27.042h47.324V209.578h-47.324v54.084zM348.169 209.577v54.084h5.521a8 8 0 0 1 8 8v52.845h-13.521v33.803h5.521a8 8 0 0 1 8 8v52.845h-13.521v27.042h47.324v-236.62h-47.324z" fill="#83727a"/><path fill="#695a69" d="M240 175.775l60.845 108.169v-27.043L243.38 154.742v-26.291h10.141v-6.761H243.38v-6.76h-6.76v6.76h-10.141v6.761h10.141v26.291l-57.465 102.159v27.043z"/><path d="M300.845 283.944L240 175.775l-60.845 108.169v162.254h27.042v-54.084c0-18.669 15.134-33.803 33.803-33.803s33.803 15.134 33.803 33.803v54.084h27.042V283.944zM240 331.268c-18.669 0-33.803-15.134-33.803-33.803s15.134-33.803 33.803-33.803 33.803 15.134 33.803 33.803-15.134 33.803-33.803 33.803z" fill="#c8b2a8"/><path fill="#695a69" d="M131.831 446.197h47.324V480h-47.324zM395.493 209.577L351.549 46.358V13.521h10.141v-6.76h-10.141V0h-6.76v6.761h-10.141v6.76h10.141v32.837l-43.944 163.219h47.324zM179.155 209.577L135.211 46.358V13.521h10.141v-6.76h-10.141V0h-6.76v6.761H118.31v6.76h10.141v32.837L84.507 209.577h47.324zM273.803 392.113c0-18.669-15.134-33.803-33.803-33.803s-33.803 15.134-33.803 33.803V480h67.606v-87.887zM240 263.662c-18.669 0-33.803 15.134-33.803 33.803s15.134 33.803 33.803 33.803 33.803-15.134 33.803-33.803-15.134-33.803-33.803-33.803zm0 47.324c-7.468 0-13.521-6.054-13.521-13.521s6.054-13.521 13.521-13.521 13.521 6.054 13.521 13.521-6.053 13.521-13.521 13.521z"/><path fill="#a08a8a" d="M179.155 446.197h27.042V480h-27.042zM273.803 446.197h27.042V480h-27.042z"/><path d="M145.352 271.662a8 8 0 0 0-8-8H126.31a8 8 0 0 0-8 8v52.845h27.042v-52.845zM145.352 366.31a8 8 0 0 0-8-8H126.31a8 8 0 0 0-8 8v52.845h27.042V366.31zM334.648 271.662v52.845h27.042v-52.845a8 8 0 0 0-8-8h-11.042a8 8 0 0 0-8 8zM334.648 366.31v52.845h27.042V366.31a8 8 0 0 0-8-8h-11.042a8 8 0 0 0-8 8z" fill="#695a69"/><circle cx="240" cy="297.465" r="13.521" fill="#a08a8a"/><path fill="#83727a" d="M84.507 446.197h47.324V480H84.507z"/><path fill="#695a69" d="M348.169 446.197h47.324V480h-47.324z"/><path fill="#83727a" d="M300.845 446.197h47.324V480h-47.324z"/></svg>