<svg xmlns="http://www.w3.org/2000/svg" viewBox="0 0 56 56"><path d="M46 17.222C46 7.711 38.165 0 28.5 0S11 7.711 11 17.222c0 0 16.771 7.894 35 0z" fill="#546a79"/><path d="M11 51.291a1 1 0 0 1-.936-1.352l5-13.29a1 1 0 0 1 1.872.704l-5 13.29c-.151.4-.532.648-.936.648zM48 51.291c-.404 0-.785-.248-.936-.648l-5-13.29a1 1 0 0 1 1.872-.704l5 13.29A1 1 0 0 1 48 51.291zM23.001 56a1 1 0 0 1-.992-1.135l1.97-14.446a1 1 0 0 1 1.981.271l-1.97 14.446a1 1 0 0 1-.989.864zM35.999 56a.999.999 0 0 1-.989-.865l-1.97-14.446a1 1 0 0 1 1.981-.271l1.97 14.446A1 1 0 0 1 35.999 56zM17.822 14.905a1 1 0 0 1-.979-1.211c1.105-5.1 5.869-8.948 11.081-8.953h.001a1 1 0 0 1 .001 2c-4.293.003-8.218 3.175-9.128 7.376a1 1 0 0 1-.976.788z" fill="#f3d55b"/><path d="M44.66 10h-.289A16.903 16.903 0 0 1 46 17.222c-18.229 7.893-35 0-35 0A16.9 16.9 0 0 1 12.629 10h-.14C5.541 12.164 1 16.951 1 21c0 6.607 12.088 12 27 12s27-5.393 27-12c0-3.823-4.041-8.81-10.34-11z" fill="#38454f"/><ellipse cx="29.5" cy="27" rx="3.5" ry="2" fill="#8697cb"/><ellipse transform="rotate(16.315 13.08 23.913)" cx="13.079" cy="23.913" rx="2.986" ry="1.991" fill="#8697cb"/><ellipse transform="rotate(163.685 45.923 23.089)" cx="45.921" cy="23.087" rx="2.986" ry="1.991" fill="#8697cb"/></svg>