<?xml version="1.0" encoding="iso-8859-1"?>
<!-- Generator: Adobe Illustrator 19.0.0, SVG Export Plug-In . SVG Version: 6.00 Build 0)  -->
<svg version="1.1" id="Capa_1" xmlns="http://www.w3.org/2000/svg" xmlns:xlink="http://www.w3.org/1999/xlink" x="0px" y="0px"
	 viewBox="0 0 56 56" style="enable-background:new 0 0 56 56;" xml:space="preserve">
<g>
	<path style="fill:#546A79;" d="M46,17.222C46,7.711,38.165,0,28.5,0S11,7.711,11,17.222C11,17.222,27.771,25.116,46,17.222z"/>
	<path style="fill:#F3D55B;" d="M11,51.291c-0.117,0-0.236-0.021-0.352-0.064c-0.517-0.194-0.778-0.771-0.584-1.288l5-13.29
		c0.194-0.517,0.772-0.777,1.288-0.584c0.517,0.194,0.778,0.771,0.584,1.288l-5,13.29C11.785,51.043,11.404,51.291,11,51.291z"/>
	<path style="fill:#F3D55B;" d="M48,51.291c-0.404,0-0.785-0.248-0.936-0.648l-5-13.29c-0.194-0.517,0.067-1.094,0.584-1.288
		c0.514-0.192,1.094,0.067,1.288,0.584l5,13.29c0.194,0.517-0.067,1.094-0.584,1.288C48.236,51.27,48.117,51.291,48,51.291z"/>
	<path style="fill:#F3D55B;" d="M23.001,56c-0.045,0-0.091-0.003-0.137-0.009c-0.547-0.075-0.93-0.579-0.855-1.126l1.97-14.446
		c0.075-0.547,0.582-0.928,1.126-0.855c0.547,0.075,0.93,0.579,0.855,1.126l-1.97,14.446C23.922,55.636,23.494,56,23.001,56z"/>
	<path style="fill:#F3D55B;" d="M35.999,56c-0.492,0-0.921-0.363-0.989-0.865l-1.97-14.446c-0.075-0.547,0.309-1.051,0.855-1.126
		c0.544-0.073,1.051,0.308,1.126,0.855l1.97,14.446c0.075,0.547-0.309,1.051-0.855,1.126C36.089,55.997,36.044,56,35.999,56z"/>
	<path style="fill:#F3D55B;" d="M17.822,14.905c-0.07,0-0.142-0.007-0.213-0.022c-0.54-0.117-0.882-0.649-0.766-1.189
		c1.105-5.1,5.869-8.948,11.081-8.953c0,0,0,0,0.001,0c0.552,0,1,0.447,1,0.999c0,0.552-0.447,1-0.999,1.001
		c-4.293,0.003-8.218,3.175-9.128,7.376C18.697,14.585,18.283,14.905,17.822,14.905z"/>
	<path style="fill:#38454F;" d="M44.66,10h-0.289C45.406,12.199,46,14.64,46,17.222c-18.229,7.893-35,0-35,0
		c0-2.583,0.594-5.023,1.629-7.222h-0.14C5.541,12.164,1,16.951,1,21c0,6.607,12.088,12,27,12s27-5.393,27-12
		C55,17.177,50.959,12.19,44.66,10z"/>
	<ellipse style="fill:#8697CB;" cx="29.5" cy="27" rx="3.5" ry="2"/>
	
		<ellipse transform="matrix(0.9597 0.2809 -0.2809 0.9597 7.2437 -2.7112)" style="fill:#8697CB;" cx="13.079" cy="23.913" rx="2.986" ry="1.991"/>
	
		<ellipse transform="matrix(-0.9597 0.2809 -0.2809 -0.9597 96.4775 32.3459)" style="fill:#8697CB;" cx="45.921" cy="23.087" rx="2.986" ry="1.991"/>
</g>
<g>
</g>
<g>
</g>
<g>
</g>
<g>
</g>
<g>
</g>
<g>
</g>
<g>
</g>
<g>
</g>
<g>
</g>
<g>
</g>
<g>
</g>
<g>
</g>
<g>
</g>
<g>
</g>
<g>
</g>
</svg>
