<svg xmlns="http://www.w3.org/2000/svg" viewBox="0 0 508.568 508.568"><path d="M336.803 236.647l-16.969-16.969a7.996 7.996 0 0 0-11.312 0l-32 32a7.998 7.998 0 0 0 0 11.313l16.969 16.969a15.96 15.96 0 0 0 11.313 4.68c4.102 0 8.203-1.563 11.32-4.68l20.672-20.68a15.869 15.869 0 0 0 4.695-11.305 15.917 15.917 0 0 0-4.688-11.328z" fill="#5c546a"/><path d="M304.6 181.053c-2.742-.656-5.594.141-7.563 2.117l-56.633 56.633a7.971 7.971 0 0 0-2.125 7.508 7.994 7.994 0 0 0 5.281 5.75l38.617 15.586 43.312-43.312-15.164-38.906a8.022 8.022 0 0 0-5.725-5.376z" fill="#868491"/><path d="M243.561 253.061l38.617 15.586 21.5-21.5-35.309-35.309-27.965 27.965a7.971 7.971 0 0 0-2.125 7.508 7.996 7.996 0 0 0 5.282 5.75zM157.079 77.962l-22.586 22.586a.999.999 0 0 1-1.414 0L77.807 45.276a.999.999 0 0 1 0-1.414l22.586-22.586a.999.999 0 0 1 1.414 0l55.272 55.272a1 1 0 0 1 0 1.414zM344.162 412.568h-34.75c-4.422 0-8-3.578-8-8s3.578-8 8-8h34.75c4.211 0 8.336-1.711 11.313-4.688l18.625-18.625c3.125-3.125 8.188-3.125 11.313 0s3.125 8.188 0 11.313l-18.625 18.625c-5.954 5.961-14.204 9.375-22.626 9.375z" fill="#5c546a"/><path d="M184.634 212.566c-2.133 8.7-3.221 17.722-3.221 26.948 0 49.864 32.754 92.221 77.877 106.686l-13.839 45.972c-64.865-20.423-112.038-81.134-112.038-152.658 0-14.586 2.012-29.039 5.89-42.944l45.331 15.996z" fill="#868491"/><path d="M433.693 246.912l-22.625-22.625a7.996 7.996 0 0 0-11.312 0L288.443 335.6a8.002 8.002 0 0 0-1.469 9.297l15.313 29.938a8.004 8.004 0 0 0 5.883 4.266c.414.063.828.094 1.242.094a7.98 7.98 0 0 0 5.656-2.344l118.625-118.625a7.999 7.999 0 0 0 0-11.314z" fill="#5c546a"/><path d="M449.693 326.912l-22.625-22.625a7.998 7.998 0 0 0-11.313 0l-54.625 54.625a7.998 7.998 0 0 0 0 11.313l22.625 22.625c1.563 1.563 3.609 2.344 5.656 2.344s4.094-.781 5.656-2.344l54.625-54.625a7.997 7.997 0 0 0 .001-11.313z" fill="#868491"/><path d="M277.412 332.568c-22.055 0-40 17.945-40 40v88c0 4.422 3.578 8 8 8 4.422 0 8-3.578 8-8h48c0 4.422 3.578 8 8 8 4.422 0 8-3.578 8-8v-88c0-22.054-17.945-40-40-40zM308.342 183.162L190.951 66.221c-9.352-9.336-24.57-9.355-33.938.004l-33.945 33.941c-4.531 4.535-7.031 10.563-7.031 16.973 0 6.41 2.5 12.437 7.031 16.969l12.688 12.684a7.996 7.996 0 0 0 11.311.001l52.128 52.126c-.007.007-.018.01-.025.017-3.109 3.133-3.094 8.203.047 11.313l41.211 40.891a7.962 7.962 0 0 0 5.633 2.32 7.97 7.97 0 0 0 5.656-2.344l56.633-56.633c1.5-1.5 2.344-3.539 2.344-5.664s-.852-4.165-2.352-5.657z" fill="#b4b6bc"/><path d="M199.217 210.248l41.211 40.891a7.962 7.962 0 0 0 5.633 2.32 7.97 7.97 0 0 0 5.656-2.344l27.965-27.965L139.884 83.353l-16.815 16.813c-4.531 4.535-7.031 10.563-7.031 16.973 0 6.41 2.5 12.437 7.031 16.969l12.688 12.684a7.996 7.996 0 0 0 11.311.001l52.128 52.126c-.007.007-.018.01-.025.017-3.11 3.132-3.095 8.203.046 11.312zM333.412 452.568h-112c-17.648 0-32 14.352-32 32v16c0 4.422 3.578 8 8 8h160c4.422 0 8-3.578 8-8v-16c0-17.648-14.351-32-32-32z" fill="#868491"/><circle cx="173.413" cy="172.568" r="48" fill="#5c546a"/><circle cx="173.413" cy="172.568" r="24" fill="#868491"/><circle cx="277.1" cy="372.568" r="16" fill="#5c546a"/><path d="M115.443 24.971L81.502 58.912a8 8 0 0 1-11.314 0L58.874 47.598a8 8 0 0 1 0-11.314L92.816 2.343a8 8 0 0 1 11.314 0l11.314 11.314a8.002 8.002 0 0 1-.001 11.314z" fill="#868491"/><g><path d="M75.845 19.314l-16.971 16.97a8 8 0 0 0 0 11.313l11.314 11.314a8 8 0 0 0 11.313 0L98.472 41.94 75.845 19.314z" fill="#5c546a"/></g></svg>