<?xml version="1.0" encoding="iso-8859-1"?>
<!-- Generator: Adobe Illustrator 19.0.0, SVG Export Plug-In . SVG Version: 6.00 Build 0)  -->
<svg version="1.1" id="Layer_1" xmlns="http://www.w3.org/2000/svg" xmlns:xlink="http://www.w3.org/1999/xlink" x="0px" y="0px"
	 viewBox="0 0 512 512" style="enable-background:new 0 0 512 512;" xml:space="preserve">
<g>
	<path style="fill:#2D404E;" d="M433.014,483.868c0,15.539-12.797,28.132-28.584,28.132H55.692
		c-15.789,0-28.585-12.594-28.585-28.132V28.149c0-15.537,12.796-28.13,28.585-28.13H404.43c15.787,0,28.584,12.594,28.584,28.13
		L433.014,483.868L433.014,483.868z"/>
	<path style="fill:#E2E5E7;" d="M423.031,470.925c0,15.122-12.515,27.378-27.952,27.378H54.044
		c-15.438,0-27.952-12.257-27.952-27.378V27.38c0-15.122,12.515-27.379,27.952-27.379h341.035c15.438,0,27.952,12.258,27.952,27.379
		V470.925z"/>
	<polygon style="opacity:0.7;fill:#C6CBCB;enable-background:new    ;" points="241.208,431.272 424.031,360.206 424.031,423.137 	
		"/>
	<g>
		<g>
			<circle style="fill:#C6CBCB;" cx="64.06" cy="103.067" r="25.714"/>
			<circle style="fill:#2D404E;" cx="64.06" cy="103.067" r="21.653"/>
			<circle style="fill:#253744;" cx="63.312" cy="103.579" r="15.085"/>
			<g>
				<path style="fill:#586A73;" d="M72.18,103.067c0,6.479-5.251,11.729-11.729,11.729H11.729C5.251,114.796,0,109.546,0,103.067
					l0,0c0-6.479,5.252-11.729,11.729-11.729h48.722C66.929,91.339,72.18,96.589,72.18,103.067L72.18,103.067z"/>
				<path style="opacity:0.5;fill:#2D404E;enable-background:new    ;" d="M4.297,112.141c2.023,1.658,4.612,2.655,7.433,2.655
					h48.722c6.478,0,11.729-5.25,11.729-11.729l0,0c0-6.479-5.251-11.729-11.729-11.729c0,0,5.112,3.368,5.844,10.037
					c0.775,7.081-7.572,10.899-13.872,10.899C46.122,112.275,4.297,112.141,4.297,112.141z"/>
			</g>
			<path style="opacity:0.3;fill:#C6CBCB;enable-background:new    ;" d="M51.07,94.101c0,0-25.545,0-32.48,0
				c-6.937,0-13.021,2.876-14.292,7.951c0,0,4.311-5.075,15.814-5.075s30.958,0,30.958,0V94.101L51.07,94.101z"/>
		</g>
		<g>
			<circle style="fill:#C6CBCB;" cx="64.06" cy="209.497" r="25.714"/>
			<circle style="fill:#2D404E;" cx="64.06" cy="209.497" r="21.653"/>
			<circle style="fill:#253744;" cx="63.312" cy="210.008" r="15.085"/>
			<g>
				<path style="fill:#586A73;" d="M72.18,209.497c0,6.479-5.251,11.728-11.729,11.728H11.729C5.251,221.225,0,215.976,0,209.497
					l0,0c0-6.479,5.252-11.729,11.729-11.729h48.722C66.929,197.768,72.18,203.017,72.18,209.497L72.18,209.497z"/>
				<path style="opacity:0.5;fill:#2D404E;enable-background:new    ;" d="M4.297,218.569c2.023,1.659,4.612,2.655,7.433,2.655
					h48.722c6.478,0,11.729-5.249,11.729-11.728l0,0c0-6.479-5.251-11.729-11.729-11.729c0,0,5.112,3.367,5.844,10.036
					c0.775,7.082-7.572,10.899-13.872,10.899C46.122,218.704,4.297,218.569,4.297,218.569z"/>
			</g>
			<path style="opacity:0.3;fill:#C6CBCB;enable-background:new    ;" d="M51.07,200.53c0,0-25.545,0-32.48,0
				c-6.937,0-13.021,2.876-14.292,7.951c0,0,4.311-5.075,15.814-5.075s30.958,0,30.958,0V200.53L51.07,200.53z"/>
		</g>
		<g>
			<circle style="fill:#C6CBCB;" cx="64.06" cy="315.926" r="25.714"/>
			<circle style="fill:#2D404E;" cx="64.06" cy="315.926" r="21.653"/>
			<circle style="fill:#253744;" cx="63.312" cy="316.437" r="15.085"/>
			<g>
				<path style="fill:#586A73;" d="M72.18,315.926c0,6.479-5.251,11.728-11.729,11.728H11.729C5.251,327.654,0,322.405,0,315.926
					l0,0c0-6.479,5.252-11.729,11.729-11.729h48.722C66.929,304.197,72.18,309.447,72.18,315.926L72.18,315.926z"/>
				<path style="opacity:0.5;fill:#2D404E;enable-background:new    ;" d="M4.297,324.999c2.023,1.658,4.612,2.654,7.433,2.654
					h48.722c6.478,0,11.729-5.249,11.729-11.728l0,0c0-6.479-5.251-11.729-11.729-11.729c0,0,5.112,3.367,5.844,10.036
					c0.775,7.082-7.572,10.9-13.872,10.9C46.122,325.134,4.297,324.999,4.297,324.999z"/>
			</g>
			<path style="opacity:0.3;fill:#C6CBCB;enable-background:new    ;" d="M51.07,306.96c0,0-25.545,0-32.48,0
				c-6.937,0-13.021,2.876-14.292,7.95c0,0,4.311-5.074,15.814-5.074s30.958,0,30.958,0V306.96L51.07,306.96z"/>
		</g>
	</g>
	<polygon style="fill:#EB8923;" points="458.76,210.472 282.653,381.297 298.125,399.112 481.389,234.087 	"/>
	<polygon style="fill:#ED9E43;" points="282.653,381.297 265.883,368.997 446.803,183.783 458.76,210.472 	"/>
	<polygon style="fill:#D27228;" points="298.125,399.112 305.349,418.027 512,243.978 481.389,234.087 	"/>
	<polygon style="fill:#F2B643;" points="446.803,183.783 458.76,210.472 481.389,234.087 512,243.978 502.752,217.535 
		477.727,191.84 	"/>
	<path style="fill:#F2B643;" d="M265.883,368.997c0,0,35.484,14.499,39.466,49.03c0,0-59.286,20.567-64.141,13.245
		C236.353,423.951,265.883,368.997,265.883,368.997z"/>
	<path style="fill:#EB8923;" d="M241.208,431.272c2.139,3.226,14.839,1.039,28.382-2.418l-21.318-23.764
		C243.057,417.121,239.205,428.252,241.208,431.272z"/>
	<path style="fill:#D1D5D5;" d="M423.031,27.068c0-14.949-12.515-27.067-27.952-27.067h-49.208l77.159,65.443V27.068H423.031z"/>
	<g>
		<path style="fill:#EB8923;" d="M123.012,206.129l-0.57-0.117l-0.274-0.459c-0.265-0.301-0.446-0.607-0.796-0.981
			c-1.512-1.971-3.732-4.849-4.714-8.302c-2.351-2.466-3.952-5.631-5.291-8.495c-0.183-0.307-0.372-0.692-0.562-1.08
			c-1.333-2.784-2.064-5.053-2.856-9.161c-0.517-2.605-1.148-6.727-1.163-10.091c-0.06-0.796,0.045-1.525,0.077-2.169
			c0.069-1.208,0.234-2.182-0.088-3.279l-0.195-0.467l0.202-0.496c0.339-0.826,0.4-1.072,0.415-2.996l0.031-0.645l0.449-0.435
			c0.22-0.256,0.43-0.674,0.639-1.089c0.216-0.338,0.351-0.669,0.571-0.925c-0.15-1.993,0.372-3.556,0.896-5.118
			c0.253-0.899,0.578-1.887,0.813-3.026l0.05-0.404l0.294-0.344c0.368-0.428,0.749-0.697,1.228-0.733
			c0.215-0.337,0.326-0.985,0.438-1.635c0.186-0.736,0.291-1.464,0.64-2.133c0.277-0.582,0.73-0.938,1.179-1.372
			c0.074-0.086,0.228-0.178,0.375-0.35c-0.03-0.397-0.152-0.95,0.204-1.538l0.079-0.005c0.289-0.423,0.676-0.613,0.983-0.796
			c0.037-0.563,0.069-1.208,0.418-1.874c0.215-0.339,0.521-0.521,0.902-0.79c0.081-0.006,0.153-0.093,0.232-0.098
			c0.216-0.336,0.431-0.675,0.651-0.931c1.088-1.525,2.321-3.223,4.872-3.415c0.239-0.018,0.479-0.035,0.723,0.026l0.639-0.048
			l0.44,0.527c0.268,0.382,0.686,0.59,1.188,0.871c0.752,0.426,1.678,0.996,2.308,1.909l0.453,0.689l-0.345,0.745
			c-0.405,0.994-0.523,1.563-0.658,1.896c-0.333,0.905-0.461,1.316-1.419,2.43l-0.295,0.343l-0.393,0.111
			c-0.153,0.091-0.312,0.103-0.552,0.121c-0.238,0.019-0.478,0.036-0.724-0.026c-0.588,0.686-1.001,1.6-1.487,2.599
			c-0.417,0.833-0.828,1.744-1.412,2.511c0.121,0.55,0.084,1.116-0.187,1.776l-0.142,0.251l-0.3,0.264
			c-0.829,0.704-1.542,2.922-2.195,4.896c-0.591,1.727-1.175,3.535-1.956,4.875c-0.088,0.968-0.18,1.857-0.193,2.741
			c-0.113,1.69-0.221,3.461-0.712,5.423c0.902,7.705,2.163,13.78,5.488,19.622l0.099,0.232l0.013,0.159
			c0.646,2.196,1.765,4.273,3.062,6.581c0.929,1.692,1.864,3.466,2.646,5.329c0.416,0.209,0.852,0.658,1.145,1.356
			c0.28,0.54,0.41,1.172,0.537,1.803c0.024,0.319,0.128,0.632,0.151,0.951l0.078,1.036l-0.829,0.703
			c-0.072,0.086-0.287,0.423-0.429,0.674c-0.492,0.918-1.26,2.419-3.253,2.569C124.153,206.364,123.588,206.327,123.012,206.129z"/>
		<path style="fill:#EB8923;" d="M167.128,188.53l-0.312,0.103l-0.325-0.055c-0.815-0.178-1.414-0.694-1.788-1.388
			c-0.323-0.055-0.568-0.116-0.734-0.186l-1.158-0.473l0.074-1.129c0.124-0.489,0.082-1.047-0.102-1.354
			c-0.287-0.618-1.065-0.319-1.065-0.319l-0.165-1.11c0.052-5.694,1.419-10.928,2.977-15.774c0.388-1.23,0.831-2.787,1.036-4.325
			c0.615-2.45,1.011-4.645,1.853-6.23c0.136-0.33,0.425-0.753,0.854-1.427c0.228-0.178,0.516-0.601,0.664-0.772
			c0.412-1.953,1.481-3.719,2.563-5.322c0.922-1.593,1.922-3.19,1.697-4.056c0,0-0.238-1.023,0.043-1.525
			c0.547-0.201,1.099-0.324,1.099-0.324c1.257-0.335,2.626-2.363,3.702-4.048c-0.234,0.099-0.467,0.196-0.706,0.215
			c-0.159,0.013-0.562-0.038-0.974-0.166c-0.943,0.231-1.968,0.469-2.839,0.614c-1.264,0.257-2.446,0.505-3.201,1.124l-0.853,0.386
			l-0.913-0.413c-0.422-0.288-0.747-0.345-1.385-0.296c-0.317,0.024-0.638,0.048-1.109,0.164s-0.95,0.152-1.423,0.268
			c-0.135,0.331-0.436,0.595-0.89,0.948l-0.074,0.086l-0.159,0.013c-0.852,0.386-1.876,0.623-3.151,0.719
			c-1.194,0.09-2.401,0.021-3.131-0.083c0,0-1.612-0.119-1.876-0.421c0.725-1.017,0.591-1.728,0.591-1.728
			c-0.007-0.079,0.073-0.084,0.073-0.084c-0.086-0.074-0.06-0.799-0.071-0.957c-0.295,0.342-0.896,0.869-1.832-0.904l-0.177-0.228
			l-0.02-0.237c-0.023-0.32-0.121-0.553-0.145-0.873c-0.402-2.133-0.768-3.787-0.649-5.399l0.505-1.801l1.556,0.443
			c1.243,0.547,1.968,0.572,2.856,0.664c0.49,0.125,1.324,0.542,1.894,0.658c-0.274-0.46-0.042-0.556,0.104-0.728l0.914-0.631
			l0.772,0.664c0.244,0.061,0.495,0.203,0.82,0.257c0,0-0.452-0.686,0.481-2.119c0.305,0.858,1.354,0.939,1.354,0.939l0.723,0.026
			c0.239-0.019,0.723,0.025,0.926,0.571c0.043-0.484,0.668-0.693,0.668-0.693c0.239-0.019,0.472-0.114,0.632-0.126
			c0.638-0.048,1.054,0.161,1.379,0.216c0.086,0.074,0.165,0.066,0.165,0.066s0,0,0.079-0.005l1.257-0.336l0.375-0.349l1.151,0.394
			c0.081-0.005,0.325,0.056,0.571,0.119c1.031-1.2,2.503-1.874,4.335-2.012c0.878-0.066,1.687,0.031,2.421,0.217
			c0.388-0.189,0.853-0.384,1.49-0.433c0.159-0.012,0.326,0.055,0.484,0.044c0.16-0.014,0.318-0.023,0.479-0.037
			c0.158-0.012,0.239-0.019,0.318-0.023l0.43-0.674l0.723,0.026c0.56-0.043,0.895,0.172,1.238,0.468
			c0.159-0.014,0.318-0.025,0.479-0.037c0.559-0.042,0.968,0.087,1.453,0.131c0.318-0.024,0.562,0.038,0.723,0.025
			c0.079-0.006,0.079-0.006,0.079-0.006s1.134,0.154,1.509-0.194c0.049,0.639,0.574,1.238,0.574,1.238
			c0.322,1.099,1.371,2.221,2.318,3.111c0.521,0.522,0.961,1.05,1.316,1.504l0.189,0.386l0.029,0.398
			c0.059,2.882-2.416,5.152-4.447,6.908c-0.146,0.172-0.307,0.185-0.454,0.355c-1.37,3.069-3.14,6.168-4.922,9.107
			c-3.257,5.696-6.451,11.146-6.905,16.793l-0.111,0.647l-0.455,0.356c-0.896,0.867-1.203,2.094-1.505,3.399
			c-0.37,1.47-0.654,3.015-1.833,4.386c0.219,0.784,0.524,1.644,0.732,2.269l0.116,0.472l-0.216,0.339
			c-0.129,0.409-0.264,0.74-0.484,0.998c0.09,1.195,0.197,2.629,0.055,3.922c-0.211,2.501-1.053,4.088-2.532,4.681
			c0,0-0.846,0.464-1.403,0.506c-0.025-0.318-0.134-0.712-0.134-0.712l-0.809-0.099C167.356,188.353,167.367,188.512,167.128,188.53
			z"/>
		<path style="fill:#EB8923;" d="M222.741,167.099l-0.965-0.008l-0.391-0.934c-0.764-1.625-0.484-3.248-0.263-4.549
			c0.038-0.563,0.229-1.219,0.124-1.532l-0.219-0.783l0.515-0.6c1.554-1.722,4.57-2.109,7.421-2.564
			c1.668-0.206,3.176-0.401,4.188-0.798l0.306-0.186l0.324,0.057c0.246,0.062,0.492,0.123,0.736,0.186
			c0.245,0.062,0.575,0.196,0.814,0.178l0.595-0.604l0.804,0.019c0.734,0.185,1.698,0.192,2.422,0.219
			c1.446,0.051,2.168,0.077,2.689,0.598l0.178,0.228l0.092,0.153c0.091,0.153,0.177,0.228,0.184,0.307l1.225,0.309l0.415,1.251
			c-0.062,0.243,0.03,0.397,0.22,0.785c0.268,0.38,0.711,0.906,0.766,1.625c0.119,1.593-0.503,2.921-1.883,3.748
			c-0.839,0.544-1.938,0.867-3.452,0.98c-1.196,0.092-2.402,0.021-3.212-0.076c-0.078,0.007-0.158,0.014-0.238,0.019
			c-2.804,1.093-10.128,1.726-12.36,1.896C223.456,167.043,223.059,167.073,222.741,167.099z"/>
		<path style="fill:#EB8923;" d="M280.08,178.152l-0.655-0.19l-0.22-0.784c-0.214-0.706-1.223-1.352-2.24-2.075
			c-1.17-0.633-2.425-1.341-3.318-2.554c-1.15-1.438-1.522-3.172-1.107-5.127l0.232-1.139l0.16-0.012
			c-0.007-0.08-0.012-0.159-0.019-0.241c0.026-0.723,0.222-1.298,0.829-1.744c0.369-0.429,0.806-1.023,1.603-1.084
			c0.239-0.019,0.723,0.026,1.157,0.474l1.255,0.708l0.73-0.938c0.074-0.084,0.153-0.091,0.315-0.103
			c0.078-0.006,0.242,0.061,0.323,0.055l0.485,0.044l0.348,0.374c0.507,0.362,0.704,0.827,0.813,1.222
			c-0.005-0.08,0.226-0.178,0.467-0.196l1.319-0.581l0.578,1.318c0.758,1.547,0.293,2.784-0.218,3.465c0,0,0,0,0.007,0.079
			c0.973,0.165,1.781,0.266,2.659,0.199c1.594-0.12,3.064-0.793,4.47-1.299c0.693-0.374,1.473-0.673,2.256-0.893
			c1.861-1.902,2.832-3.899,4.221-6.729l0.503-0.761l0.792-0.14c0.283-0.5,0.598-1.647,0.629-2.291
			c0.202-0.496,0.32-1.066,0.527-1.481l-0.006-0.081c0.137-0.332,0.362-0.509,0.75-0.696c-0.178-0.228-0.362-0.534-0.459-0.77
			c-0.281-0.538-0.643-1.073-0.771-1.703c-0.2-0.546-0.169-1.188,0.033-1.686c-0.653-1.234-3.46-2.304-6.25-2.094
			c-2.071,0.157-3.77,1.008-4.956,2.3l-0.44,0.513l-0.718,0.056c-0.723-0.026-1.361,0.021-1.838,0.059
			c-0.318,0.023-0.718,0.053-1.031,0.158c-0.477,0.034-0.955,0.071-1.752,0.133c-0.238,0.017-0.318,0.023-0.559,0.042l-1.213-0.15
			l-0.337-1.256c-0.134-0.711-0.494-1.245-1.413-1.736l-1.23-1.431c0,0,0.455-0.355,0.596-0.606c0.137-0.33-0.121-0.551-0.127-0.631
			c-0.281-0.54-0.495-1.244-0.544-1.883l-0.102-1.354l1.343-0.262c2.213-0.407,3.3-1.933,4.736-4.124
			c0.223-0.258,0.363-0.51,0.584-0.767l0.135-0.33l0.307-0.184c1.934-0.948,3.891-2.618,5.285-4.326
			c1.394-1.71,2.224-3.455,2.508-4.998c-0.516-0.443-1.343-0.781-2.777-0.673c-1.115,0.084-2.293,0.413-3.471,0.744
			c-1.177,0.327-2.279,0.57-3.236,0.645c-0.613,0.367-0.914,0.629-1.355,1.145c-0.669,0.691-1.258,1.377-2.578,1.958
			c0.062,0.797-0.277,1.624-0.474,2.2l-0.64,1.089l-1.207-0.068c-1.471-0.37-3.432-0.862-4.889-2.115
			c-1.623-1.32-2.331-3.27-2.353-5.674l0.025-0.723l0.523-0.521c1.366-0.983,2.667-1.804,3.98-2.464
			c1.452-0.912,2.76-1.652,4.03-2.87l0.607-0.447l0.73,0.106c0.568,0.117,1.299,0.222,2.016,0.169
			c1.196-0.092,2.367-0.5,3.551-0.751c1.096-0.322,2.114-0.64,3.15-0.718c0.398-0.03,0.797-0.06,1.043,0.002
			c0.323,0.055,0.961,0.006,1.439-0.029c0.875-0.066,1.76-0.053,2.574,0.127c1.055,0.159,2.861,0.745,4.465,1.826
			c1.68,0.994,2.824,2.352,3.502,3.901c1.076,2.564,0.729,5.396-1.041,8.496c-0.494,1.961-1.893,3.589-3.293,5.218
			c-0.369,0.428-0.816,0.861-1.258,1.377c2.732,0.113,6.049,0.505,8.129,2.591c0.51,0.363,1.109,0.879,1.873,1.461
			c1.012,0.646,2.119,1.522,2.75,2.438c1.059,1.282,1.148,2.479,0.824,3.465c1.062,2.403,0.776,4.989,0.417,7.662
			c-0.155,1.133-0.303,2.347-0.3,3.469l-0.232,1.14l-0.938,0.312c-0.605,3.653-2.88,7.51-6.163,10.725
			c-1.792,1.739-3.926,3.182-6.007,4.3c-2.397,1.144-4.832,1.809-7.223,1.988C285,179.625,282.489,179.252,280.08,178.152z"/>
		<path style="fill:#EB8923;" d="M341.533,187.375c-0.935-1.773-0.687-3.796,0.69-5.742c0.363-1.551,0.818-2.946,1.213-4.099
			c0.195-0.576,0.465-1.237,0.656-1.893l0.069-0.167c0.872-2.229,1.739-4.538,1.975-6.722l-0.017-0.237l0.068-0.167
			c0.275-0.581,0.565-1.004,0.779-1.34c0.135-0.331,0.283-0.502,0.337-0.827c0.266-0.742,0.421-1.874,0.503-2.924
			c0.117-0.569,0.147-1.213,0.266-1.783c0.105-0.729,0.282-1.545,0.304-2.347c0.203-1.537,0.457-2.44,0.714-3.261
			c0.32-1.065,0.58-1.886,0.484-4.203c-0.116-0.473-0.152-0.951-0.267-1.422c-0.573-3.325-1.284-7.438-2.571-11.749
			c-2.91-6.672-7.531-11.612-10.047-13.105c-0.405-0.051-0.985-0.327-2.106-1.364c-0.613-0.674-1.567-1.645-2.478-3.098
			l-0.215-0.706l0.184-0.734c0.062-0.246,0.197-0.576,0.249-0.981c0.153-1.134,0.487-3.082,3.16-3.767l0.081-0.005
			c0.238-0.019,0.477-0.036,0.717-0.055c2.55-0.191,4.024,1.3,5.324,2.564c0.262,0.3,0.611,0.675,0.953,0.969
			c0.171,0.148,0.355,0.454,1.164,1.597c0.188,0.386,0.457,0.767,0.557,0.999c0.163,0.068,0.409,0.13,0.574,0.198
			c0.496,0.201,0.992,0.404,1.355,0.938c0.004,0.079,0.176,0.228,0.273,0.46c5.494,6.958,8.874,13.515,10.044,19.438l0.007,0.079
			c0.296,1.821,0.314,2.06,0.774,2.826l0.274,0.461l-0.117,0.569c-0.1,0.81,0.072,0.957,0.169,1.19
			c0.11,0.391,0.307,0.858,0.464,1.888c0.029,0.398,0.071,0.956,0.194,1.509c0.571,4.363,0.789,6.191-0.095,7.219l0.006,0.08
			c-0.025,0.724-0.051,1.447-0.004,2.085c0.023,1.36,0.033,2.562-0.195,3.782c-0.067,0.164-0.117,0.568-0.1,0.809
			c-0.099,0.809-0.186,1.776-0.443,2.599c-0.168,0.974-0.592,1.726-1.123,2.088c-0.249,0.98-0.551,2.285-0.791,3.347
			c-0.247,0.979-0.419,1.874-0.61,2.529l-0.399,1.073l-1.179,0.328c0.007,0.079-0.062,0.245-0.054,0.325
			c-0.186,0.734-0.371,1.471-0.721,2.138c-0.451,3.561-2.21,6.82-3.414,8.913c-0.21,0.418-0.418,0.834-0.554,1.165l-0.282,0.503
			l-0.547,0.201c-0.466,0.195-1.018,0.317-1.496,0.353C344.3,190.052,342.461,189.069,341.533,187.375z"/>
		<path style="fill:#EB8923;" d="M160.547,282.806c-0.201-0.545-0.397-1.01-0.66-1.312l-0.881-1.055l0.901-0.79
			c0.669-0.69,0.694-1.417,0.765-2.622c0.08-1.05,0.137-2.416,1.328-3.627c-0.875-0.976-0.121-1.594,0.26-1.863
			c0.767-0.459,0.395-1.152,0.395-1.152l0.889-0.949c0.886-1.027,1.438-2.191,2.053-3.6c0.756-1.66,1.562-3.725,3.287-5.298
			c-1.347-1.903-3.25-3.763-5.301-5.45c-2.492-2.218-5.154-4.581-6.653-7.433c-1.089-0.638-1.885-1.62-2.117-2.564
			c-0.243-1.104,0.076-2.17,0.905-2.873l0.295-0.344l0.472-0.116c0.638-0.048,1.275-0.095,1.833-0.138
			c6.216-0.47,8.271,3.384,9.419,5.86c0.099,0.232,0.275,0.46,0.368,0.613c1.267,0.865,2.473,1.978,3.679,3.087
			c1.028,0.886,2.136,1.763,3.171,2.726c0.547-1.242,0.334-1.948,0.334-1.948l1.201-0.009c1.274-0.097,1.416-0.348,1.561-2.684
			c0.002-1.042,0.102-1.852,0.507-2.844c0.276-0.581,0.78-1.342,1.626-1.807c0.057-0.322,0.117-0.568,0.18-0.814
			c0.475-2.199,1.975-5.68,4.294-6.815l0.466-0.195l0.49,0.123c0.078-0.006,0.245,0.061,0.324,0.055
			c1.379,0.217,3.003,0.495,4.332,1.116c2.881,0.985,3.086,2.653,2.926,3.706l-0.118,0.57l-0.38,0.269
			c-2.037,1.677-2.641,3.244-3.305,5.058c-0.721,2.139-1.445,4.197-3.883,6.946c0.023,0.317,0.035,0.478,0.059,0.796
			c0.242,2.146,0.225,2.948-1.102,4.494c2.447,2.698,4.928,4.756,7.32,6.737c2.84,2.592,5.75,5.016,8.711,8.16l0.698,0.748
			l-0.405,0.991c-0.073,0.087-0.147,0.172-0.216,0.338c-0.694,1.414-1.997,4.319-4.468,4.506c-0.319,0.024-0.559,0.042-0.883-0.015
			c-3.254-0.635-6.217-3.777-9.355-7.147c-2.614-2.768-5.227-5.535-7.531-6.323c-1.97,1.513-3.369,4.182-4.533,6.836
			c-0.214,0.336-0.429,0.672-0.638,1.089c-0.345,0.747-0.684,1.574-1.089,2.566c-1.298,2.983-2.718,6.458-5.767,7.489
			c0,0-1.257,0.334-2.396,0.1C161.628,285.451,161.024,283.812,160.547,282.806z"/>
		<path style="fill:#EB8923;" d="M269.356,247.085c0.303,1.079,0.596,2.05,0.458,3.159c-0.023,1.104-0.396,2.019-1.112,2.73
			c0.562,7.451-2.203,13.173-4.957,17.571c-0.438,5.87-2.955,9.037-6.532,12.726c0.005,1.543-0.562,2.796-1.558,4.195
			c-0.805,1.054-2.049,2.028-2.895,2.533c-0.413,0.361-0.828,0.725-1.029,0.96l-0.607,0.706l-0.996-0.033
			c-4.753-0.192-9.902-1.236-11.299-8.075l-0.193-1.088l0.93-0.841c7.982-6.666,13.068-22.479,13.068-22.479
			s-0.396-0.854-0.556-1.501c-0.536-1.283,1.116-1.298,1.964-4.668c-1.428,1.541-2.387,1.942-4.201,2.741
			c0,0,0.184,0.978-0.736,1.93l-0.759,0.167c-1.29,0.43-2.996,1.218-3.258,2.119l-0.347,1.239c0,0-1.189,0.31-2.41,0.183
			c-0.617,0.598-1.561,1.22-3.205,1.346c-0.986,0.071-2.099-0.065-2.881-0.225c-0.439,0.033-0.886-0.041-1.216-0.018
			c0,0-0.11,0.01-0.101,0.118c-0.211,0.124-0.415,0.361-0.627,0.487c-0.412,0.36-0.835,0.613-1.49,0.665l-0.22,0.015
			c-3.658-0.275-5.913-2.418-7.935-4.359c-1.078-1.134-2.264-2.255-3.521-2.82l-1.152-0.684l-0.1-1.315
			c0.146-2.438-0.752-5.566-1.733-8.357c-1.419-4.19-2.745-8.607-0.802-12.062c-0.743-4.021,0.248-8.396,3.001-12.793
			c2.079-3.131,4.833-6.096,8.175-8.551c3.129-2.333,6.418-4.014,9.452-4.683c1.94-0.588,3.888-1.065,5.644-1.199
			c3.504-0.266,6.431,0.509,8.654,2.214c0.319-0.138,0.646-0.161,1.086-0.195c0.108-0.008,0.219-0.016,0.438-0.032l1.652-0.014
			l0.344,1.628c0.023,0.326,0.344,1.627,3.156,3.838c1.986,1.504,4.174,2.771,5.542,3.328l1.026,0.473l0.084,1.098
			c0.15,0.537,0.023,1.763,0.023,1.763c0.285,0.857,1.701,0.643,1.701,0.643l-0.61,2.141c-1.039,2.281,0.108,5.832,1.152,9.391
			c0.584,1.941,1.182,3.988,1.558,6.053c0.208,1.309-0.122,2.767-0.258,3.879c-0.152,0.893-0.213,1.559-0.174,2.108
			C269.037,245.786,269.198,246.435,269.356,247.085z M250.367,221.848c-0.748-1.156-1.574-1.865-2.586-2.12
			c-0.557-0.068-1.104-0.026-1.541,0.007c-2.521,0.19-4.318,1.208-6.217,2.342c-0.422,0.255-0.953,0.514-1.377,0.768
			c-1.264,0.756-3.061,1.773-3.786,2.381c-0.702,0.933-1.275,2.078-1.962,3.233c-0.556,1.363-1.225,2.737-2.355,3.814
			c-0.41,4.77,0.192,12.77,3.199,16.068c0.842,0.93,1.869,1.402,2.98,1.54c6.031-3.323,8.558-6.379,11.688-10.143
			c1.115-1.297,2.12-2.584,3.336-3.998C252.571,232.04,252.731,225.414,250.367,221.848z"/>
		<path style="fill:#EB8923;" d="M312.737,239.091c-2.409-0.061-4.743-0.205-7.213-0.019c-0.719,0.056-1.516,0.115-2.146,0.243
			c-0.448,0.434-1.078,0.563-1.314,0.661l-0.372,0.349l-0.569-0.117c-0.086-0.073-0.166-0.067-0.246-0.062
			c-0.41-0.128-0.968-0.087-1.686-0.032c-0.318,0.024-0.797,0.062-1.354,0.103c-0.472,0.114-1.029,0.157-1.667,0.206
			c-1.673,0.125-3.912,0.215-6.404-0.958l-0.822-0.26l-0.139-0.79c-0.273-1.504-0.113-2.556,0.053-3.531
			c0.057-0.325,0.105-0.729,0.154-1.134l0.207-1.539l1.451,0.13c0.569,0.119,1.129,0.076,1.766,0.027
			c1.354-0.102,2.611-0.438,3.942-0.857c1.331-0.422,2.746-0.77,4.261-0.883c0.797-0.061,1.6-0.042,2.33,0.063
			c0.846-0.464,1.625-0.763,2.66-0.841c1.355-0.103,2.746,0.272,3.979,0.661c1.25-0.416,2.513-0.672,4.027-0.786
			c2.15-0.163,4.328-0.007,6.111,0.26c0.533-0.36,1.152-0.648,2.028-0.715c0.798-0.06,1.526,0.045,2.341,0.225l0.21-0.416
			c0,0,1.681-1.089,3.111,0.886c0.411,0.129,0.706-0.213,0.956-0.071c0.491,0.124,0.662,1.312,0.662,1.312
			c0.11,0.393,0.054,0.718-0.002,1.043c0.497,0.201,1.098,0.72,1.266,1.909l0.123,0.55l-0.363,0.51
			c-0.295,0.342-0.595,0.605-0.816,0.861c-0.301,0.265-0.381,0.27-0.351,0.669l-0.067,1.207l-1.104,0.244
			c-2.049,0.476-4.108,0.79-6.181,0.946C318.369,239.386,315.551,239.199,312.737,239.091z M298.845,258.891
			c-0.073,0.087-0.231,0.099-0.392,0.111c-0.704,0.214-1.49,0.434-2.447,0.505c-1.433,0.108-2.732-0.114-3.995-0.899l-0.501-0.282
			l-0.19-0.388c-0.786-1.944-0.908-3.538-0.36-4.781c0.688-1.495,2.086-2.082,2.939-2.467l0.072-0.084
			c0.979-1.918,3.129-2.08,4.326-2.172c0.237-0.017,0.396-0.029,0.635-0.048c0.24-0.018,0.4-0.028,0.639-0.047
			c0.318-0.024,1.354-0.104,1.661-0.286l1.093-0.404l1.254,0.707c0.246,0.062,0.491,0.123,0.663,0.271
			c4.01-1.025,8.767-1.705,13.444-2.379c4.672-0.754,9.589-1.444,13.605-2.39l1.189-0.172l0.464,0.847
			c0.098,0.234,0.28,0.541,0.38,0.773c1.277,2.067,2.854,4.914,1.129,7.528l-0.368,0.43l-0.472,0.114
			c-5.317,1.767-12.385,2.62-19.288,3.542c-3.097,0.396-6.032,0.777-8.646,1.214c-0.789,0.14-1.568,0.44-2.269,0.733
			c-0.773,0.379-1.384,0.744-2.263,0.812C300.353,259.74,299.532,259.482,298.845,258.891z"/>
	</g>
	<polygon style="fill:#D89932;" points="464.094,210.472 459.897,191.077 468.42,189.416 446.803,183.783 458.76,210.472 
		481.389,234.087 	"/>
	<polygon style="fill:#C6CBCB;" points="359.371,61.469 423.031,82.752 423.031,65.362 	"/>
	<path style="fill:#586A73;" d="M345.871,38.377c0,14.948,12.514,27.066,27.952,27.066h49.207L345.871,0V38.377z"/>
	<path style="opacity:0.4;fill:#D89932;enable-background:new    ;" d="M264.423,430.116c-0.712,0.165-1.415,0.325-2.113,0.479
		C263.008,430.441,263.711,430.281,264.423,430.116z"/>
	<path style="opacity:0.4;fill:#D89932;enable-background:new    ;" d="M261.932,430.68c-0.693,0.15-1.377,0.297-2.051,0.436
		C260.555,430.976,261.239,430.83,261.932,430.68z"/>
	<path style="opacity:0.4;fill:#D89932;enable-background:new    ;" d="M257.285,431.624c-0.641,0.118-1.267,0.23-1.883,0.333
		C256.019,431.854,256.645,431.742,257.285,431.624z"/>
	<path style="opacity:0.4;fill:#D89932;enable-background:new    ;" d="M259.526,431.186c-0.686,0.14-1.363,0.274-2.025,0.398
		C258.162,431.461,258.84,431.326,259.526,431.186z"/>
	<path style="opacity:0.4;fill:#D89932;enable-background:new    ;" d="M255.159,431.998c-0.621,0.104-1.224,0.196-1.817,0.282
		C253.936,432.194,254.538,432.101,255.159,431.998z"/>
	<path style="opacity:0.4;fill:#D89932;enable-background:new    ;" d="M245.947,432.832c-0.413-0.014-0.802-0.042-1.17-0.082
		C245.145,432.79,245.533,432.818,245.947,432.832z"/>
	<path style="opacity:0.4;fill:#D89932;enable-background:new    ;" d="M241.838,431.889c0.168,0.115,0.365,0.214,0.576,0.308
		c-0.211-0.094-0.396-0.199-0.563-0.314L241.838,431.889z"/>
	<path style="opacity:0.4;fill:#D89932;enable-background:new    ;" d="M244.588,432.733c-0.358-0.044-0.689-0.101-1.001-0.169
		C243.899,432.633,244.23,432.689,244.588,432.733z"/>
	<path style="opacity:0.4;fill:#D89932;enable-background:new    ;" d="M243.389,432.52c-0.296-0.071-0.565-0.157-0.812-0.257
		C242.824,432.363,243.093,432.449,243.389,432.52z"/>
	<path style="opacity:0.4;fill:#D89932;enable-background:new    ;" d="M267.019,429.498c-0.753,0.184-1.499,0.362-2.24,0.535
		C265.52,429.86,266.266,429.682,267.019,429.498z"/>
	<path style="opacity:0.4;fill:#D89932;enable-background:new    ;" d="M250.959,432.585c-0.531,0.058-1.047,0.107-1.545,0.146
		C249.912,432.692,250.428,432.642,250.959,432.585z"/>
	<path style="opacity:0.4;fill:#D89932;enable-background:new    ;" d="M267.16,429.462c17.832-4.374,38.188-11.435,38.188-11.435
		c-0.839-7.286-3.091-13.67-6.107-19.225l-37.315,21.509l7.664,8.543C268.777,429.061,267.966,429.266,267.16,429.462z"/>
	<path style="opacity:0.4;fill:#D89932;enable-background:new    ;" d="M247.407,432.836c-0.463,0.011-0.912,0.014-1.333,0.002
		C246.494,432.849,246.944,432.847,247.407,432.836z"/>
	<path style="opacity:0.4;fill:#D89932;enable-background:new    ;" d="M249.09,432.754c-0.499,0.036-0.985,0.064-1.448,0.078
		C248.105,432.816,248.591,432.79,249.09,432.754z"/>
	<path style="opacity:0.4;fill:#D89932;enable-background:new    ;" d="M252.99,432.331c-0.569,0.08-1.124,0.149-1.663,0.212
		C251.866,432.48,252.42,432.411,252.99,432.331z"/>
	<path style="fill:#EB8923;" d="M247.642,432.832c-0.081,0.002-0.155,0.003-0.235,0.004
		C247.487,432.835,247.561,432.835,247.642,432.832z"/>
	<path style="fill:#EB8923;" d="M242.576,432.264c-0.056-0.021-0.109-0.045-0.162-0.067
		C242.467,432.219,242.521,432.243,242.576,432.264z"/>
	<path style="fill:#EB8923;" d="M246.074,432.838c-0.042-0.002-0.085-0.004-0.127-0.006
		C245.989,432.834,246.032,432.836,246.074,432.838z"/>
	<path style="fill:#EB8923;" d="M243.587,432.564c-0.065-0.015-0.135-0.028-0.198-0.044
		C243.452,432.536,243.522,432.55,243.587,432.564z"/>
	<path style="fill:#EB8923;" d="M244.777,432.75c-0.062-0.005-0.128-0.01-0.188-0.017
		C244.649,432.74,244.715,432.745,244.777,432.75z"/>
	<path style="fill:#EB8923;" d="M262.31,430.596c-0.127,0.028-0.253,0.056-0.378,0.084
		C262.057,430.651,262.183,430.624,262.31,430.596z"/>
	<path style="fill:#EB8923;" d="M257.5,431.585c-0.072,0.013-0.145,0.024-0.215,0.039
		C257.356,431.609,257.428,431.598,257.5,431.585z"/>
	<path style="fill:#EB8923;" d="M251.326,432.543c-0.123,0.015-0.246,0.029-0.367,0.042
		C251.08,432.572,251.202,432.557,251.326,432.543z"/>
	<path style="fill:#EB8923;" d="M255.403,431.957c-0.08,0.014-0.164,0.028-0.243,0.041
		C255.241,431.985,255.323,431.971,255.403,431.957z"/>
	<path style="fill:#EB8923;" d="M259.881,431.115c-0.119,0.024-0.237,0.048-0.355,0.071
		C259.644,431.163,259.762,431.14,259.881,431.115z"/>
	<path style="fill:#EB8923;" d="M267.16,429.462c-0.048,0.013-0.096,0.024-0.142,0.036
		C267.065,429.486,267.113,429.474,267.16,429.462z"/>
	<path style="fill:#EB8923;" d="M264.779,430.033c-0.119,0.027-0.237,0.056-0.355,0.083
		C264.541,430.089,264.659,430.06,264.779,430.033z"/>
	<path style="fill:#EB8923;" d="M249.414,432.73c-0.109,0.01-0.215,0.016-0.324,0.023C249.2,432.746,249.305,432.74,249.414,432.73z
		"/>
	<path style="fill:#EB8923;" d="M253.342,432.28c-0.117,0.017-0.236,0.034-0.353,0.051
		C253.106,432.314,253.225,432.297,253.342,432.28z"/>
	<path style="fill:#D27228;" d="M247.642,432.832c0.463-0.014,0.949-0.042,1.448-0.078c0.109-0.008,0.215-0.014,0.324-0.023
		c0.498-0.038,1.014-0.088,1.545-0.146c0.121-0.013,0.244-0.027,0.367-0.042c0.539-0.062,1.094-0.132,1.663-0.212
		c0.116-0.017,0.235-0.034,0.353-0.051c0.594-0.086,1.196-0.179,1.817-0.282c0.079-0.013,0.163-0.027,0.243-0.041
		c0.616-0.103,1.242-0.215,1.883-0.333c0.07-0.015,0.143-0.026,0.215-0.039c0.662-0.124,1.34-0.259,2.025-0.398
		c0.118-0.023,0.236-0.047,0.355-0.071c0.674-0.139,1.357-0.285,2.051-0.436c0.125-0.028,0.251-0.056,0.378-0.084
		c0.698-0.154,1.401-0.314,2.113-0.479c0.118-0.027,0.236-0.056,0.355-0.083c0.741-0.173,1.487-0.352,2.24-0.535
		c0.046-0.012,0.094-0.023,0.142-0.036c0.806-0.196,1.616-0.4,2.43-0.607l-7.664-8.543l-20.075,11.57
		c0.167,0.115,0.353,0.221,0.563,0.314c0.053,0.022,0.106,0.047,0.162,0.067c0.247,0.1,0.517,0.186,0.812,0.257
		c0.063,0.016,0.133,0.029,0.198,0.044c0.312,0.068,0.643,0.125,1.001,0.169c0.061,0.007,0.127,0.012,0.188,0.017
		c0.368,0.04,0.757,0.068,1.17,0.082c0.042,0.002,0.085,0.004,0.127,0.006c0.421,0.012,0.87,0.009,1.333-0.002
		C247.487,432.835,247.561,432.834,247.642,432.832z"/>
</g>
<g>
</g>
<g>
</g>
<g>
</g>
<g>
</g>
<g>
</g>
<g>
</g>
<g>
</g>
<g>
</g>
<g>
</g>
<g>
</g>
<g>
</g>
<g>
</g>
<g>
</g>
<g>
</g>
<g>
</g>
</svg>
