<svg height="132.369" width="133.252" xmlns="http://www.w3.org/2000/svg"><circle cx="66.626" cy="66.185" fill="#3B5999" r="63.333"/><path d="M111.429 21.496c24.732 24.732 24.733 64.832-.001 89.566-24.733 24.733-64.834 24.733-89.566 0l89.567-89.566z" fill="#355388"/><path d="M129.549 73.317L83.737 27.505 59.953 51.29l1.417 1.417-13.542 13.541 11.084 11.083-1.458 1.458 12 12-13.834 13.834 23.633 23.633c26.649-5.393 47.221-27.519 50.296-54.939z" fill="#2E4E73"/><path d="M55.557 42.658v10.62h-7.781v12.988h7.781v38.593h15.984V66.267h10.726s1.005-6.228 1.491-13.036H71.602V44.35c0-1.326 1.742-3.112 3.465-3.112h8.709V27.717H71.935c-16.774 0-16.378 12.999-16.378 14.941z" fill="#FFF"/></svg>