<?xml version="1.0" encoding="UTF-8" standalone="no"?><svg xmlns="http://www.w3.org/2000/svg" width="400" height="400" id="svg2" version="1.1"><path d="m 183.95663,7.2174413 c -15.26303,0.5437534 -17.56577,0.8649473 -26.18237,3.6431497 -3.00456,0.96864 -7.51265,2.199041 -10.01645,2.733942 -9.63076,2.054883 -11.04959,2.489887 -15.10118,4.618113 -2.29514,1.207639 -6.37331,2.830048 -9.06047,3.606478 -3.85053,1.112798 -5.63101,1.922106 -8.40542,3.822715 -2.11684,1.449167 -4.94942,2.886953 -7.10674,3.605214 -2.49747,0.830805 -4.34623,1.824736 -6.08624,3.268845 -1.37456,1.141882 -3.934004,2.921095 -5.686657,3.955492 -1.752653,1.034396 -4.32221,2.942592 -5.710673,4.241279 -1.388473,1.298685 -3.335875,2.774408 -4.327272,3.280225 -0.992665,0.505818 -2.82878,2.039709 -4.083213,3.40921 -1.254424,1.369501 -3.301722,3.009613 -4.551094,3.644414 -1.249362,0.636065 -2.783255,1.717247 -3.409204,2.402637 -0.625949,0.685381 -3.08422,2.513909 -5.464089,4.062978 -2.37987,1.549058 -4.967128,3.517955 -5.749879,4.375313 -7.051095,7.726362 -8.663389,9.657321 -10.431221,12.494957 -1.115328,1.789332 -2.799699,3.872032 -3.741784,4.630762 -0.943349,0.757462 -2.303999,2.540465 -3.023524,3.963082 -0.719525,1.421348 -2.181337,3.353566 -3.248612,4.294386 -1.068539,0.939552 -2.598637,2.827522 -3.401622,4.19449 -0.80172,1.366969 -2.541732,3.625448 -3.865709,5.018973 -1.323977,1.393524 -3.167682,4.056654 -4.098386,5.919324 -0.929439,1.86141 -2.487357,4.4512 -3.46232,5.75495 -1.021752,1.36823 -2.432982,4.22104 -3.337131,6.75013 -0.9522,2.66692 -2.272384,5.30096 -3.373801,6.73495 -2.362168,3.07664 -2.952708,4.52328 -4.338648,10.63988 -0.877594,3.87329 -1.743806,6.22407 -3.609008,9.78882 -2.348256,4.48787 -2.488621,4.95828 -3.2511411,10.83714 -1.1810835,9.11989 -1.963836,12.92111 -3.7278742,18.10953 -3.4243832,10.06956 -4.0389518,33.60524 -1.478251,56.5567 0.2693474,2.41655 1.1659095,6.44918 2.0308567,9.1376 1.7981809,5.58675 2.2546809,7.76683 3.1866497,15.22004 0.9231169,7.37988 1.7526569,10.38444 3.8303029,13.88596 0.96611,1.62747 2.196511,4.49671 2.732678,6.37456 2.000508,6.9904 2.39631,7.96789 4.31968,10.66895 1.25822,1.76405 2.483563,4.32348 3.39277,7.08651 1.043249,3.17021 2.027063,5.11634 3.679821,7.28503 1.240518,1.62747 2.884424,4.51822 3.653267,6.42262 0.868741,2.15351 2.005566,4.0478 3.007084,5.00759 0.886445,0.84977 2.393781,3.09433 3.35104,4.98736 0.958524,1.89302 3.180327,5.11002 4.939307,7.14846 1.757715,2.03845 3.443352,4.16794 3.745578,4.73193 0.302226,0.56524 1.930958,2.48609 3.617859,4.26909 1.686901,1.78175 3.390241,3.86572 3.786046,4.62823 0.39453,0.76379 1.752653,2.25468 3.0172,3.31437 1.264537,1.05843 2.955232,2.83764 3.755693,3.9517 0.800452,1.11406 2.589784,2.72888 3.978257,3.58624 1.387205,0.85863 3.034901,2.28124 3.66085,3.1601 0.625948,0.88013 2.406426,2.43677 3.956752,3.45979 1.551594,1.02301 3.366215,2.57587 4.033895,3.4522 0.66768,0.87507 2.574609,2.47092 4.23748,3.54705 1.662881,1.07486 4.252665,3.03996 5.75494,4.36773 1.502276,1.32651 4.215985,3.08802 6.02808,3.91503 1.813353,0.82574 4.184377,2.3217 5.270618,3.32195 1.136827,1.04705 4.052859,2.79086 6.868999,4.10598 2.69095,1.25569 5.70057,2.97547 6.68692,3.82019 1.70207,1.45675 4.47015,2.50127 10.52731,3.97319 1.18109,0.28705 3.74179,1.5301 5.69172,2.76303 4.32728,2.7352 7.00937,3.57739 11.38976,3.57739 5.28957,0 6.43905,-0.88012 8.74558,-6.70082 l 1.48331,-3.74051 -0.16819,-13.55971 c -0.22383,-18.15884 0.4135,-17.41908 -15.03162,-17.44564 -18.1184,-0.0316 -22.48361,-0.66768 -28.17784,-4.10471 -1.64771,-0.99393 -4.5157,-2.32044 -6.374573,-2.94638 -3.989638,-1.34421 -9.802742,-6.70082 -11.990398,-11.04958 -0.666413,-1.32524 -2.210419,-3.64821 -3.430709,-5.16314 -1.647696,-2.04476 -2.545527,-3.76581 -3.492667,-6.69575 -1.019221,-3.15377 -1.69955,-4.39808 -3.397833,-6.21902 -1.168435,-1.2519 -2.587258,-3.19804 -3.153765,-4.32474 -1.205114,-2.39885 -7.77062,-9.27796 -10.878869,-11.3986 -1.186137,-0.80931 -2.596104,-2.11053 -3.132271,-2.89074 -0.536167,-0.78023 -2.109256,-2.57841 -3.495202,-3.99596 -3.67982,-3.76455 -3.149976,-5.6032 2.19146,-7.60118 8.28655,-3.10065 19.062988,1.00406 28.29542,10.77771 1.502275,1.5908 3.688674,3.59636 4.858377,4.45878 1.219012,0.89909 2.701061,2.58852 3.477492,3.96307 0.743555,1.31893 2.30653,3.17781 3.47244,4.1338 1.165909,0.95473 2.927418,2.83005 3.913748,4.1654 4.36269,5.90669 7.75672,7.91731 16.0711,9.52455 3.04755,0.58927 6.48584,1.31259 7.64037,1.60724 3.50912,0.89402 17.04606,-1.66794 21.90444,-4.14644 2.39757,-1.22282 2.88694,-2.19399 4.17298,-8.26885 1.1166,-5.27315 1.29617,-5.69297 5.16441,-12.08018 1.28224,-2.11686 1.27971,-2.61129 -0.0152,-3.90618 -1.12671,-1.12671 -1.99798,-1.29742 -10.79035,-2.108 -6.84498,-0.63101 -10.05059,-1.48584 -13.65833,-3.64314 -2.14847,-1.28478 -4.36522,-2.09789 -8.0893,-2.96789 -3.89733,-0.91173 -5.64871,-1.5693 -7.28504,-2.73647 -1.18488,-0.84472 -3.72028,-2.39125 -5.63481,-3.43703 -1.91451,-1.04452 -4.98735,-3.21574 -6.8298,-4.8255 -1.84117,-1.6085 -4.19702,-3.52176 -5.235207,-4.25139 -4.816646,-3.38646 -11.345482,-10.53997 -13.280235,-14.55237 -1.02555,-2.12823 -2.666926,-5.1429 -3.646942,-6.69829 -1.296155,-2.05868 -2.057411,-4.04148 -2.79844,-7.28503 -0.560188,-2.45069 -1.708396,-6.31134 -2.550579,-8.57867 -6.105223,-16.43021 -6.387209,-51.43277 -0.519734,-64.29191 a 371.39263,371.39263 0 0 0 3.47876,-7.88191 c 0.800461,-1.89934 2.368489,-4.56247 3.483821,-5.91806 1.115323,-1.35686 2.448157,-3.59383 2.962829,-4.97092 0.514663,-1.37708 1.53642,-3.61659 2.269852,-4.97472 1.555387,-2.88189 1.82094,-7.32676 0.670206,-11.21903 -3.138591,-10.6171 -2.765555,-21.49976 1.074859,-31.329064 0.990139,-2.534142 2.158584,-6.040716 2.597381,-7.793378 1.364443,-5.45145 3.980783,-6.960046 11.105219,-6.399858 6.32399,0.496971 9.84953,1.413761 13.18919,3.431976 2.91478,1.761509 5.50962,2.775668 10.98382,4.294387 1.51873,0.421096 4.29694,1.876588 6.88546,3.606479 2.38619,1.595851 5.40339,3.284016 6.70461,3.751898 1.30121,0.46788 3.42312,1.75266 4.71548,2.85533 l 2.34826,2.00557 3.65074,-0.23646 c 2.58726,-0.16692 4.66237,-0.63986 7.11811,-1.62115 13.33208,-5.331314 64.00108,-5.241532 79.39436,0.14163 6.96005,2.43298 9.98484,2.19905 13.68742,-1.06095 1.08119,-0.95221 2.84902,-1.99545 3.92894,-2.31791 2.60875,-0.780218 5.84725,-2.446892 8.60396,-4.427161 1.32776,-0.953469 3.94537,-2.143409 6.38088,-2.900861 2.27112,-0.705618 5.92185,-2.317912 8.11331,-3.583717 11.17351,-6.447909 25.98511,-5.083466 25.98511,2.395045 0,1.875311 1.57941,8.220794 3.30172,13.268854 2.66818,7.81614 2.58346,13.03617 -0.38189,23.42693 -1.69196,5.92818 -1.58195,11.51999 0.27187,13.76835 0.75494,0.91426 2.15605,3.37001 3.11584,5.4565 0.95852,2.0865 2.60243,4.78504 3.652,5.99773 2.28123,2.63531 3.76581,5.47169 4.80273,9.17047 0.4211,1.50228 1.45929,4.47395 2.3078,6.60219 5.36925,13.46865 5.20486,34.30959 -0.44132,55.77142 -0.8561,3.25494 -1.98787,8.05009 -2.51392,10.65378 -1.15326,5.70435 -1.67173,7.01443 -4.01619,10.15049 -0.99393,1.32777 -2.27618,3.54198 -2.85028,4.91908 -2.31033,5.54755 -8.54958,12.53162 -15.83588,17.72763 -1.84371,1.31386 -3.94158,3.06019 -4.66238,3.88215 -0.72078,0.82069 -2.79843,2.26607 -4.61557,3.21068 -1.81842,0.94587 -4.25646,2.40768 -5.41984,3.24861 -2.38366,1.7261 -4.63834,2.61128 -9.26784,3.63809 -1.75265,0.38822 -4.6826,1.50354 -6.5124,2.47724 -4.73445,2.52276 -8.4383,3.47876 -16.45424,4.24887 -7.82246,0.75114 -9.24887,1.31639 -9.49545,3.76075 -0.20613,2.0473 1.47698,6.00153 3.71143,8.72029 2.32676,2.83005 2.84649,4.37279 3.24608,9.63835 0.16187,2.12822 0.63607,6.43021 1.05337,9.56121 0.63354,4.75089 0.75999,10.08601 0.76757,32.32426 l 0.009,26.63382 1.69195,3.25873 c 2.49368,4.804 3.52682,5.39201 9.46258,5.39074 5.2643,-9.6e-4 6.11534,-0.27693 11.72612,-3.80374 1.72357,-1.08245 4.15023,-2.10294 6.14568,-2.58346 5.14543,-1.24052 7.86166,-2.39126 10.20107,-4.32474 1.18615,-0.98002 3.50026,-2.31791 5.14037,-2.97168 3.5559,-1.41882 5.59434,-2.62645 7.8212,-4.63581 0.90921,-0.82069 3.03112,-2.11685 4.71422,-2.87937 1.68311,-0.76378 4.0124,-2.26606 5.17704,-3.3384 1.16338,-1.07359 3.38265,-2.80222 4.93172,-3.84168 1.54907,-1.03945 4.00734,-2.98685 5.46282,-4.32473 1.4555,-1.33916 3.53441,-3.07159 4.61812,-3.85054 4.45372,-3.1955 17.47599,-15.80932 19.70791,-19.08955 0.81437,-1.19626 2.69474,-3.50784 4.17932,-5.13531 1.48457,-1.62747 3.32321,-3.88088 4.08826,-5.00759 0.7638,-1.12671 2.3862,-3.11836 3.60396,-4.42591 1.22028,-1.31006 2.82625,-3.74052 3.57865,-5.41477 0.74861,-1.67172 2.00809,-3.77339 2.79717,-4.67249 0.78908,-0.89782 2.35205,-3.57107 3.4737,-5.93829 1.12166,-2.36723 2.7997,-5.13785 3.73041,-6.15454 2.1864,-2.39125 2.8566,-3.76075 4.09712,-8.37001 0.7524,-2.79843 1.53516,-4.47522 2.99318,-6.41377 2.30526,-3.06778 2.5392,-3.62418 4.07056,-9.66237 0.63607,-2.50759 1.88796,-6.13304 2.78199,-8.05514 2.85029,-6.12419 3.79869,-9.71803 4.71296,-17.85916 0.26682,-2.36596 1.08119,-7.27239 1.81082,-10.90289 4.59915,-22.88823 4.78884,-48.1007 0.46283,-61.85008 -0.4995,-1.58953 -1.22788,-5.38064 -1.61609,-8.42313 -2.00556,-15.68413 -1.96257,-15.45777 -3.43323,-18.27898 l -2.49242,-4.77996 c -0.58675,-1.12799 -1.47319,-4.09839 -1.97016,-6.60219 -1.20005,-6.0597 -1.98912,-8.13733 -4.15908,-10.94968 -1.12038,-1.4517 -2.32297,-3.84548 -3.12722,-6.22409 -1.55918,-4.61178 -1.99039,-5.46915 -3.99343,-7.92615 -0.84345,-1.03314 -2.22559,-3.30299 -3.07157,-5.043 -0.84724,-1.74002 -2.37355,-4.12621 -3.39277,-5.303503 -1.01922,-1.177287 -2.71245,-3.620382 -3.76202,-5.428683 -1.05083,-1.808292 -2.97041,-4.414519 -4.26783,-5.79161 -1.29616,-1.377082 -2.88948,-3.44208 -3.54072,-4.590289 -0.64998,-1.148208 -2.02454,-2.847749 -3.05388,-3.777188 -1.02807,-0.928181 -2.49747,-2.755441 -3.26631,-4.059193 -2.65428,-4.504301 -13.78859,-16.255703 -17.22182,-18.172755 -1.37709,-0.770102 -3.42692,-2.274913 -4.55362,-3.34472 -1.12671,-1.069798 -3.17527,-2.601162 -4.55236,-3.402883 -1.37708,-0.802984 -3.18665,-2.254681 -4.01998,-3.227114 -0.8346,-0.973699 -2.88316,-2.570817 -4.55363,-3.550839 -1.66919,-0.980021 -3.75316,-2.542997 -4.62949,-3.473701 -0.87633,-0.929439 -3.3346,-2.819932 -5.46409,-4.198284 -2.12823,-1.379617 -4.7079,-3.272638 -5.73091,-4.208401 -1.3126,-1.197522 -2.97168,-2.058677 -5.61837,-2.914773 -3.68361,-1.193729 -5.25417,-2.039709 -8.91756,-4.810323 -1.20005,-0.907942 -3.3131,-1.774154 -6.14694,-2.522764 -2.44057,-0.644918 -6.49344,-2.230655 -9.32475,-3.649472 -3.96182,-1.985334 -6.00658,-2.701066 -9.78251,-3.426913 -6.46846,-1.241783 -11.12451,-2.459537 -15.35694,-4.018719 -8.99091,-3.3105758 -30.68416,-4.6826047 -58.40168,-3.6937317" id="path4" fill="#fbfbfa" fill-rule="evenodd"/></svg>