<svg width="1026" height="250" viewBox="0 0 1026 250" fill="none" xmlns="http://www.w3.org/2000/svg">
<path d="M336.375 69.8008H1025.57M335.475 246.701H1024.67" stroke="#D3CCB0" stroke-width="5" stroke-miterlimit="10"/>
<path d="M21.3745 99.9996L171.375 17.3996M171.575 11.5996L295.275 85.8996" stroke="#D3CCB0" stroke-width="5" stroke-miterlimit="10"/>
<path d="M292.775 205.9L34.6746 225.3C19.8746 226.4 6.87457 215.2 5.77457 200.4L0.0745774 123.9C-1.02542 109.1 10.1746 96.1 24.9746 95L283.075 75.6C297.875 74.5 310.875 85.7 311.975 100.5L317.675 177C318.775 191.8 307.575 204.8 292.775 205.9Z" fill="#518ABE"/>
<path d="M50.0747 120.199C57.5747 119.599 64.1747 120.699 69.8747 123.299C75.4747 125.999 79.9748 129.999 83.1748 135.399C86.3748 140.799 88.2747 147.399 88.8747 154.999C89.2747 160.599 88.8747 165.799 87.7747 170.499C86.5747 175.199 84.5747 179.399 81.7747 182.999C78.9747 186.599 75.4747 189.499 71.1747 191.599C66.8747 193.699 61.8747 194.999 56.1747 195.399C50.4747 195.799 45.2747 195.299 40.6747 193.799C36.0747 192.299 32.0747 189.999 28.7747 186.899C25.4747 183.799 22.9747 179.899 21.0747 175.299C19.1747 170.699 18.0747 165.699 17.5747 160.199C17.1747 154.599 17.5747 149.399 18.8747 144.599C20.1747 139.799 22.1747 135.699 24.9747 132.199C27.7747 128.699 31.2747 125.899 35.5747 123.799C39.8747 121.699 44.4747 120.599 50.0747 120.199ZM73.8747 156.099C73.4747 150.799 72.2747 146.199 70.2747 142.399C68.2747 138.599 65.5747 135.899 62.2747 134.099C58.9747 132.299 55.1747 131.599 51.0747 131.899C48.1747 132.099 45.4747 132.899 43.0747 134.199C40.6747 135.499 38.6747 137.299 36.9747 139.499C35.3747 141.799 34.0747 144.599 33.2747 147.899C32.4747 151.299 32.2747 154.999 32.5747 159.099C32.8747 163.199 33.6747 166.899 34.9747 170.199C36.2747 173.499 37.9747 176.099 39.9747 178.199C42.0747 180.299 44.3747 181.699 46.8747 182.599C49.3747 183.499 52.1747 183.899 55.0747 183.599C58.8747 183.299 62.2747 182.099 65.2747 179.999C68.2747 177.899 70.5747 174.799 72.1747 170.699C73.6747 166.699 74.2747 161.799 73.8747 156.099ZM130.275 160.099L116.775 161.099L118.275 181.699C118.475 184.599 117.975 186.899 116.675 188.599C115.375 190.199 113.675 191.099 111.575 191.299C109.375 191.499 107.475 190.799 106.075 189.399C104.575 187.999 103.775 185.799 103.575 182.899L99.3747 126.799C99.1747 123.599 99.6747 121.199 101.075 119.699C102.475 118.199 104.775 117.299 107.975 117.099L126.875 115.699C132.475 115.299 136.775 115.399 139.875 115.999C142.875 116.599 145.575 117.799 147.875 119.499C150.175 121.299 151.975 123.499 153.375 126.199C154.675 128.899 155.475 131.999 155.775 135.499C156.375 142.899 154.475 148.699 150.175 152.899C145.975 156.999 139.275 159.399 130.275 160.099ZM124.175 126.999L114.275 127.699L115.975 149.999L125.875 149.299C129.375 148.999 132.275 148.499 134.475 147.599C136.775 146.699 138.475 145.399 139.575 143.599C140.675 141.899 141.075 139.599 140.875 136.999C140.675 133.799 139.475 131.199 137.475 129.399C135.175 127.299 130.775 126.499 124.175 126.999ZM215.375 120.499L182.175 122.999L183.475 140.899L214.075 138.599C216.375 138.399 218.075 138.799 219.275 139.699C220.475 140.599 221.075 141.899 221.275 143.599C221.375 145.299 220.975 146.599 219.975 147.799C218.975 148.999 217.275 149.599 215.075 149.699L184.475 151.999L186.075 172.699L220.475 170.099C222.775 169.899 224.575 170.299 225.875 171.299C227.175 172.299 227.875 173.699 227.975 175.499C228.075 177.199 227.575 178.699 226.575 179.799C225.475 180.999 223.775 181.599 221.475 181.799L181.375 184.799C178.175 184.999 175.775 184.499 174.275 183.199C172.775 181.899 171.875 179.599 171.675 176.499L167.575 121.799C167.375 119.699 167.575 117.899 168.175 116.499C168.675 115.099 169.575 114.099 170.875 113.299C172.175 112.499 173.875 112.199 175.975 111.999L214.875 109.099C217.175 108.899 218.975 109.299 220.275 110.299C221.475 111.299 222.175 112.599 222.275 114.299C222.375 115.999 221.975 117.399 220.875 118.599C219.375 119.599 217.675 120.299 215.375 120.499ZM254.175 113.799L285.775 154.599L282.575 111.299C282.375 108.499 282.775 106.299 283.875 104.799C284.975 103.299 286.575 102.499 288.575 102.299C290.675 102.099 292.375 102.699 293.775 103.999C295.075 105.299 295.875 107.399 296.075 110.199L300.375 167.499C300.875 173.899 298.475 177.299 293.175 177.699C291.875 177.799 290.675 177.699 289.575 177.399C288.475 177.099 287.475 176.599 286.475 175.799C285.475 174.999 284.575 174.099 283.675 173.099C282.775 172.099 281.875 170.999 281.075 169.899L250.075 129.499L253.275 172.199C253.475 174.999 252.975 177.099 251.775 178.699C250.575 180.199 248.975 181.099 246.975 181.199C244.875 181.399 243.175 180.799 241.775 179.399C240.375 178.099 239.575 175.999 239.375 173.299L235.175 117.099C234.975 114.699 235.075 112.799 235.575 111.399C236.075 109.899 237.075 108.599 238.475 107.499C239.875 106.399 241.375 105.899 243.075 105.699C244.375 105.599 245.575 105.699 246.575 106.099C247.575 106.499 248.375 106.999 249.175 107.699C249.975 108.399 250.775 109.299 251.575 110.399C252.375 111.399 253.275 112.599 254.175 113.799Z" fill="white"/>
<path d="M174.475 24.6C181.268 24.6 186.775 19.0931 186.775 12.3C186.775 5.5069 181.268 0 174.475 0C167.682 0 162.175 5.5069 162.175 12.3C162.175 19.0931 167.682 24.6 174.475 24.6Z" fill="white"/>
<path d="M365.575 168.6C365.575 190.9 366.175 200.7 368.875 203.4C371.275 205.8 375.275 206.9 387.075 206.9C395.175 206.9 401.775 206.7 405.475 202.3C407.475 199.9 408.975 196.1 409.375 193.2C409.575 192 409.875 191.2 410.775 191.2C411.575 191.2 411.675 191.8 411.675 193.5C411.675 195.2 410.575 204.3 409.375 208.7C408.275 212.2 407.875 212.8 399.775 212.8C388.875 212.8 380.975 212.5 374.575 212.3C368.175 212 363.475 211.8 359.075 211.8C358.475 211.8 355.875 212 352.875 212C349.875 212.2 346.475 212.3 344.175 212.3C342.475 212.3 341.775 212 341.775 211.1C341.775 210.6 342.075 210.2 342.975 210.2C344.375 210.2 346.175 209.9 347.575 209.6C350.575 209 351.375 205.7 351.975 201.2C352.775 194.8 352.775 182.8 352.775 168.2V141.5C352.775 117.8 352.775 113.5 352.475 108.7C352.175 103.5 350.975 101.1 345.975 100C344.775 99.7004 342.175 99.5004 340.775 99.5004C340.175 99.5004 339.575 99.2004 339.575 98.6004C339.575 97.7004 340.375 97.4004 341.975 97.4004C348.775 97.4004 358.375 97.9004 359.175 97.9004C359.975 97.9004 370.975 97.4004 375.575 97.4004C377.275 97.4004 377.975 97.7004 377.975 98.6004C377.975 99.2004 377.375 99.5004 376.775 99.5004C375.675 99.5004 373.575 99.7004 371.775 100C367.375 100.8 366.175 103.3 365.875 108.7C365.575 113.6 365.575 117.8 365.575 141.5V168.6ZM455.475 168.3C455.475 182.9 455.475 194.9 456.275 201.3C456.775 205.7 457.675 209 462.175 209.7C464.275 210 467.675 210.3 468.975 210.3C469.875 210.3 470.175 210.8 470.175 211.2C470.175 212 469.375 212.4 467.775 212.4C459.375 212.4 449.875 211.9 449.075 211.9C448.275 211.9 438.775 212.4 434.175 212.4C432.475 212.4 431.775 212.1 431.775 211.2C431.775 210.7 432.075 210.3 432.975 210.3C434.375 210.3 436.175 210 437.575 209.7C440.575 209.1 441.375 205.8 441.975 201.3C442.775 194.9 442.775 182.9 442.775 168.3V141.6C442.775 117.9 442.775 113.6 442.475 108.8C442.175 103.6 440.675 101.1 437.275 100.3C435.575 99.8004 433.675 99.7004 432.575 99.7004C431.975 99.7004 431.375 99.4004 431.375 98.8004C431.375 97.9004 432.175 97.6004 433.775 97.6004C438.775 97.6004 448.375 98.1004 449.075 98.1004C449.875 98.1004 459.375 97.6004 463.975 97.6004C465.675 97.6004 466.375 97.9004 466.375 98.8004C466.375 99.4004 465.775 99.7004 465.175 99.7004C464.075 99.7004 463.175 99.9004 461.375 100.2C457.275 101 456.075 103.5 455.775 108.9C455.475 113.8 455.475 118 455.475 141.7V168.3ZM509.575 141.6C509.575 117.9 509.575 113.6 509.275 108.8C508.975 103.6 507.775 101.2 502.775 100.1C501.575 99.8004 498.975 99.6004 497.575 99.6004C496.975 99.6004 496.375 99.3004 496.375 98.7004C496.375 97.8004 497.175 97.5004 498.775 97.5004C505.575 97.5004 515.175 98.0004 515.975 98.0004C519.575 98.0004 525.575 97.5004 532.575 97.5004C557.475 97.5004 562.975 112.7 562.975 120.3C562.975 132.8 555.875 140.2 548.675 147.6C559.875 151.1 574.975 161.9 574.975 179.7C574.975 196 562.175 212.8 536.275 212.8C534.575 212.8 529.775 212.5 525.375 212.3C520.975 212 516.675 211.8 516.075 211.8C515.775 211.8 513.175 211.8 509.975 212C506.975 212 503.475 212.3 501.175 212.3C499.475 212.3 498.775 212 498.775 211.1C498.775 210.6 499.075 210.2 499.975 210.2C501.375 210.2 503.175 209.9 504.575 209.6C507.575 209 508.375 205.7 508.975 201.2C509.775 194.8 509.775 182.8 509.775 168.2V141.6H509.575ZM521.675 144.9C521.675 146 521.975 146.3 522.775 146.6C523.675 146.8 526.375 147.2 532.075 147.2C540.575 147.2 542.675 146.9 545.875 143.3C549.075 139.7 551.375 134.2 551.375 128C551.375 115.4 545.775 101.9 530.875 101.9C529.175 101.9 525.975 102.1 523.575 102.7C522.175 103 521.775 103.5 521.775 104.4V144.9H521.675ZM521.675 161C521.675 172.7 521.675 191.5 521.875 193.8C522.375 201.2 522.375 203.4 527.075 205.6C531.175 207.6 537.675 207.9 540.475 207.9C548.675 207.9 561.875 203.5 561.875 186.3C561.875 177.2 558.875 164 547.175 155.9C541.975 152.4 538.175 151.9 534.575 151.5C532.575 151.2 524.975 151.2 522.775 151.2C522.175 151.2 521.875 151.5 521.875 152.3V161H521.675ZM611.675 141.6C611.675 117.9 611.675 113.6 611.375 108.8C611.075 103.6 609.875 101.2 604.875 100.1C603.675 99.8004 601.075 99.6004 599.675 99.6004C599.075 99.6004 598.475 99.3004 598.475 98.7004C598.475 97.8004 599.275 97.5004 600.875 97.5004C607.675 97.5004 617.275 98.0004 618.075 98.0004C619.775 98.0004 631.275 97.5004 635.975 97.5004C645.575 97.5004 655.675 98.4004 663.775 104.2C667.575 106.9 674.275 114.4 674.275 124.9C674.275 136.1 669.575 147.4 655.875 160C668.375 176 678.675 189.5 687.475 198.9C695.675 207.6 702.175 209.2 705.975 209.8C708.875 210.3 710.975 210.3 711.875 210.3C712.675 210.3 713.275 210.8 713.275 211.2C713.275 212.1 712.375 212.4 709.675 212.4H698.875C690.375 212.4 686.575 211.6 682.575 209.5C676.075 206 670.775 198.6 662.075 187.2C655.675 178.8 648.575 168.7 645.475 164.7C644.875 164.1 644.375 163.8 643.475 163.8L624.775 163.5C623.975 163.5 623.675 164 623.675 164.7V168.3C623.675 182.9 623.675 194.9 624.475 201.3C624.975 205.7 625.875 209 630.375 209.7C632.475 210 635.875 210.3 637.175 210.3C638.075 210.3 638.375 210.8 638.375 211.2C638.375 212 637.575 212.4 635.975 212.4C627.575 212.4 618.075 211.9 617.275 211.9C617.075 211.9 607.575 212.4 602.975 212.4C601.275 212.4 600.575 212.1 600.575 211.2C600.575 210.7 600.875 210.3 601.775 210.3C603.175 210.3 604.975 210 606.375 209.7C609.375 209.1 610.175 205.8 610.775 201.3C611.575 194.9 611.575 182.9 611.575 168.3V141.6H611.675ZM623.775 154.8C623.775 155.6 624.075 156.2 624.875 156.6C627.175 158 634.175 159 640.875 159C644.475 159 648.775 158.5 652.275 156.1C657.575 152.5 661.575 144.3 661.575 132.7C661.575 113.7 651.575 102.3 635.275 102.3C630.675 102.3 626.575 102.8 625.075 103.2C624.275 103.5 623.875 104.1 623.875 105V154.8H623.775Z" fill="white"/>
<path d="M748.775 101.3C750.575 96.3004 751.175 95.4004 752.075 95.4004C752.975 95.4004 753.575 96.2004 755.375 100.9C757.675 106.7 781.475 169.4 790.775 192.5C796.275 206 800.675 208.5 803.875 209.4C806.175 210.2 808.475 210.3 809.975 210.3C810.875 210.3 811.475 210.5 811.475 211.2C811.475 212.1 810.075 212.4 808.475 212.4C806.175 212.4 795.075 212.4 784.575 212.1C781.675 211.9 779.975 211.9 779.975 211C779.975 210.4 780.475 210.1 781.075 209.9C781.975 209.6 782.875 208.2 781.975 205.8L767.875 168.4C767.575 167.8 767.275 167.5 766.475 167.5H733.775C732.975 167.5 732.575 168 732.275 168.7L723.175 195.6C721.775 199.4 721.075 203 721.075 205.8C721.075 208.8 724.275 210.2 726.875 210.2H728.375C729.475 210.2 729.875 210.5 729.875 211.1C729.875 212 728.975 212.3 727.575 212.3C723.975 212.3 717.375 211.8 715.775 211.8C714.175 211.8 705.775 212.3 698.575 212.3C696.575 212.3 695.675 212 695.675 211.1C695.675 210.5 696.275 210.2 697.075 210.2C698.175 210.2 700.275 210 701.475 209.9C708.475 209 711.475 203.2 714.275 195.6L748.775 101.3ZM764.575 162.1C765.375 162.1 765.375 161.6 765.175 161L750.775 120C749.975 117.7 749.275 117.7 748.475 120L735.075 161C734.775 161.8 735.075 162.1 735.575 162.1H764.575ZM833.275 141.6C833.275 117.9 833.275 113.6 832.975 108.8C832.675 103.6 831.475 101.2 826.475 100.1C825.275 99.8004 822.675 99.6004 821.275 99.6004C820.675 99.6004 820.075 99.3004 820.075 98.7004C820.075 97.8004 820.875 97.5004 822.475 97.5004C829.275 97.5004 838.875 98.0004 839.675 98.0004C841.375 98.0004 852.875 97.5004 857.575 97.5004C867.175 97.5004 877.275 98.4004 885.375 104.2C889.175 106.9 895.875 114.4 895.875 124.9C895.875 136.1 891.175 147.4 877.475 160C889.975 176 900.275 189.5 909.075 198.9C917.275 207.6 923.775 209.2 927.575 209.8C930.475 210.3 932.575 210.3 933.475 210.3C934.275 210.3 934.875 210.8 934.875 211.2C934.875 212.1 933.975 212.4 931.275 212.4H920.475C911.975 212.4 908.175 211.6 904.175 209.5C897.675 206 892.375 198.6 883.675 187.2C877.275 178.8 870.175 168.7 867.075 164.7C866.475 164.1 865.975 163.8 865.075 163.8L846.375 163.5C845.575 163.5 845.275 164 845.275 164.7V168.3C845.275 182.9 845.275 194.9 846.075 201.3C846.575 205.7 847.475 209 851.975 209.7C854.075 210 857.475 210.3 858.775 210.3C859.675 210.3 859.975 210.8 859.975 211.2C859.975 212 859.175 212.4 857.575 212.4C849.175 212.4 839.675 211.9 838.875 211.9C838.675 211.9 829.175 212.4 824.575 212.4C822.875 212.4 822.175 212.1 822.175 211.2C822.175 210.7 822.475 210.3 823.375 210.3C824.775 210.3 826.575 210 827.975 209.7C830.975 209.1 831.775 205.8 832.375 201.3C833.175 194.9 833.175 182.9 833.175 168.3V141.6H833.275ZM845.475 154.8C845.475 155.6 845.775 156.2 846.575 156.6C848.875 158 855.875 159 862.575 159C866.175 159 870.475 158.5 873.975 156.1C879.275 152.5 883.275 144.3 883.275 132.7C883.275 113.7 873.275 102.3 856.975 102.3C852.375 102.3 848.275 102.8 846.775 103.2C845.975 103.5 845.575 104.1 845.575 105V154.8H845.475ZM961.675 173C961.675 164.8 960.175 161.5 958.175 157C957.075 154.6 936.775 121.1 931.475 113.2C927.675 107.6 923.875 103.8 921.175 102C918.875 100.5 915.975 99.6004 914.675 99.6004C913.875 99.6004 913.175 99.3004 913.175 98.5004C913.175 97.9004 913.775 97.4004 915.175 97.4004C918.075 97.4004 929.475 97.9004 930.175 97.9004C931.275 97.9004 936.975 97.4004 942.975 97.4004C944.675 97.4004 944.975 97.9004 944.975 98.5004C944.975 99.1004 944.075 99.3004 942.675 99.9004C941.475 100.5 940.675 101.4 940.675 102.6C940.675 104.4 941.475 106.2 942.675 108.5C945.075 112.9 967.875 152.1 970.675 156.5C973.575 150.1 992.875 116.8 995.875 111.8C997.875 108.6 998.475 106 998.475 104.1C998.475 102 997.875 100.3 996.075 99.8004C994.675 99.3004 993.775 99.0004 993.775 98.3004C993.775 97.7004 994.675 97.4004 996.175 97.4004C1000.07 97.4004 1004.97 97.9004 1006.17 97.9004C1007.07 97.9004 1017.97 97.4004 1020.87 97.4004C1021.97 97.4004 1022.87 97.7004 1022.87 98.3004C1022.87 99.1004 1022.07 99.5004 1020.87 99.5004C1019.17 99.5004 1016.27 100.1 1013.87 101.6C1010.87 103.4 1009.17 105.2 1005.77 109.3C1000.77 115.4 979.475 151.1 976.775 157.6C974.475 163.1 974.475 167.8 974.475 172.8V185.9C974.475 188.3 974.475 194.7 974.975 201.1C975.275 205.5 976.675 208.8 981.175 209.5C983.275 209.8 986.675 210.1 987.975 210.1C988.875 210.1 989.175 210.6 989.175 211C989.175 211.8 988.375 212.2 986.775 212.2C978.375 212.2 968.875 211.7 968.075 211.7C967.275 211.7 957.775 212.2 953.175 212.2C951.475 212.2 950.775 211.9 950.775 211C950.775 210.5 951.075 210.1 951.975 210.1C953.375 210.1 955.175 209.8 956.575 209.5C959.575 208.9 960.975 205.6 961.275 201.1C961.775 194.7 961.775 188.3 961.775 185.9V173H961.675Z" fill="white"/>
</svg>
