<?xml version="1.0" encoding="utf-8"?>
<!-- Generator: Adobe Illustrator 22.1.0, SVG Export Plug-In . SVG Version: 6.00 Build 0)  -->
<svg version="1.1" xmlns="http://www.w3.org/2000/svg" xmlns:xlink="http://www.w3.org/1999/xlink" x="0px" y="0px"
	 viewBox="55 15 1045.2 235" style="enable-background:new 0 0 1145.2 315.3;" xml:space="preserve">
<style type="text/css">
	.st0{fill:none;stroke:#D3CCB0;stroke-width:5;stroke-miterlimit:10;}
	.st1{fill:#518ABE;}
	.st2{fill:#FFFFFF;}
</style>
<g id="Layer_2">
</g>
<g id="Layer_2_copy">
	<g>
		<g>
			<g>
				<line class="st0" x1="401.3" y1="87" x2="1090.5" y2="87"/>
				<line class="st0" x1="400.4" y1="263.9" x2="1089.6" y2="263.9"/>
			</g>
			<g>
				<g>
					<line class="st0" x1="86.3" y1="117.2" x2="236.3" y2="34.6"/>
					<line class="st0" x1="236.5" y1="28.8" x2="360.2" y2="103.1"/>
				</g>
				<g>
					<path class="st1" d="M357.7,223.1L99.6,242.5c-14.8,1.1-27.8-10.1-28.9-24.9l-5.7-76.5c-1.1-14.8,10.1-27.8,24.9-28.9
						l258.1-19.4c14.8-1.1,27.8,10.1,28.9,24.9l5.7,76.5C383.7,209,372.5,222,357.7,223.1z"/>
					<g>
						<path class="st2" d="M115,137.4c7.5-0.6,14.1,0.5,19.8,3.1c5.6,2.7,10.1,6.7,13.3,12.1c3.2,5.4,5.1,12,5.7,19.6
							c0.4,5.6,0,10.8-1.1,15.5c-1.2,4.7-3.2,8.9-6,12.5c-2.8,3.6-6.3,6.5-10.6,8.6s-9.3,3.4-15,3.8c-5.7,0.4-10.9-0.1-15.5-1.6
							c-4.6-1.5-8.6-3.8-11.9-6.9c-3.3-3.1-5.8-7-7.7-11.6c-1.9-4.6-3-9.6-3.5-15.1c-0.4-5.6,0-10.8,1.3-15.6
							c1.3-4.8,3.3-8.9,6.1-12.4c2.8-3.5,6.3-6.3,10.6-8.4S109.4,137.8,115,137.4z M138.8,173.3c-0.4-5.3-1.6-9.9-3.6-13.7
							c-2-3.8-4.7-6.5-8-8.3c-3.3-1.8-7.1-2.5-11.2-2.2c-2.9,0.2-5.6,1-8,2.3c-2.4,1.3-4.4,3.1-6.1,5.3c-1.6,2.3-2.9,5.1-3.7,8.4
							c-0.8,3.4-1,7.1-0.7,11.2c0.3,4.1,1.1,7.8,2.4,11.1c1.3,3.3,3,5.9,5,8c2.1,2.1,4.4,3.5,6.9,4.4c2.5,0.9,5.3,1.3,8.2,1
							c3.8-0.3,7.2-1.5,10.2-3.6c3-2.1,5.3-5.2,6.9-9.3C138.6,183.9,139.2,179,138.8,173.3z"/>
						<path class="st2" d="M195.2,177.3l-13.5,1l1.5,20.6c0.2,2.9-0.3,5.2-1.6,6.9c-1.3,1.6-3,2.5-5.1,2.7c-2.2,0.2-4.1-0.5-5.5-1.9
							c-1.5-1.4-2.3-3.6-2.5-6.5l-4.2-56.1c-0.2-3.2,0.3-5.6,1.7-7.1c1.4-1.5,3.7-2.4,6.9-2.6l18.9-1.4c5.6-0.4,9.9-0.3,13,0.3
							c3,0.6,5.7,1.8,8,3.5c2.3,1.8,4.1,4,5.5,6.7c1.3,2.7,2.1,5.8,2.4,9.3c0.6,7.4-1.3,13.2-5.6,17.4
							C210.9,174.2,204.2,176.6,195.2,177.3z M189.1,144.2l-9.9,0.7l1.7,22.3l9.9-0.7c3.5-0.3,6.4-0.8,8.6-1.7c2.3-0.9,4-2.2,5.1-4
							c1.1-1.7,1.5-4,1.3-6.6c-0.2-3.2-1.4-5.8-3.4-7.6C200.1,144.5,195.7,143.7,189.1,144.2z"/>
						<path class="st2" d="M280.3,137.7l-33.2,2.5l1.3,17.9l30.6-2.3c2.3-0.2,4,0.2,5.2,1.1c1.2,0.9,1.8,2.2,2,3.9
							c0.1,1.7-0.3,3-1.3,4.2s-2.7,1.8-4.9,1.9l-30.6,2.3l1.6,20.7l34.4-2.6c2.3-0.2,4.1,0.2,5.4,1.2c1.3,1,2,2.4,2.1,4.2
							c0.1,1.7-0.4,3.2-1.4,4.3c-1.1,1.2-2.8,1.8-5.1,2l-40.1,3c-3.2,0.2-5.6-0.3-7.1-1.6s-2.4-3.6-2.6-6.7l-4.1-54.7
							c-0.2-2.1,0-3.9,0.6-5.3c0.5-1.4,1.4-2.4,2.7-3.2s3-1.1,5.1-1.3l38.9-2.9c2.3-0.2,4.1,0.2,5.4,1.2c1.2,1,1.9,2.3,2,4
							c0.1,1.7-0.3,3.1-1.4,4.3C284.3,136.8,282.6,137.5,280.3,137.7z"/>
						<path class="st2" d="M319.1,131l31.6,40.8l-3.2-43.3c-0.2-2.8,0.2-5,1.3-6.5c1.1-1.5,2.7-2.3,4.7-2.5c2.1-0.2,3.8,0.4,5.2,1.7
							c1.3,1.3,2.1,3.4,2.3,6.2l4.3,57.3c0.5,6.4-1.9,9.8-7.2,10.2c-1.3,0.1-2.5,0-3.6-0.3c-1.1-0.3-2.1-0.8-3.1-1.6
							c-1-0.8-1.9-1.7-2.8-2.7c-0.9-1-1.8-2.1-2.6-3.2L315,146.7l3.2,42.7c0.2,2.8-0.3,4.9-1.5,6.5c-1.2,1.5-2.8,2.4-4.8,2.5
							c-2.1,0.2-3.8-0.4-5.2-1.8c-1.4-1.3-2.2-3.4-2.4-6.1l-4.2-56.2c-0.2-2.4-0.1-4.3,0.4-5.7c0.5-1.5,1.5-2.8,2.9-3.9
							c1.4-1.1,2.9-1.6,4.6-1.8c1.3-0.1,2.5,0,3.5,0.4c1,0.4,1.8,0.9,2.6,1.6c0.8,0.7,1.6,1.6,2.4,2.7
							C317.3,128.6,318.2,129.8,319.1,131z"/>
					</g>
				</g>
				<circle cx="239.4" cy="29.5" r="12.3"/>
			</g>
		</g>
		<g>
			<path d="M430.5,185.8c0,22.3,0.6,32.1,3.3,34.8c2.4,2.4,6.4,3.5,18.2,3.5c8.1,0,14.7-0.2,18.4-4.6c2-2.4,3.5-6.2,3.9-9.1
				c0.2-1.2,0.5-2,1.4-2c0.8,0,0.9,0.6,0.9,2.3s-1.1,10.8-2.3,15.2c-1.1,3.5-1.5,4.1-9.6,4.1c-10.9,0-18.8-0.3-25.2-0.5
				c-6.4-0.3-11.1-0.5-15.5-0.5c-0.6,0-3.2,0.2-6.2,0.2c-3,0.2-6.4,0.3-8.7,0.3c-1.7,0-2.4-0.3-2.4-1.2c0-0.5,0.3-0.9,1.2-0.9
				c1.4,0,3.2-0.3,4.6-0.6c3-0.6,3.8-3.9,4.4-8.4c0.8-6.4,0.8-18.4,0.8-33v-26.7c0-23.7,0-28-0.3-32.8c-0.3-5.2-1.5-7.6-6.5-8.7
				c-1.2-0.3-3.8-0.5-5.2-0.5c-0.6,0-1.2-0.3-1.2-0.9c0-0.9,0.8-1.2,2.4-1.2c6.8,0,16.4,0.5,17.2,0.5c0.8,0,11.8-0.5,16.4-0.5
				c1.7,0,2.4,0.3,2.4,1.2c0,0.6-0.6,0.9-1.2,0.9c-1.1,0-3.2,0.2-5,0.5c-4.4,0.8-5.6,3.3-5.9,8.7c-0.3,4.9-0.3,9.1-0.3,32.8V185.8z"
				/>
			<path d="M520.4,185.5c0,14.6,0,26.6,0.8,33c0.5,4.4,1.4,7.7,5.9,8.4c2.1,0.3,5.5,0.6,6.8,0.6c0.9,0,1.2,0.5,1.2,0.9
				c0,0.8-0.8,1.2-2.4,1.2c-8.4,0-17.9-0.5-18.7-0.5c-0.8,0-10.3,0.5-14.9,0.5c-1.7,0-2.4-0.3-2.4-1.2c0-0.5,0.3-0.9,1.2-0.9
				c1.4,0,3.2-0.3,4.6-0.6c3-0.6,3.8-3.9,4.4-8.4c0.8-6.4,0.8-18.4,0.8-33v-26.7c0-23.7,0-28-0.3-32.8c-0.3-5.2-1.8-7.7-5.2-8.5
				c-1.7-0.5-3.6-0.6-4.7-0.6c-0.6,0-1.2-0.3-1.2-0.9c0-0.9,0.8-1.2,2.4-1.2c5,0,14.6,0.5,15.3,0.5c0.8,0,10.3-0.5,14.9-0.5
				c1.7,0,2.4,0.3,2.4,1.2c0,0.6-0.6,0.9-1.2,0.9c-1.1,0-2,0.2-3.8,0.5c-4.1,0.8-5.3,3.3-5.6,8.7c-0.3,4.9-0.3,9.1-0.3,32.8V185.5z"
				/>
			<path d="M574.5,158.8c0-23.7,0-28-0.3-32.8c-0.3-5.2-1.5-7.6-6.5-8.7c-1.2-0.3-3.8-0.5-5.2-0.5c-0.6,0-1.2-0.3-1.2-0.9
				c0-0.9,0.8-1.2,2.4-1.2c6.8,0,16.4,0.5,17.2,0.5c3.6,0,9.6-0.5,16.6-0.5c24.9,0,30.4,15.2,30.4,22.8c0,12.5-7.1,19.9-14.3,27.3
				c11.2,3.5,26.3,14.3,26.3,32.1c0,16.3-12.8,33.1-38.7,33.1c-1.7,0-6.5-0.3-10.9-0.5c-4.4-0.3-8.7-0.5-9.3-0.5
				c-0.3,0-2.9,0-6.1,0.2c-3,0-6.5,0.3-8.8,0.3c-1.7,0-2.4-0.3-2.4-1.2c0-0.5,0.3-0.9,1.2-0.9c1.4,0,3.2-0.3,4.6-0.6
				c3-0.6,3.8-3.9,4.4-8.4c0.8-6.4,0.8-18.4,0.8-33V158.8z M586.6,162.1c0,1.1,0.3,1.4,1.1,1.7c0.9,0.2,3.6,0.6,9.3,0.6
				c8.5,0,10.6-0.3,13.8-3.9s5.5-9.1,5.5-15.3c0-12.6-5.6-26.1-20.5-26.1c-1.7,0-4.9,0.2-7.3,0.8c-1.4,0.3-1.8,0.8-1.8,1.7V162.1z
				 M586.6,178.2c0,11.7,0,30.5,0.2,32.8c0.5,7.4,0.5,9.6,5.2,11.8c4.1,2,10.6,2.3,13.4,2.3c8.2,0,21.4-4.4,21.4-21.6
				c0-9.1-3-22.3-14.7-30.4c-5.2-3.5-9-4-12.6-4.4c-2-0.3-9.6-0.3-11.8-0.3c-0.6,0-0.9,0.3-0.9,1.1V178.2z"/>
			<path d="M676.6,158.8c0-23.7,0-28-0.3-32.8c-0.3-5.2-1.5-7.6-6.5-8.7c-1.2-0.3-3.8-0.5-5.2-0.5c-0.6,0-1.2-0.3-1.2-0.9
				c0-0.9,0.8-1.2,2.4-1.2c6.8,0,16.4,0.5,17.2,0.5c1.7,0,13.2-0.5,17.9-0.5c9.6,0,19.7,0.9,27.8,6.7c3.8,2.7,10.5,10.2,10.5,20.7
				c0,11.2-4.7,22.5-18.4,35.1c12.5,16,22.8,29.5,31.6,38.9c8.2,8.7,14.7,10.3,18.5,10.9c2.9,0.5,5,0.5,5.9,0.5
				c0.8,0,1.4,0.5,1.4,0.9c0,0.9-0.9,1.2-3.6,1.2h-10.8c-8.5,0-12.3-0.8-16.3-2.9c-6.5-3.5-11.8-10.9-20.5-22.3
				c-6.4-8.4-13.5-18.5-16.6-22.5c-0.6-0.6-1.1-0.9-2-0.9l-18.7-0.3c-0.8,0-1.1,0.5-1.1,1.2v3.6c0,14.6,0,26.6,0.8,33
				c0.5,4.4,1.4,7.7,5.9,8.4c2.1,0.3,5.5,0.6,6.8,0.6c0.9,0,1.2,0.5,1.2,0.9c0,0.8-0.8,1.2-2.4,1.2c-8.4,0-17.9-0.5-18.7-0.5
				c-0.2,0-9.7,0.5-14.3,0.5c-1.7,0-2.4-0.3-2.4-1.2c0-0.5,0.3-0.9,1.2-0.9c1.4,0,3.2-0.3,4.6-0.6c3-0.6,3.8-3.9,4.4-8.4
				c0.8-6.4,0.8-18.4,0.8-33V158.8z M688.7,172c0,0.8,0.3,1.4,1.1,1.8c2.3,1.4,9.3,2.4,16,2.4c3.6,0,7.9-0.5,11.4-2.9
				c5.3-3.6,9.3-11.8,9.3-23.4c0-19-10-30.4-26.3-30.4c-4.6,0-8.7,0.5-10.2,0.9c-0.8,0.3-1.2,0.9-1.2,1.8V172z"/>
			<path d="M813.7,118.5c1.8-5,2.4-5.9,3.3-5.9c0.9,0,1.5,0.8,3.3,5.5c2.3,5.8,26.1,68.5,35.4,91.6c5.5,13.5,9.9,16,13.1,16.9
				c2.3,0.8,4.6,0.9,6.1,0.9c0.9,0,1.5,0.2,1.5,0.9c0,0.9-1.4,1.2-3,1.2c-2.3,0-13.4,0-23.9-0.3c-2.9-0.2-4.6-0.2-4.6-1.1
				c0-0.6,0.5-0.9,1.1-1.1c0.9-0.3,1.8-1.7,0.9-4.1l-14.1-37.4c-0.3-0.6-0.6-0.9-1.4-0.9h-32.7c-0.8,0-1.2,0.5-1.5,1.2l-9.1,26.9
				c-1.4,3.8-2.1,7.4-2.1,10.2c0,3,3.2,4.4,5.8,4.4h1.5c1.1,0,1.5,0.3,1.5,0.9c0,0.9-0.9,1.2-2.3,1.2c-3.6,0-10.2-0.5-11.8-0.5
				s-10,0.5-17.2,0.5c-2,0-2.9-0.3-2.9-1.2c0-0.6,0.6-0.9,1.4-0.9c1.1,0,3.2-0.2,4.4-0.3c7-0.9,10-6.7,12.8-14.3L813.7,118.5z
				 M829.5,179.3c0.8,0,0.8-0.5,0.6-1.1l-14.4-41c-0.8-2.3-1.5-2.3-2.3,0l-13.4,41c-0.3,0.8,0,1.1,0.5,1.1H829.5z"/>
			<path d="M898.2,158.8c0-23.7,0-28-0.3-32.8c-0.3-5.2-1.5-7.6-6.5-8.7c-1.2-0.3-3.8-0.5-5.2-0.5c-0.6,0-1.2-0.3-1.2-0.9
				c0-0.9,0.8-1.2,2.4-1.2c6.8,0,16.4,0.5,17.2,0.5c1.7,0,13.2-0.5,17.9-0.5c9.6,0,19.7,0.9,27.8,6.7c3.8,2.7,10.5,10.2,10.5,20.7
				c0,11.2-4.7,22.5-18.4,35.1c12.5,16,22.8,29.5,31.6,38.9c8.2,8.7,14.7,10.3,18.5,10.9c2.9,0.5,5,0.5,5.9,0.5
				c0.8,0,1.4,0.5,1.4,0.9c0,0.9-0.9,1.2-3.6,1.2h-10.8c-8.5,0-12.3-0.8-16.3-2.9c-6.5-3.5-11.8-10.9-20.5-22.3
				c-6.4-8.4-13.5-18.5-16.6-22.5c-0.6-0.6-1.1-0.9-2-0.9l-18.7-0.3c-0.8,0-1.1,0.5-1.1,1.2v3.6c0,14.6,0,26.6,0.8,33
				c0.5,4.4,1.4,7.7,5.9,8.4c2.1,0.3,5.5,0.6,6.8,0.6c0.9,0,1.2,0.5,1.2,0.9c0,0.8-0.8,1.2-2.4,1.2c-8.4,0-17.9-0.5-18.7-0.5
				c-0.2,0-9.7,0.5-14.3,0.5c-1.7,0-2.4-0.3-2.4-1.2c0-0.5,0.3-0.9,1.2-0.9c1.4,0,3.2-0.3,4.6-0.6c3-0.6,3.8-3.9,4.4-8.4
				c0.8-6.4,0.8-18.4,0.8-33V158.8z M910.4,172c0,0.8,0.3,1.4,1.1,1.8c2.3,1.4,9.3,2.4,16,2.4c3.6,0,7.9-0.5,11.4-2.9
				c5.3-3.6,9.3-11.8,9.3-23.4c0-19-10-30.4-26.3-30.4c-4.6,0-8.7,0.5-10.2,0.9c-0.8,0.3-1.2,0.9-1.2,1.8V172z"/>
			<path d="M1026.6,190.2c0-8.2-1.5-11.5-3.5-16c-1.1-2.4-21.4-35.9-26.7-43.8c-3.8-5.6-7.6-9.4-10.3-11.2c-2.3-1.5-5.2-2.4-6.5-2.4
				c-0.8,0-1.5-0.3-1.5-1.1c0-0.6,0.6-1.1,2-1.1c2.9,0,14.3,0.5,15,0.5c1.1,0,6.8-0.5,12.8-0.5c1.7,0,2,0.5,2,1.1s-0.9,0.8-2.3,1.4
				c-1.2,0.6-2,1.5-2,2.7c0,1.8,0.8,3.6,2,5.9c2.4,4.4,25.2,43.6,28,48c2.9-6.4,22.2-39.7,25.2-44.7c2-3.2,2.6-5.8,2.6-7.7
				c0-2.1-0.6-3.8-2.4-4.3c-1.4-0.5-2.3-0.8-2.3-1.5c0-0.6,0.9-0.9,2.4-0.9c3.9,0,8.8,0.5,10,0.5c0.9,0,11.8-0.5,14.7-0.5
				c1.1,0,2,0.3,2,0.9c0,0.8-0.8,1.2-2,1.2c-1.7,0-4.6,0.6-7,2.1c-3,1.8-4.7,3.6-8.1,7.7c-5,6.1-26.3,41.8-29,48.3
				c-2.3,5.5-2.3,10.2-2.3,15.2v13.1c0,2.4,0,8.8,0.5,15.2c0.3,4.4,1.7,7.7,6.2,8.4c2.1,0.3,5.5,0.6,6.8,0.6c0.9,0,1.2,0.5,1.2,0.9
				c0,0.8-0.8,1.2-2.4,1.2c-8.4,0-17.9-0.5-18.7-0.5s-10.3,0.5-14.9,0.5c-1.7,0-2.4-0.3-2.4-1.2c0-0.5,0.3-0.9,1.2-0.9
				c1.4,0,3.2-0.3,4.6-0.6c3-0.6,4.4-3.9,4.7-8.4c0.5-6.4,0.5-12.8,0.5-15.2V190.2z"/>
		</g>
	</g>
</g>
</svg>
