<?xml version="1.0" encoding="UTF-8" standalone="no"?><svg xmlns="http://www.w3.org/2000/svg" viewBox="55 15 512 512" version="1.1" id="svg23" width="512" height="512"><g id="Layer_2_copy" transform="translate(-355.552 214.952)"><rect style="opacity:1;fill:#e2dcc5;fill-opacity:1;stroke:none;stroke-width:1.4480288;stroke-linecap:butt;stroke-linejoin:round;stroke-miterlimit:4;stroke-dasharray:none;stroke-dashoffset:0;stroke-opacity:1" id="rect31" width="512" height="512" x="410.552" y="-199.952" ry="3.494"/><g id="g14" transform="translate(408.982 -121.656) scale(1.15576)" style="stroke-width:1.08972156"><path d="m 86.3,117.2 150,-82.6 m 0.2,-5.8 123.7,74.3" id="path6" style="fill:none;stroke:#a5a7ab;stroke-width:5.68860579;stroke-miterlimit:10;stroke-opacity:1"/><path d="M 357.7,223.1 99.6,242.5 C 84.8,243.6 71.8,232.4 70.7,217.6 L 65,141.1 C 63.9,126.3 75.1,113.3 89.9,112.2 L 348,92.8 c 14.8,-1.1 27.8,10.1 28.9,24.9 l 5.7,76.5 c 1.1,14.8 -10.1,27.8 -24.9,28.9 z" id="path8" style="fill:#518abe;stroke-width:1.08972156"/><path d="m 115,137.4 c 7.5,-0.6 14.1,0.5 19.8,3.1 5.6,2.7 10.1,6.7 13.3,12.1 3.2,5.4 5.1,12 5.7,19.6 0.4,5.6 0,10.8 -1.1,15.5 -1.2,4.7 -3.2,8.9 -6,12.5 -2.8,3.6 -6.3,6.5 -10.6,8.6 -4.3,2.1 -9.3,3.4 -15,3.8 -5.7,0.4 -10.9,-0.1 -15.5,-1.6 -4.6,-1.5 -8.6,-3.8 -11.9,-6.9 -3.3,-3.1 -5.8,-7 -7.7,-11.6 -1.9,-4.6 -3,-9.6 -3.5,-15.1 -0.4,-5.6 0,-10.8 1.3,-15.6 1.3,-4.8 3.3,-8.9 6.1,-12.4 2.8,-3.5 6.3,-6.3 10.6,-8.4 4.3,-2.1 8.9,-3.2 14.5,-3.6 z m 23.8,35.9 c -0.4,-5.3 -1.6,-9.9 -3.6,-13.7 -2,-3.8 -4.7,-6.5 -8,-8.3 -3.3,-1.8 -7.1,-2.5 -11.2,-2.2 -2.9,0.2 -5.6,1 -8,2.3 -2.4,1.3 -4.4,3.1 -6.1,5.3 -1.6,2.3 -2.9,5.1 -3.7,8.4 -0.8,3.4 -1,7.1 -0.7,11.2 0.3,4.1 1.1,7.8 2.4,11.1 1.3,3.3 3,5.9 5,8 2.1,2.1 4.4,3.5 6.9,4.4 2.5,0.9 5.3,1.3 8.2,1 3.8,-0.3 7.2,-1.5 10.2,-3.6 3,-2.1 5.3,-5.2 6.9,-9.3 1.5,-4 2.1,-8.9 1.7,-14.6 z m 56.4,4 -13.5,1 1.5,20.6 c 0.2,2.9 -0.3,5.2 -1.6,6.9 -1.3,1.6 -3,2.5 -5.1,2.7 -2.2,0.2 -4.1,-0.5 -5.5,-1.9 -1.5,-1.4 -2.3,-3.6 -2.5,-6.5 L 164.3,144 c -0.2,-3.2 0.3,-5.6 1.7,-7.1 1.4,-1.5 3.7,-2.4 6.9,-2.6 l 18.9,-1.4 c 5.6,-0.4 9.9,-0.3 13,0.3 3,0.6 5.7,1.8 8,3.5 2.3,1.8 4.1,4 5.5,6.7 1.3,2.7 2.1,5.8 2.4,9.3 0.6,7.4 -1.3,13.2 -5.6,17.4 -4.2,4.1 -10.9,6.5 -19.9,7.2 z m -6.1,-33.1 -9.9,0.7 1.7,22.3 9.9,-0.7 c 3.5,-0.3 6.4,-0.8 8.6,-1.7 2.3,-0.9 4,-2.2 5.1,-4 1.1,-1.7 1.5,-4 1.3,-6.6 -0.2,-3.2 -1.4,-5.8 -3.4,-7.6 -2.3,-2.1 -6.7,-2.9 -13.3,-2.4 z m 91.2,-6.5 -33.2,2.5 1.3,17.9 30.6,-2.3 c 2.3,-0.2 4,0.2 5.2,1.1 1.2,0.9 1.8,2.2 2,3.9 0.1,1.7 -0.3,3 -1.3,4.2 -1,1.2 -2.7,1.8 -4.9,1.9 l -30.6,2.3 1.6,20.7 34.4,-2.6 c 2.3,-0.2 4.1,0.2 5.4,1.2 1.3,1 2,2.4 2.1,4.2 0.1,1.7 -0.4,3.2 -1.4,4.3 -1.1,1.2 -2.8,1.8 -5.1,2 l -40.1,3 c -3.2,0.2 -5.6,-0.3 -7.1,-1.6 -1.5,-1.3 -2.4,-3.6 -2.6,-6.7 L 232.5,139 c -0.2,-2.1 0,-3.9 0.6,-5.3 0.5,-1.4 1.4,-2.4 2.7,-3.2 1.3,-0.8 3,-1.1 5.1,-1.3 l 38.9,-2.9 c 2.3,-0.2 4.1,0.2 5.4,1.2 1.2,1 1.9,2.3 2,4 0.1,1.7 -0.3,3.1 -1.4,4.3 -1.5,1 -3.2,1.7 -5.5,1.9 z m 38.8,-6.7 31.6,40.8 -3.2,-43.3 c -0.2,-2.8 0.2,-5 1.3,-6.5 1.1,-1.5 2.7,-2.3 4.7,-2.5 2.1,-0.2 3.8,0.4 5.2,1.7 1.3,1.3 2.1,3.4 2.3,6.2 l 4.3,57.3 c 0.5,6.4 -1.9,9.8 -7.2,10.2 -1.3,0.1 -2.5,0 -3.6,-0.3 -1.1,-0.3 -2.1,-0.8 -3.1,-1.6 -1,-0.8 -1.9,-1.7 -2.8,-2.7 -0.9,-1 -1.8,-2.1 -2.6,-3.2 l -31,-40.4 3.2,42.7 c 0.2,2.8 -0.3,4.9 -1.5,6.5 -1.2,1.5 -2.8,2.4 -4.8,2.5 -2.1,0.2 -3.8,-0.4 -5.2,-1.8 -1.4,-1.3 -2.2,-3.4 -2.4,-6.1 l -4.2,-56.2 c -0.2,-2.4 -0.1,-4.3 0.4,-5.7 0.5,-1.5 1.5,-2.8 2.9,-3.9 1.4,-1.1 2.9,-1.6 4.6,-1.8 1.3,-0.1 2.5,0 3.5,0.4 1,0.4 1.8,0.9 2.6,1.6 0.8,0.7 1.6,1.6 2.4,2.7 0.8,1 1.7,2.2 2.6,3.4 z" id="path10" style="fill:#fff;stroke-width:1.08972156"/><circle cx="239.4" cy="29.5" r="12.3" id="circle12" style="stroke-width:1.08972156"/></g></g></svg>