<?xml version="1.0" ?><!DOCTYPE svg  PUBLIC '-//W3C//DTD SVG 1.1//EN'  'http://www.w3.org/Graphics/SVG/1.1/DTD/svg11.dtd'><svg height="100%" style="fill-rule:evenodd;clip-rule:evenodd;stroke-linejoin:round;stroke-miterlimit:2;" version="1.1" viewBox="0 0 512 512" width="100%" xml:space="preserve" xmlns="http://www.w3.org/2000/svg" xmlns:serif="http://www.serif.com/" xmlns:xlink="http://www.w3.org/1999/xlink"><g><path d="M511.999,256.002c0,141.373 -114.606,255.979 -255.98,255.979c-141.373,0 -255.979,-114.606 -255.979,-255.979c0,-141.374 114.606,-255.98 255.979,-255.98c141.374,0 255.98,114.606 255.98,255.98Z" style="fill:#fff;fill-rule:nonzero;"/><path d="M255.998,0.001c-141.384,0 -255.998,114.617 -255.998,255.998c0,108.456 67.475,201.171 162.707,238.471c-2.24,-20.255 -4.261,-51.405 0.889,-73.518c4.65,-19.978 30.018,-127.248 30.018,-127.248c0,0 -7.659,-15.334 -7.659,-38.008c0,-35.596 20.632,-62.171 46.323,-62.171c21.839,0 32.391,16.399 32.391,36.061c0,21.966 -13.984,54.803 -21.203,85.235c-6.03,25.482 12.779,46.261 37.909,46.261c45.503,0 80.477,-47.976 80.477,-117.229c0,-61.293 -44.045,-104.149 -106.932,-104.149c-72.841,0 -115.597,54.634 -115.597,111.095c0,22.004 8.475,45.596 19.052,58.421c2.09,2.535 2.398,4.758 1.776,7.343c-1.945,8.087 -6.262,25.474 -7.111,29.032c-1.117,4.686 -3.711,5.681 -8.561,3.424c-31.974,-14.884 -51.963,-61.627 -51.963,-99.174c0,-80.755 58.672,-154.915 169.148,-154.915c88.806,0 157.821,63.279 157.821,147.85c0,88.229 -55.629,159.232 -132.842,159.232c-25.94,0 -50.328,-13.476 -58.674,-29.394c0,0 -12.838,48.878 -15.95,60.856c-5.782,22.237 -21.382,50.109 -31.818,67.11c23.955,7.417 49.409,11.416 75.797,11.416c141.389,0 256.003,-114.612 256.003,-256.001c0,-141.381 -114.614,-255.998 -256.003,-255.998Z" style="fill:#e71d27;fill-rule:nonzero;"/></g></svg>