<?xml version="1.0" ?><!DOCTYPE svg  PUBLIC '-//W3C//DTD SVG 1.1//EN'  'http://www.w3.org/Graphics/SVG/1.1/DTD/svg11.dtd'><svg enable-background="new 0 0 136.5 135.595" height="135.595px" id="Layer_1" version="1.1" viewBox="0 0 136.5 135.595" width="136.5px" xml:space="preserve" xmlns="http://www.w3.org/2000/svg" xmlns:xlink="http://www.w3.org/1999/xlink"><g><g><g><g><circle cx="68.25" cy="67.797" fill="#D42128" r="63.333"/></g></g></g><g><g><g><path d="M113.033,23.014c24.733,24.732,24.734,64.832,0,89.567c-24.733,24.733-64.834,24.733-89.566,0      L113.033,23.014z" fill="#C62232"/></g></g><g><path d="M130.945,76.715L97.998,43.768l-8.667,8.667L77.998,41.102l-3.5,3.5l-7.667-7.667l-26.7,26.7l7.667,7.667     l-9.501,9.5l11.334,11.333l-2,2l6.166,6.167l-5.5,5.5L73.4,130.905C103,128.521,126.846,105.798,130.945,76.715z" fill="#B21F2F"/></g></g><path d="M51.273,37.358c-9.52,3.771-15.986,11.035-17.793,20.821c-1.109,6.012-0.688,12.567,1.965,18.18   c0.592,1.248,1.301,2.45,2.145,3.56c0.409,0.542,0.848,1.06,1.324,1.551c0.845-0.301,1.66-0.677,2.438-1.118   c3.218-1.816,5.592-4.615,8.348-6.966c-9.212-10.671,0.55-23.894,12.761-26.843c11.368-2.74,26.775,1.99,30.223,13.686   c1.426,4.844,0.492,10.199-3.458,13.707c-2.065,1.835-4.688,3.049-7.46,3.543c-1.619,0.287-3.281,0.332-4.918,0.171   c-0.912-0.092-1.818-0.246-2.711-0.456c-1.512-0.356-2.857-0.303-2.857-1.934c0-4.261,0-8.525,0-12.789c0-2.129,0-4.261,0-6.394   c0-1.307,0.128-1.062-0.956-1.196c-0.856-0.104-1.71-0.188-2.567-0.255c-3.016-0.236-6.169-0.398-9.16,0.117   c-1.119,0.193-1.19,0.013-1.19,1.227c0,0.983,0,1.965,0,2.946c0,2.39,0,4.779,0,7.169c0,7.142,0.538,14.369,0.243,21.499   c-0.086,2.125-0.145,7.224-2.523,8.277c-2.756,1.219-5.193-1.359-7.736-1.896c0.35,3.58-1.89,10.671,2.283,12.478   c3.826,1.657,8.229,2.274,12.262,0.906c8.451-2.867,11.184-12.271,10.113-19.999c13.045,3.898,27.125-2.623,32.703-14.402   c3.973-8.388,2.295-18.807-3.686-25.938C89.863,33.647,67.126,31.084,51.273,37.358z" fill="#FFFFFF" id="Path"/></g></svg>