<svg height="135.595" width="136.5" xmlns="http://www.w3.org/2000/svg"><circle cx="68.25" cy="67.797" fill="#D42128" r="63.333"/><path d="M113.033 23.014c24.733 24.732 24.734 64.832 0 89.567-24.733 24.733-64.834 24.733-89.566 0l89.566-89.567z" fill="#C62232"/><path d="M130.945 76.715L97.998 43.768l-8.667 8.667-11.333-11.333-3.5 3.5-7.667-7.667-26.7 26.7 7.667 7.667-9.501 9.5 11.334 11.333-2 2 6.166 6.167-5.5 5.5L73.4 130.905c29.6-2.384 53.446-25.107 57.545-54.19z" fill="#B21F2F"/><path d="M51.273 37.358c-9.52 3.771-15.986 11.035-17.793 20.821-1.109 6.012-.688 12.567 1.965 18.18a20.112 20.112 0 0 0 2.145 3.56c.409.542.848 1.06 1.324 1.551.845-.301 1.66-.677 2.438-1.118 3.218-1.816 5.592-4.615 8.348-6.966-9.212-10.671.55-23.894 12.761-26.843 11.368-2.74 26.775 1.99 30.223 13.686 1.426 4.844.492 10.199-3.458 13.707-2.065 1.835-4.688 3.049-7.46 3.543a18.088 18.088 0 0 1-4.918.171 21.1 21.1 0 0 1-2.711-.456c-1.512-.356-2.857-.303-2.857-1.934V62.471v-6.394c0-1.307.128-1.062-.956-1.196a60.091 60.091 0 0 0-2.567-.255c-3.016-.236-6.169-.398-9.16.117-1.119.193-1.19.013-1.19 1.227v10.115c0 7.142.538 14.369.243 21.499-.086 2.125-.145 7.224-2.523 8.277-2.756 1.219-5.193-1.359-7.736-1.896.35 3.58-1.89 10.671 2.283 12.478 3.826 1.657 8.229 2.274 12.262.906 8.451-2.867 11.184-12.271 10.113-19.999 13.045 3.898 27.125-2.623 32.703-14.402 3.973-8.388 2.295-18.807-3.686-25.938-11.203-13.363-33.94-15.926-49.793-9.652z" fill="#FFF"/></svg>