<svg width="400" height="400" xmlns="http://www.w3.org/2000/svg"><path d="M265.8 69.259c-16.966 1.876-19.903 2.466-21.6 4.342-1.209 1.335-3.677 2.608-6.921 3.569-2.622.777-3.051 1.052-4.2 2.689-.879 1.253-2.002 2.189-3.59 2.993-1.766.895-2.594 1.631-3.515 3.129-.663 1.077-1.827 2.325-2.588 2.774-.76.448-1.968 1.671-2.684 2.717-.716 1.046-1.735 2.268-2.265 2.715-2.869 2.421-3.553 3.321-4.187 5.502-.407 1.399-1.413 3.259-2.602 4.81-2.717 3.545-3.092 4.423-3.627 8.501-.471 3.585-1.357 6.54-3.389 11.306-1.849 4.336-2.366 12.859-1.175 19.368 1.615 8.832-3.325 14.568-10.057 11.676-4.993-2.145-7.183-2.548-17.2-3.167-14.966-.926-16.962-1.32-20.117-3.974-1.519-1.279-2.458-1.6-7.509-2.566-4.486-.859-5.639-1.306-9.314-3.61-1.397-.877-3.467-1.778-4.6-2.003-8.455-1.679-8.285-1.621-10.304-3.51-1.608-1.504-2.528-1.976-5.639-2.891-4.772-1.403-6.04-2.086-7.119-3.832-.875-1.415-2.53-2.479-5.199-3.341-.77-.249-2.39-1.27-3.6-2.269-1.209-.999-3.819-2.617-5.799-3.595-2.638-1.304-3.862-2.166-4.579-3.225-.725-1.072-1.821-1.836-4.233-2.95-1.891-.874-4.174-2.337-5.45-3.492-1.208-1.094-3.016-2.553-4.017-3.242-1.002-.689-2.578-2.157-3.504-3.262-.925-1.106-3.769-4.037-6.319-6.515a785.424 785.424 0 0 1-6.501-6.381c-2.69-2.705-7.583-6.725-8.184-6.725-.873 0-1.268.859-2.208 4.8-.499 2.09-1.414 5.06-2.034 6.6-3.82 9.487-4.643 15.421-3.385 24.4.64 4.572.951 5.724 2.21 8.192 1.343 2.632 2.322 5.707 3.044 9.56.742 3.961 2.021 6.748 4.176 9.101.911.995 1.796 2.548 2.223 3.904.715 2.269 1.267 3.081 3.044 4.48.533.42 1.546 1.573 2.253 2.563.706.99 2.224 2.528 3.374 3.418 1.181.914 2.542 2.448 3.13 3.528.572 1.052 1.877 2.68 2.9 3.619 3.834 3.52 2.168 6.21-4.356 7.037-5.54.702-9.346-.137-13.316-2.935-2.049-1.444-6.838-2.322-7.892-1.447-.987.819-.551 3.838 1.2 8.318.798 2.044 1.815 5.279 2.258 7.189 1.5 6.463 2.296 8.364 4.562 10.903 1.451 1.627 2.253 2.941 2.575 4.22.955 3.795 6.511 10.154 13.229 15.144 1.43 1.062 3.5 2.873 4.6 4.023 1.366 1.428 2.634 2.313 4 2.791 1.1.384 2.907 1.387 4.016 2.229 1.561 1.185 3.13 1.848 6.96 2.94 14.436 4.116 9.331 10.624-9.481 12.085-4.284.333-4.666.627-4.665 3.595.002 3.801 1.124 6.688 3.716 9.557 1.239 1.373 2.614 3.089 3.054 3.814.44.725 1.61 1.883 2.6 2.574.99.691 2.447 2.226 3.237 3.411s2.202 2.632 3.138 3.214c.935.583 2.362 1.935 3.171 3.004 1.341 1.774 1.732 2.019 4.462 2.783 3.86 1.081 5.779 2.017 6.922 3.376 1.589 1.888 2.714 2.33 8.575 3.37 7.34 1.302 8.439 1.611 11.858 3.336 8.533 4.306 9.559 9.327 2.437 11.93-1.381.505-2.742 1.489-4.4 3.181-1.994 2.036-2.929 2.649-5.53 3.622-2.059.77-3.854 1.798-5.246 3.003-2.152 1.864-3.81 2.512-9.148 3.573-1.835.364-2.75.839-4.343 2.255-2.546 2.261-2.657 2.3-10.016 3.528-5.335.891-6.577 1.25-9.717 2.807-5.384 2.669-7.11 2.95-21.2 3.451-16.514.587-17.731.912-12.443 3.322 1.82.829 3.302 1.815 3.856 2.564 1.071 1.449 1.705 1.719 7.187 3.06 2.926.716 4.685 1.39 5.8 2.219 2.803 2.087 5.671 3.222 10.647 4.214 3.002.599 5.476 1.34 6.5 1.947 3.88 2.302 4.817 2.662 8.342 3.201 2.041.312 6.414.764 9.717 1.004 3.304.239 6.634.609 7.4.82.767.212 3.374.743 5.794 1.18 2.42.438 5.66 1.058 7.2 1.379 11.877 2.475 24.026 2.479 35.2.012 6.599-1.458 9.008-1.81 20.245-2.958 14.503-1.481 15.548-1.674 18.449-3.402 3.178-1.893 5.075-2.471 9.934-3.026 5.997-.686 8.06-1.353 11.53-3.729 1.981-1.357 3.976-2.345 5.652-2.799 4.057-1.098 5.635-1.802 7.822-3.484 1.638-1.259 2.919-1.793 6.6-2.75 4.42-1.148 4.626-1.251 6.368-3.178a12.107 12.107 0 0 1 4.2-3.035c1.366-.594 3.261-1.881 4.4-2.989 1.1-1.069 3.44-2.698 5.2-3.619 1.76-.921 3.992-2.468 4.96-3.437.969-.969 1.916-1.762 2.105-1.762 1.313 0 4.032-1.872 5.022-3.457.63-1.007 1.94-2.293 3.017-2.961 1.191-.738 2.428-1.999 3.303-3.365.891-1.393 2.054-2.571 3.207-3.246.995-.584 2.357-1.856 3.025-2.828.669-.973 1.879-2.206 2.689-2.741 2.269-1.498 2.664-1.879 3.774-3.643.568-.902 1.776-2.229 2.684-2.948.973-.771 2.138-2.272 2.837-3.657.807-1.599 1.707-2.693 2.819-3.429 1.167-.773 1.96-1.771 2.783-3.503.633-1.332 2.141-3.552 3.35-4.933 1.21-1.381 2.85-3.631 3.645-5 .795-1.369 2.227-3.299 3.182-4.289 1.274-1.32 1.918-2.44 2.417-4.2.913-3.219 1.425-4.147 3.758-6.813 1.204-1.375 2.251-3.08 2.659-4.328.938-2.871 1.673-4.267 2.981-5.659 1.566-1.666 3.017-4.757 3.569-7.6.769-3.963 1.561-5.985 3.211-8.196 1.044-1.399 1.723-2.853 2.033-4.352 1.614-7.812 2.03-9.111 3.924-12.252 2.504-4.152 2.363-3.621 3.065-11.549.743-8.4 1.528-12.85 2.827-16.025 1.629-3.985 2.544-11.993 2.971-26.026.465-15.263.734-16.574 3.711-18.138 1.184-.622 2.841-2.141 5.01-4.593.515-.583 1.821-1.541 2.901-2.129 1.081-.588 2.456-1.715 3.056-2.505.6-.789 1.631-1.885 2.291-2.435.659-.55 1.832-1.719 2.606-2.597a72.382 72.382 0 0 1 3.046-3.2c2.651-2.594 3.118-4.246 1.356-4.805-1.528-.485-12.903.988-16.004 2.072-5.854 2.046-7.894.742-7.258-4.639.5-4.225 1.113-5.336 3.655-6.624 1.024-.519 2.709-1.935 3.744-3.147 1.035-1.211 2.515-2.594 3.288-3.072.773-.478 2.098-1.886 2.945-3.128.846-1.243 1.937-2.618 2.424-3.056 1.245-1.117 1.608-1.92 2.023-4.473.638-3.917-.486-4.717-3.004-2.139-1.735 1.778-3.701 2.558-8.156 3.236-3.773.574-6.878 1.647-8.625 2.979-5.542 4.227-18.342 4.503-21.567.465-1.885-2.361-3.07-3.44-4.551-4.142-.734-.349-2.156-1.595-3.159-2.769-1.66-1.943-2.122-2.226-5.114-3.139-1.809-.552-3.907-1.452-4.662-2.001-4.148-3.015-4.063-2.979-8.528-3.606-13.751-1.93-21.286-2.415-27.245-1.756" fill="#fcfcfb" fill-rule="evenodd"/></svg>