<svg height="133.608" width="134.5" xmlns="http://www.w3.org/2000/svg"><circle cx="67.25" cy="66.805" fill="#16B4CA" r="63.333"/><path d="M112.034 22.021c24.732 24.732 24.733 64.832-.001 89.566-24.733 24.733-64.834 24.733-89.566 0l89.567-89.566z" fill="#13ACB7"/><path d="M126.512 89.161L91.453 54.103l-6.313 6.313-27.687-27.688-13.029 13.029L56.237 57.57l-9.438 9.438 15.875 15.875-12.583 12.582 32.737 32.737c20.146-5.097 36.438-19.847 43.684-39.041z" fill="#10A2A5"/><path d="M86.704 84.421H68.643c-2.512 0-4.646-.878-6.4-2.643-1.761-1.766-2.633-3.901-2.633-6.424v-6.428h25.736c2.32 0 4.319-.834 5.98-2.492 1.66-1.67 2.493-3.667 2.493-5.991 0-2.331-.833-4.326-2.498-5.99-1.666-1.66-3.671-2.494-6.002-2.494h-25.71V38.68c0-2.513-.896-4.666-2.678-6.458-1.771-1.795-3.913-2.696-6.403-2.696-2.56 0-4.736.887-6.511 2.643-1.777 1.762-2.665 3.932-2.665 6.518v36.671c0 7.543 2.665 13.987 8.002 19.336 5.338 5.357 11.774 8.03 19.298 8.03h18.059c2.506 0 4.658-.901 6.448-2.697 1.791-1.787 2.685-3.943 2.685-6.453 0-2.512-.894-4.664-2.685-6.459-1.79-1.789-3.945-2.694-6.455-2.694z" fill="#FFF"/></svg>