<?xml version="1.0" standalone="no"?>
<!DOCTYPE svg PUBLIC "-//W3C//DTD SVG 20010904//EN"
 "http://www.w3.org/TR/2001/REC-SVG-20010904/DTD/svg10.dtd">
<svg version="1.0" xmlns="http://www.w3.org/2000/svg"
 width="3500.000000pt" height="3500.000000pt" viewBox="0 0 3500.000000 3500.000000"
 preserveAspectRatio="xMidYMid meet">

<g transform="translate(0.000000,3500.000000) scale(0.100000,-0.100000)"
fill="#000000" stroke="none">
<path d="M16890 34470 c-151 -5 -457 -23 -680 -40 -2218 -168 -4360 -762
-6350 -1761 -1466 -736 -2840 -1702 -4043 -2842 -323 -307 -832 -835 -1058
-1097 -73 -85 -187 -218 -254 -295 -203 -234 -637 -801 -886 -1155 -270 -383
-615 -922 -797 -1244 -68 -122 -162 -286 -207 -366 -136 -239 -455 -887 -625
-1271 -421 -946 -801 -2086 -1015 -3039 -36 -162 -77 -342 -90 -400 -52 -229
-167 -935 -215 -1320 -173 -1384 -173 -2802 -1 -4190 78 -625 188 -1226 360
-1960 104 -447 411 -1434 583 -1880 44 -113 109 -281 145 -375 115 -299 405
-938 599 -1320 480 -948 1109 -1949 1698 -2700 99 -126 213 -273 254 -325 138
-176 615 -724 812 -930 451 -475 829 -838 1255 -1206 348 -301 354 -307 751
-615 1036 -804 2267 -1539 3479 -2073 476 -210 391 -175 820 -339 364 -140
1034 -367 1285 -436 80 -22 260 -71 400 -110 641 -176 1529 -349 2270 -442
413 -51 1038 -105 1345 -115 789 -27 1293 -19 1975 31 1157 85 2212 268 3315
575 396 110 999 303 1270 406 747 284 1180 471 1775 769 396 198 960 509 1242
686 529 331 566 356 988 654 632 447 1308 1007 1915 1587 182 173 339 326 350
340 11 14 103 113 205 219 288 301 263 273 651 724 386 448 969 1238 1296
1754 86 135 188 296 226 356 145 228 501 873 679 1230 367 734 687 1509 941
2280 159 481 330 1090 422 1505 36 162 77 342 90 400 13 58 42 213 65 345 23
132 52 301 65 375 37 208 133 980 150 1215 8 116 22 296 30 400 35 454 42
1343 15 1880 -20 388 -63 888 -111 1270 -78 633 -175 1163 -354 1946 -56 245
-255 930 -372 1284 -259 785 -604 1613 -970 2335 -108 212 -210 410 -228 440
-18 30 -103 181 -190 335 -217 384 -561 924 -844 1325 -1934 2745 -4637 4854
-7766 6057 -611 236 -1072 384 -1875 603 -243 66 -942 214 -1320 280 -662 114
-1472 203 -2140 234 -233 11 -1054 14 -1330 6z m10124 -8072 c-592 -613 -2257
-2334 -2614 -2703 -256 -264 -793 -820 -1195 -1235 -401 -415 -948 -980 -1215
-1256 -1906 -1968 -2675 -2766 -2675 -2774 0 -5 608 -746 1350 -1647 743 -900
1573 -1907 1845 -2237 273 -331 644 -781 826 -1001 1095 -1327 1323 -1604
1744 -2115 256 -311 806 -977 1221 -1481 416 -503 759 -920 763 -927 6 -9
-555 -12 -2503 -12 l-2510 0 -258 313 c-538 652 -2387 2894 -2608 3162 -127
154 -456 552 -730 885 -274 333 -805 976 -1178 1429 l-680 823 -87 -88 c-48
-49 -471 -487 -941 -974 -1160 -1204 -1627 -1687 -1799 -1865 -80 -82 -270
-278 -421 -435 -394 -409 -1037 -1076 -1529 -1585 -234 -242 -670 -695 -970
-1005 -300 -311 -585 -606 -635 -657 l-90 -92 -1160 -7 -1160 -6 66 68 c72 76
274 285 2609 2694 877 905 1799 1857 2049 2115 250 259 532 549 626 645 95 96
454 468 800 825 346 358 692 715 770 795 77 80 219 226 315 325 366 377 485
495 497 495 22 0 14 22 -25 69 -37 44 -668 808 -1696 2056 -259 314 -554 671
-656 795 -102 124 -356 432 -565 685 -208 253 -537 651 -730 885 -193 234
-553 670 -800 970 -493 598 -1183 1435 -1505 1825 -114 138 -505 612 -870
1055 -365 443 -699 848 -742 900 -43 52 -78 98 -78 102 0 4 1128 8 2508 7
l2507 0 231 -282 c207 -252 484 -587 1428 -1732 154 -187 503 -610 775 -940
272 -330 675 -818 895 -1085 220 -267 443 -537 496 -601 52 -64 249 -302 437
-530 188 -228 512 -621 720 -873 208 -252 383 -457 388 -455 6 2 284 287 620
634 1851 1914 2724 2817 3379 3495 401 415 797 825 880 910 84 85 278 286 432
445 547 567 881 912 1049 1085 l170 175 445 5 c245 3 764 6 1154 8 l710 2 -80
-82z"/>
<path d="M11805 24618 c-352 -4 -755 -11 -895 -16 l-256 -7 5841 -7008 5840
-7008 1009 1 c555 0 1010 1 1011 3 1 1 -253 308 -564 683 -311 375 -858 1033
-1216 1464 -357 431 -794 957 -971 1169 -290 350 -1956 2356 -2989 3601 -424
510 -1239 1492 -1590 1915 -553 665 -1114 1342 -2005 2415 -113 136 -398 480
-635 765 -544 655 -844 1017 -1315 1584 l-374 451 -126 -2 c-69 -1 -413 -5
-765 -10z"/>
</g>
</svg>
