<?xml version="1.0" ?><svg id="Layer_1" style="enable-background:new 0 0 1000 1000;" version="1.1" viewBox="0 0 1000 1000" xml:space="preserve" xmlns="http://www.w3.org/2000/svg" xmlns:xlink="http://www.w3.org/1999/xlink"><style type="text/css">
	.st0{fill:#1DA1F2;}
	.st1{fill:#FFFFFF;}
	.st2{fill:none;}
</style><title/><g><g id="Dark_Blue"><path class="st0" d="M500,0L500,0c276.1,0,500,223.9,500,500v0c0,276.1-223.9,500-500,500h0C223.9,1000,0,776.1,0,500v0    C0,223.9,223.9,0,500,0z"/></g><g id="Logo_FIXED"><path class="st1" d="M384,754c235.8,0,364.9-195.4,364.9-364.9c0-5.5,0-11.1-0.4-16.6c25.1-18.2,46.8-40.6,64-66.4    c-23.4,10.4-48.2,17.2-73.6,20.2c26.8-16,46.8-41.2,56.4-70.9c-25.2,14.9-52.7,25.5-81.4,31.1c-48.6-51.6-129.8-54.1-181.4-5.6    c-33.3,31.3-47.4,78-37.1,122.5c-103.1-5.2-199.2-53.9-264.3-134c-34,58.6-16.7,133.5,39.7,171.2c-20.4-0.6-40.4-6.1-58.2-16    c0,0.5,0,1.1,0,1.6c0,61,43,113.6,102.9,125.7c-18.9,5.1-38.7,5.9-57.9,2.2c16.8,52.2,64.9,88,119.8,89.1    c-45.4,35.7-101.5,55.1-159.2,55c-10.2,0-20.4-0.6-30.5-1.9C246.1,734,314.4,754,384,753.9"/><path class="st2" d="M500,0L500,0c276.1,0,500,223.9,500,500v0c0,276.1-223.9,500-500,500h0C223.9,1000,0,776.1,0,500v0    C0,223.9,223.9,0,500,0z"/></g></g></svg>