<?xml version="1.0" ?><!DOCTYPE svg  PUBLIC '-//W3C//DTD SVG 1.1//EN'  'http://www.w3.org/Graphics/SVG/1.1/DTD/svg11.dtd'><svg enable-background="new 0 0 134.5 133.608" height="133.608px" id="Layer_1" version="1.1" viewBox="0 0 134.5 133.608" width="134.5px" xml:space="preserve" xmlns="http://www.w3.org/2000/svg" xmlns:xlink="http://www.w3.org/1999/xlink"><g><g><g><g><circle cx="67.25" cy="66.805" fill="#16B4CA" r="63.333"/></g></g></g><g><g><g><path d="M112.034,22.021c24.732,24.732,24.733,64.832-0.001,89.566c-24.733,24.733-64.834,24.733-89.566,0      L112.034,22.021z" fill="#13ACB7"/></g></g><g><path d="M126.512,89.161L91.453,54.103l-6.313,6.313L57.453,32.728L44.424,45.757l11.813,11.813l-9.438,9.438     l15.875,15.875L50.091,95.465l32.737,32.737C102.974,123.105,119.266,108.355,126.512,89.161z" fill="#10A2A5"/></g></g><path d="M86.704,84.421H68.643c-2.512,0-4.646-0.878-6.4-2.643   c-1.761-1.766-2.633-3.901-2.633-6.424v-6.428h25.736c2.32,0,4.319-0.834,5.98-2.492c1.66-1.67,2.493-3.667,2.493-5.991   c0-2.331-0.833-4.326-2.498-5.99c-1.666-1.66-3.671-2.494-6.002-2.494h-25.71V38.68c0-2.513-0.896-4.666-2.678-6.458   c-1.771-1.795-3.913-2.696-6.403-2.696c-2.56,0-4.736,0.887-6.511,2.643c-1.777,1.762-2.665,3.932-2.665,6.518v36.671   c0,7.543,2.665,13.987,8.002,19.336c5.338,5.357,11.774,8.03,19.298,8.03h18.059c2.506,0,4.658-0.901,6.448-2.697   c1.791-1.787,2.685-3.943,2.685-6.453c0-2.512-0.894-4.664-2.685-6.459C91.369,85.326,89.214,84.421,86.704,84.421z" fill="#FFFFFF" id="Twitter_2_"/></g></svg>