<svg xmlns="http://www.w3.org/2000/svg" version="1.0" viewBox="160.9 208 435.2 341.1"><g fill="#8a7f71"><path d="M1894 5431 c-102 -25 -206 -111 -252 -209 l-27 -57 -3 -287 -3 -288 91 0 90 0 0 230 c0 127 5 252 11 280 13 59 46 103 100 130 35 18 60 20 299 20 l260 0 0 95 0 95 -267 -1 c-148 -1 -282 -4 -299 -8z" transform="matrix(.1 0 0 -.1 0 752)"/><path d="M5110 5345 l0 -95 255 0 c310 0 338 -7 386 -102 17 -34 19 -62 19 -298 l0 -260 95 0 95 0 0 264 c0 231 -2 272 -19 325 -36 116 -132 210 -250 245 -44 13 -105 16 -318 16 l-263 0 0 -95z" transform="matrix(.1 0 0 -.1 0 752)"/><path d="M2170 4445 l0 -425 95 0 95 0 0 425 0 425 -95 0 -95 0 0 -425z" transform="matrix(.1 0 0 -.1 0 752)"/><path d="M2550 4445 l0 -425 190 0 190 0 0 425 0 425 -190 0 -190 0 0 -425z" transform="matrix(.1 0 0 -.1 0 752)"/><path d="M3120 4445 l0 -425 95 0 95 0 0 425 0 425 -95 0 -95 0 0 -425z" transform="matrix(.1 0 0 -.1 0 752)"/><path d="M3500 4445 l0 -425 95 0 95 0 0 425 0 425 -95 0 -95 0 0 -425z" transform="matrix(.1 0 0 -.1 0 752)"/><path d="M3880 4445 l0 -425 190 0 190 0 0 425 0 425 -190 0 -190 0 0 -425z" transform="matrix(.1 0 0 -.1 0 752)"/><path d="M4450 4445 l0 -425 95 0 95 0 0 425 0 425 -95 0 -95 0 0 -425z" transform="matrix(.1 0 0 -.1 0 752)"/><path d="M4830 4445 l0 -426 93 3 92 3 3 423 2 422 -95 0 -95 0 0 -425z" transform="matrix(.1 0 0 -.1 0 752)"/><path d="M5200 4445 l0 -425 95 0 95 0 0 425 0 425 -95 0 -95 0 0 -425z" transform="matrix(.1 0 0 -.1 0 752)"/><path d="M1844 3818 c-51 -24 -62 -105 -19 -147 l25 -26 1936 0 1936 0 24 28 c34 40 32 90 -5 128 l-29 29 -1924 -1 c-1302 0 -1930 -4 -1944 -11z" transform="matrix(.1 0 0 -.1 0 752)"/><path d="M2170 3025 l0 -425 95 0 95 0 0 425 0 425 -95 0 -95 0 0 -425z" transform="matrix(.1 0 0 -.1 0 752)"/><path d="M2550 3025 l0 -425 190 0 190 0 0 425 0 425 -190 0 -190 0 0 -425z" transform="matrix(.1 0 0 -.1 0 752)"/><path d="M3120 3025 l0 -425 95 0 95 0 0 425 0 425 -95 0 -95 0 0 -425z" transform="matrix(.1 0 0 -.1 0 752)"/><path d="M3500 3025 l0 -425 95 0 95 0 0 425 0 425 -95 0 -95 0 0 -425z" transform="matrix(.1 0 0 -.1 0 752)"/><path d="M3880 3025 l0 -425 190 0 190 0 0 425 0 425 -190 0 -190 0 0 -425z" transform="matrix(.1 0 0 -.1 0 752)"/><path d="M4450 3025 l0 -425 95 0 95 0 0 425 0 425 -95 0 -95 0 0 -425z" transform="matrix(.1 0 0 -.1 0 752)"/><path d="M4830 3025 l0 -425 95 0 95 0 0 425 0 425 -95 0 -95 0 0 -425z" transform="matrix(.1 0 0 -.1 0 752)"/><path d="M5200 3025 l0 -425 95 0 95 0 0 425 0 425 -95 0 -95 0 0 -425z" transform="matrix(.1 0 0 -.1 0 752)"/><path d="M1612 2593 l3 -288 28 -57 c38 -77 107 -144 187 -182 l65 -31 283 -3 282 -3 0 95 0 95 -268 3 -269 3 -41 28 c-23 15 -52 46 -64 70 -22 40 -23 54 -26 300 l-3 257 -90 0 -90 0 3 -287z" transform="matrix(.1 0 0 -.1 0 752)"/><path d="M5770 2625 c0 -280 -3 -298 -59 -350 -52 -50 -75 -53 -348 -54 l-253 -1 0 -96 0 -95 278 3 c261 3 280 5 334 26 81 32 160 107 200 190 l33 66 3 283 3 283 -95 0 -96 0 0 -255z" transform="matrix(.1 0 0 -.1 0 752)"/></g></svg>