<svg xmlns="http://www.w3.org/2000/svg" viewBox="0 0 512 512"><path d="M241 113l130 130c4 4 6 8 6 13 0 5-2 9-6 13l-130 130c-3 3-7 5-12 5-5 0-10-2-13-5l-29-30c-4-3-6-7-6-12 0-5 2-10 6-13l87-88-87-88c-4-3-6-8-6-13 0-5 2-9 6-12l29-30c3-3 8-5 13-5 5 0 9 2 12 5z m234 143c0-40-9-77-29-110-20-34-46-60-80-80-33-20-70-29-110-29-40 0-77 9-110 29-34 20-60 46-80 80-20 33-29 70-29 110 0 40 9 77 29 110 20 34 46 60 80 80 33 20 70 29 110 29 40 0 77-9 110-29 34-20 60-46 80-80 20-33 29-70 29-110z" fill="hsl(202, 96%, 37%)" /></svg>