<svg class="svg-icon" style="width: 1em; height: 1em;vertical-align: middle;fill: currentColor;overflow: hidden;" viewBox="0 0 1024 1024" version="1.1" xmlns="http://www.w3.org/2000/svg"><path d="M881.4 250.9H141.5c-23.9 0-43.5-19.6-43.5-43.5s19.6-43.5 43.5-43.5h739.9c23.9 0 43.5 19.6 43.5 43.5s-19.6 43.5-43.5 43.5zM272.1 454H141.5c-23.9 0-43.5-19.6-43.5-43.5s19.6-43.5 43.5-43.5h130.6c23.9 0 43.5 19.6 43.5 43.5S296 454 272.1 454zM272.1 657.1H141.5c-23.9 0-43.5-19.6-43.5-43.5s19.6-43.5 43.5-43.5h130.6c23.9 0 43.5 19.6 43.5 43.5s-19.6 43.5-43.5 43.5zM853.8 847.5L715.3 709c-16.9-16.9-16.9-44.6 0-61.5s44.6-16.9 61.5 0L915.3 786c16.9 16.9 16.9 44.6 0 61.5s-44.6 16.9-61.5 0zM467.9 860.2H141.5c-23.9 0-43.5-19.6-43.5-43.5s19.6-43.5 43.5-43.5h326.4c23.9 0 43.5 19.6 43.5 43.5 0.1 23.9-19.5 43.5-43.5 43.5z"  /><path d="M619.4 290.5C493.3 290.5 391 392.8 391 519s102.3 228.5 228.5 228.5S847.9 645.2 847.9 519 745.6 290.5 619.4 290.5z m0 388.4c-88.3 0-159.9-71.6-159.9-159.9 0-88.3 71.6-159.9 159.9-159.9s160 71.5 160 159.9c0 88.3-71.6 159.9-160 159.9z"  /></svg>