<?xml version="1.0" encoding="UTF-8"?><svg width="752pt" height="752pt" viewBox="0 0 752 752" xmlns="http://www.w3.org/2000/svg"><g><path d="m234.96 580.82h156.65c1.3164-0.015625 2.6211-0.26562 3.8477-0.73828 1.2266-0.48438 2.3555-1.1875 3.332-2.0742l132.6-125.35c1.0391-0.95703 1.8711-2.1172 2.4414-3.4062 0.52344-1.2188 0.82422-2.5234 0.89062-3.8477v-112.92c0-6.1328-4.9727-11.102-11.102-11.102s-11.098 4.9688-11.098 11.102v101h-68.227c-16.918 0.039062-33.129 6.7812-45.086 18.754-11.957 11.969-18.68 28.188-18.699 45.105v61.27h-145.55c-11.031 0-21.609-4.3789-29.406-12.18-7.8008-7.7969-12.184-18.375-12.184-29.406v-236.12c0-11.035 4.3789-21.621 12.176-29.43 7.7969-7.8125 18.375-12.211 29.414-12.23h184.55c6.1289 0 11.098-4.9688 11.098-11.098 0-6.1328-4.9688-11.102-11.098-11.102h-184.55c-16.918 0.039062-33.133 6.7852-45.086 18.754-11.957 11.969-18.684 28.188-18.703 45.105v236.12c0.019531 16.91 6.7461 33.125 18.707 45.082 11.957 11.957 28.168 18.684 45.082 18.703zm209.34-125.13h51.797l-93.383 88.281v-46.621c0-11.035 4.3789-21.621 12.176-29.43 7.7969-7.8125 18.375-12.211 29.41-12.23z"/><path d="m508.31 191.45c-2.9414 0.019531-5.7539 1.1875-7.8438 3.2539l-168.49 168.49c-1.1992 1.2383-2.1094 2.7305-2.6641 4.3672l-19.906 61.121c-1.25 3.9648-0.19531 8.3008 2.7383 11.246 2.9492 2.9375 7.2812 3.9922 11.25 2.7383l61.121-19.98v0.003906c1.6328-0.55469 3.125-1.4648 4.3633-2.6641l168.42-168.49c4.2891-4.3516 4.2891-11.336 0-15.688l-41.141-41.145c-2.082-2.082-4.9023-3.25-7.8438-3.2539zm-133.2 210.96-37.738 12.359 12.359-37.738 158.57-158.8 25.453 25.453z"/></g></svg>