<?xml version="1.0" encoding="utf-8"?>
<!DOCTYPE svg PUBLIC "-//W3C//DTD SVG 1.1//EN" "http://www.w3.org/Graphics/SVG/1.1/DTD/svg11.dtd">
<svg version="1.1" id="Layer_1" xmlns="http://www.w3.org/2000/svg" xmlns:xlink="http://www.w3.org/1999/xlink" x="0px" y="0px"
	 width="24px" height="20px" viewBox="0 0 24 20" enable-background="new 0 0 24 20" xml:space="preserve">
<path fill-rule="evenodd" clip-rule="evenodd" d="M23.992,3.573c0-0.172-0.058-0.359-0.14-0.512
	c-0.298-0.551-0.724-1.002-1.212-1.386c-1.393-1.094-3.002-1.591-4.75-1.685c-0.728-0.039-1.45,0.025-2.164,0.179
	c-1.021,0.22-1.976,0.598-2.808,1.238c-0.326,0.25-0.619,0.542-0.938,0.824c-0.037-0.039-0.086-0.093-0.134-0.147
	c-0.476-0.53-1.043-0.941-1.677-1.256C8.808,0.153,7.363-0.099,5.847,0.015C4.943,0.082,4.07,0.268,3.229,0.605
	c-1.126,0.451-2.108,1.1-2.848,2.083C0.135,3.015-0.009,3.356,0,3.788c0.026,1.171,0.009,2.343,0.009,3.515
	c0,3.679-0.001,7.358,0.002,11.038c0,0.771,0.586,1.197,1.307,1.128c0.391-0.037,0.697-0.268,1.008-0.47
	c1.406-0.914,2.925-1.383,4.615-1.254c0.762,0.058,1.483,0.253,2.174,0.569c0.702,0.322,1.288,0.805,1.86,1.312
	c0.612,0.542,1.301,0.566,1.949,0.08c0.318-0.24,0.6-0.532,0.923-0.765c1.381-0.988,2.916-1.383,4.608-1.162
	c0.988,0.128,1.91,0.444,2.769,0.945c0.35,0.204,0.688,0.431,1.046,0.617c0.7,0.365,1.731,0.027,1.73-1.071
	C23.995,13.372,24,8.472,23.992,3.573z M11.151,17.502c-3.117-2.035-6.243-1.921-9.43-0.208c-0.002-0.043-0.009-0.111-0.009-0.178
	c0-4.364-0.001-8.729,0.004-13.093c0-0.105,0.04-0.229,0.103-0.312c0.565-0.749,1.331-1.22,2.191-1.55
	c0.727-0.278,1.48-0.424,2.26-0.448c1.126-0.036,2.2,0.159,3.206,0.674c0.633,0.324,1.183,0.755,1.568,1.365
	c0.061,0.095,0.102,0.223,0.102,0.335c0.004,4.406,0.004,8.813,0.004,13.219C11.151,17.365,11.151,17.426,11.151,17.502z
	 M22.271,17.086c0,0.072,0,0.145,0,0.255c-1.458-0.945-3.046-1.326-4.737-1.331c-1.707-0.004-3.254,0.496-4.68,1.528
	c0-0.106,0-0.171,0-0.234c0-4.413-0.002-8.826,0.003-13.238c0-0.102,0.034-0.217,0.091-0.301c0.569-0.869,1.406-1.377,2.363-1.711
	c0.903-0.316,1.84-0.408,2.787-0.326c1.178,0.104,2.285,0.446,3.241,1.167c0.298,0.223,0.553,0.504,0.809,0.778
	c0.075,0.081,0.118,0.225,0.118,0.34c0.006,3.028,0.005,6.057,0.005,9.086C22.271,14.428,22.271,15.757,22.271,17.086z"/>
</svg>
