<svg height="30" viewBox="5 7.8 19.841 15.077" width="30" xmlns="http://www.w3.org/2000/svg"><g fill="#fff" fill-rule="evenodd" transform="matrix(1 0 0 -1 5 22.2)"><path d="m16.2 0h-1.8v7h1.8z"/><path d="m9.98959325 15.0773216c-4.63544704 0-8.38655806-4.0162495-8.61940358-8.37272035-.67317072-.3809702-1.31750674-1.05192621-1.30081298-3.05509212.03490515-4.16242827 3.21886171-3.60056729 3.21886171-3.60056729v6.88958848s-.05289973.01228936-.14395664.0228539c.26536585 3.58892478 3.57485086 6.09617008 6.84531149 6.17551188 3.17853655.0771858 6.61246595-2.5846467 6.87956625-6.17184663-.1116531-.01121135-.1782114-.02651915-.1782114-.02651915v-6.88958848s3.1839566-.56186098 3.2186449 3.60056729c.016477 1.96737584-.604878 2.6419971-1.264607 3.03417865-.2222222 4.36638852-3.9683468 8.39363382-8.65539275 8.39363382z"/><path d="m3.8 0h1.8v7h-1.8z"/></g></svg>