<?xml version="1.0" encoding="iso-8859-1"?>
<!-- Generator: Adobe Illustrator 19.0.0, SVG Export Plug-In . SVG Version: 6.00 Build 0)  -->
<svg version="1.1" id="Layer_1" xmlns="http://www.w3.org/2000/svg" xmlns:xlink="http://www.w3.org/1999/xlink" x="0px" y="0px"
	 viewBox="0 0 460 460" style="enable-background:new 0 0 460 460;" xml:space="preserve">
<g>
	<path style="fill:#FFEDB5;" d="M230,0C102.975,0,0,102.974,0,230c0,115.344,84.906,210.857,195.627,227.449l264.371-228.393
		C459.489,102.464,356.71,0,230,0z"/>
	<path style="fill:#FFC61B;" d="M460,230c0-0.316-0.011-0.629-0.012-0.944l-59.373-59.373l-77.846,17.548L217.828,82.289H203.38
		L83.101,203.976l20.551,161.49l91.976,91.976C206.842,459.122,218.318,460,230,460C357.026,460,460,357.025,460,230z"/>
	
		<rect x="134.723" y="47.864" transform="matrix(-0.7071 -0.7071 0.7071 -0.7071 164.249 326.3948)" style="fill:#366796;" width="30" height="162.633"/>
	
		<rect x="228.96" y="114.18" transform="matrix(-0.7071 -0.7071 0.7071 -0.7071 438.332 439.9225)" style="fill:#273B7A;" width="162.633" height="30"/>
	<path style="fill:#5488A8;" d="M230,199.682l-160.615,10l22.038,134.873c2.661,16.284,18.338,29.607,34.838,29.607H230
		l28.668-82.24L230,199.682z"/>
	<path style="fill:#366796;" d="M230,199.682v174.48h103.739c16.5,0,32.177-13.323,34.838-29.607l22.038-134.873L230,199.682z"/>
	<rect x="220" y="199.682" style="fill:#FFC61B;" width="20" height="124.48"/>
	<rect x="150" y="199.682" style="fill:#FFC61B;" width="20" height="124.48"/>
	<rect x="290" y="199.682" style="fill:#FFC61B;" width="20" height="124.48"/>
	<rect x="59.385" y="169.682" style="fill:#121149;" width="341.23" height="40"/>
	<path style="fill:#C2001B;" d="M413,271.922c0,42.688-34.605,77.293-77.293,77.293l-27.293-77.293l27.293-77.293
		C378.395,194.629,413,229.235,413,271.922z"/>
	<path style="fill:#FF0F27;" d="M258.413,271.922c0,42.688,34.605,77.293,77.293,77.293V194.629
		C293.019,194.629,258.413,229.234,258.413,271.922z"/>
	<rect x="292.707" y="261.922" style="fill:#FFFFFF;" width="86" height="20"/>
</g>
<g>
</g>
<g>
</g>
<g>
</g>
<g>
</g>
<g>
</g>
<g>
</g>
<g>
</g>
<g>
</g>
<g>
</g>
<g>
</g>
<g>
</g>
<g>
</g>
<g>
</g>
<g>
</g>
<g>
</g>
</svg>
