<?xml version="1.0" encoding="UTF-8" standalone="no"?>
<svg
   width="700pt"
   height="700pt"
   version="1.1"
   viewBox="0 0 700 700"
   id="svg3704"
   sodipodi:docname="reviews_orig.svg"
   inkscape:version="1.1.2 (0a00cf5, 2022-02-04)"
   xmlns:inkscape="http://www.inkscape.org/namespaces/inkscape"
   xmlns:sodipodi="http://sodipodi.sourceforge.net/DTD/sodipodi-0.dtd"
   xmlns="http://www.w3.org/2000/svg"
   xmlns:svg="http://www.w3.org/2000/svg">
  <defs
     id="defs3708" />
  <sodipodi:namedview
     id="namedview3706"
     pagecolor="#ffffff"
     bordercolor="#666666"
     borderopacity="1.0"
     inkscape:pageshadow="2"
     inkscape:pageopacity="0.0"
     inkscape:pagecheckerboard="0"
     inkscape:document-units="pt"
     showgrid="false"
     inkscape:zoom="0.90428571"
     inkscape:cx="681.75355"
     inkscape:cy="500.39494"
     inkscape:window-width="1848"
     inkscape:window-height="1016"
     inkscape:window-x="72"
     inkscape:window-y="27"
     inkscape:window-maximized="1"
     inkscape:current-layer="svg3704" />
  <g
     id="g3702"
     transform="matrix(1.167267,0,0,1.167267,-58.790378,22.99425)">
    <path
       d="m 242.06,448 c -1.0625,0.1875 -2.1523,0.1875 -3.2188,0 -3.293,-1.3555 -5.4453,-4.5586 -5.4609,-8.1211 v -61.879 h -35.559 c -8.5039,0 -16.656,-3.3789 -22.672,-9.3906 -6.0117,-6.0117 -9.3867,-14.168 -9.3867,-22.668 v -198.1 c 0,-8.5039 3.375,-16.656 9.3867,-22.668 6.0156,-6.0156 14.168,-9.3906 22.672,-9.3906 h 227.78 c 4.4062,0.55859 7.7109,4.3047 7.7109,8.75 0,4.4414 -3.3047,8.1914 -7.7109,8.75 h -227.78 c -7.7305,0 -14,6.2656 -14,14 v 198.8 c 0,3.7148 1.4766,7.2773 4.1016,9.9023 2.625,2.625 6.1836,4.0977 9.8984,4.0977 h 44.238 c 4.8711,0 8.8203,3.9492 8.8203,8.8203 v 47.602 l 51.383,-52.5 c 1.6133,-1.7773 3.8984,-2.793 6.2969,-2.8008 h 192.64 c 3.7148,0 7.2734,-1.4727 9.8984,-4.1016 2.6289,-2.625 4.1016,-6.1836 4.1016,-9.8984 v -125.3 c -0.31641,-2.5117 0.46094,-5.0391 2.1328,-6.9375 1.6758,-1.9023 4.0859,-2.9883 6.6172,-2.9883 2.5352,0 4.9453,1.0859 6.6172,2.9883 1.6758,1.8984 2.4531,4.4258 2.1328,6.9375 v 124.18 c -0.0352,8.3828 -3.3516,16.418 -9.2383,22.387 -5.8906,5.9648 -13.879,9.3906 -22.262,9.5352 h -188.86 l -63.84,66.781 c -1.6211,1.8984 -3.9453,3.0586 -6.4414,3.2188 z"
       id="path3692" />
    <path
       d="M 378,186.2 H 212.94 c -4.4102,-0.55859 -7.7109,-4.3086 -7.7109,-8.75 0,-4.4414 3.3008,-8.1914 7.7109,-8.75 H 378 c 2.5117,-0.31641 5.0391,0.46094 6.9414,2.1328 1.8984,1.6758 2.9883,4.0859 2.9883,6.6172 0,2.5352 -1.0898,4.9453 -2.9883,6.6172 -1.9023,1.6758 -4.4297,2.4531 -6.9414,2.1328 z"
       id="path3694" />
    <path
       d="M 326.06,239.26 H 212.94 c -4.4102,-0.55859 -7.7109,-4.3086 -7.7109,-8.75 0,-4.4453 3.3008,-8.1914 7.7109,-8.75 h 113.12 -0.004 c 2.5156,-0.32031 5.043,0.45703 6.9414,2.1328 1.9023,1.6719 2.9883,4.082 2.9883,6.6172 0,2.5312 -1.0859,4.9414 -2.9883,6.6172 -1.8984,1.6719 -4.4258,2.4492 -6.9414,2.1328 z"
       id="path3696" />
    <path
       d="M 326.06,292.18 H 212.94 c -4.4102,-0.55859 -7.7109,-4.3086 -7.7109,-8.75 0,-4.4414 3.3008,-8.1914 7.7109,-8.75 h 113.12 -0.004 c 2.5156,-0.31641 5.043,0.45703 6.9414,2.1328 1.9023,1.6758 2.9883,4.0859 2.9883,6.6172 0,2.5313 -1.0859,4.9414 -2.9883,6.6172 -1.8984,1.6758 -4.4258,2.4531 -6.9414,2.1328 z"
       id="path3698" />
    <path
       d="m 362.32,292.18 c -2.9648,0.0625 -5.7539,-1.3945 -7.3984,-3.8633 -1.6484,-2.4688 -1.918,-5.6016 -0.72266,-8.3164 l 21.559,-52.922 h 0.004 c 0.5,-1.1836 1.2656,-2.2383 2.2383,-3.0781 l 109.34,-109.34 c 3.4258,-3.3438 8.8945,-3.3438 12.32,0 l 32.34,32.621 c 1.7031,1.5938 2.668,3.8242 2.6602,6.1602 -0.0391,2.3203 -0.99609,4.5352 -2.6602,6.1602 l -106.54,106.4 c -0.77734,0.85156 -1.7344,1.5195 -2.8008,1.9609 l -56.98,23.801 c -1.0859,0.33594 -2.2227,0.47656 -3.3594,0.41797 z M 392,235.34 378,267.262 414.262,252 l 98.84,-98 -19.883,-20.441 z"
       id="path3700" />
  </g>
</svg>
