<?xml version="1.0" encoding="UTF-8"?><svg width="752pt" height="752pt" viewBox="0 0 752 752" xmlns="http://www.w3.org/2000/svg"><defs><clipPath id="a"><path d="m139.21 139.21h473.58v473.58h-473.58z"/></clipPath></defs><g clip-path="url(#a)"><path d="m528.23 139.21c-46.5 0-84.562 38.062-84.562 84.562 0 7.5781 1.0938 14.887 2.9883 21.887l-156.47 78.246c-15.523-19.711-39.516-32.469-66.406-32.469-46.5 0-84.562 38.062-84.562 84.562s38.062 84.562 84.562 84.562c26.859 0 50.867-12.758 66.391-32.457l156.49 78.246c-1.8789 7-2.9883 14.297-2.9883 21.875 0 46.5 38.062 84.562 84.562 84.562s84.562-38.062 84.562-84.562-38.062-84.562-84.562-84.562c-26.891 0-50.879 12.758-66.406 32.469l-156.47-78.246c1.8945-7 2.9883-14.312 2.9883-21.887 0-7.5781-1.0938-14.875-2.9883-21.875l156.49-78.246c15.523 19.699 39.516 32.457 66.391 32.457 46.5 0 84.562-38.062 84.562-84.562s-38.062-84.562-84.562-84.562zm0 33.832c28.223 0 50.746 22.523 50.746 50.746 0 28.223-22.523 50.746-50.746 50.746-28.223 0-50.746-22.523-50.746-50.746 0-28.223 22.523-50.746 50.746-50.746zm-304.45 152.21c28.223 0 50.746 22.523 50.746 50.746s-22.523 50.746-50.746 50.746c-28.223 0-50.746-22.523-50.746-50.746s22.523-50.746 50.746-50.746zm304.45 152.23c28.223 0 50.746 22.523 50.746 50.746 0 28.223-22.523 50.746-50.746 50.746-28.223 0-50.746-22.523-50.746-50.746 0-28.223 22.523-50.746 50.746-50.746z"/></g></svg>