<svg xmlns="http://www.w3.org/2000/svg" viewBox="0 0 297 297"><circle cx="148.5" cy="148.5" r="148.5" fill="#d0d5d9"/><path d="M200.561 74.307l-96.224 152.094 68.588 68.588c63.667-10.537 113.656-61.566 122.627-125.749l-94.991-94.933z" fill="#929da5"/><path d="M74 154.375c0-41.145 33.355-74.5 74.5-74.5s74.5 33.355 74.5 74.5-33.355 93.125-74.5 93.125S74 195.52 74 154.375z" fill="#c3a99a"/><path d="M148.5 79.875c-.112 0-.221.008-.333.008v167.61c.111.001.222.007.333.007 41.145 0 74.5-51.98 74.5-93.125s-33.355-74.5-74.5-74.5z" fill="#a89286"/><path d="M148.5 162.072c49.114 0 84.101-9.954 104.239-17.92 5.18-2.049 3.7-9.746-1.87-9.746h-15.607a5.043 5.043 0 0 1-4.817-3.529C226.722 119.004 213.157 80.404 190 65.24c-18.93-12.396-31.45-1.2-37.424 7.001-2.017 2.769-6.135 2.769-8.152 0-5.974-8.203-18.494-19.399-37.424-7.003-23.157 15.164-36.722 53.764-40.445 65.637a5.043 5.043 0 0 1-4.817 3.529H46.131c-5.57 0-7.05 7.697-1.87 9.746 20.138 7.968 55.125 17.922 104.239 17.922z" fill="#32373b"/><path d="M250.869 134.405h-15.607a5.044 5.044 0 0 1-4.817-3.53c-3.723-11.873-17.289-50.473-40.445-65.637-18.93-12.396-31.45-1.2-37.424 7.001a5.008 5.008 0 0 1-4.409 2.058v87.772l.333.002c49.114 0 84.101-9.954 104.239-17.92 5.179-2.049 3.7-9.746-1.87-9.746z" fill="#292d30"/><path d="M188.593 163.154c-11.71 0-21.907 1.103-27.235 5.418h-25.716c-5.328-4.315-15.525-5.418-27.235-5.418-17.217 0-23.407 9.305-23.407 20.783s5.038 20.783 16.794 20.783c17.217 0 37.787-16.233 37.787-27.711 0-.865-.089-1.673-.243-2.438h18.322a12.279 12.279 0 0 0-.243 2.438c0 11.478 20.57 27.711 37.787 27.711 11.756 0 16.794-9.305 16.794-20.783s-6.187-20.783-23.405-20.783z" fill="#4a5054"/><path d="M188.593 163.154c-11.71 0-21.907 1.103-27.235 5.418h-13.191v6h9.494a12.279 12.279 0 0 0-.243 2.438c0 11.478 20.57 27.711 37.787 27.711 11.756 0 16.794-9.305 16.794-20.783s-6.188-20.784-23.406-20.784z" fill="#363c3f"/></svg>