<svg xmlns="http://www.w3.org/2000/svg" viewBox="0 0 504.334 504.334"><path d="M198.588 341.561v-33.083l-92.16 25.994s6.695-39.385 54.745-53.169c14.572-3.938 27.175-3.938 37.415-1.969V143.062h46.08c-5.12-15.36-9.846-27.569-13.785-35.84-6.695-13.785-13.785-4.726-29.145 8.665-11.028 9.058-38.991 29.145-81.132 40.172-42.142 11.422-76.012 8.271-90.191 5.908-20.086-3.545-30.72-7.877-29.538 7.483.788 13.391 3.938 34.265 11.422 62.228 15.754 59.865 68.135 175.262 167.385 148.48 25.994-7.089 44.505-20.874 57.108-38.597h-38.204zM50.108 232.465l70.498-18.511s-1.969 27.175-28.357 34.265c-26.387 6.695-42.141-15.754-42.141-15.754z" fill="#e2574c"/><path d="M465.222 145.819c-18.905 3.151-63.803 7.483-119.335-7.483s-92.554-40.96-107.126-53.169c-20.874-17.329-29.932-29.145-38.597-11.028-7.877 16.148-18.117 42.142-27.963 78.769-21.268 79.163-37.022 246.154 94.129 281.206 131.545 35.052 201.255-117.366 222.523-196.529 9.846-36.628 14.178-64.197 15.36-81.92 1.575-20.48-12.209-14.572-38.991-9.846zm-263.877 65.772s20.874-32.689 56.32-22.449c35.446 10.24 38.203 49.231 38.203 49.231l-94.523-26.782zm85.859 143.754c-61.834-18.117-71.286-67.348-71.286-67.348l165.809 46.08c0 .394-33.477 38.991-94.523 21.268zm59.864-100.431s20.086-32.295 53.957-22.449c33.871 10.24 36.628 49.231 36.628 49.231l-90.585-26.782z" fill="#efc75e"/><path d="M291.93 356.527l-4.726-1.182c-61.834-18.117-71.286-67.348-71.286-67.348l87.434 24.418 44.898-173.686c-.788-.394-1.575-.394-2.363-.394-55.532-14.966-92.554-40.96-107.126-53.169-20.874-17.329-29.932-29.145-38.597-11.028-7.877 16.148-18.117 42.142-27.963 78.769-20.48 76.012-35.84 232.763 79.557 276.48l19.692 5.908 20.48-78.768zm-90.585-144.936s20.874-32.689 56.32-22.449c35.446 10.24 38.203 49.231 38.203 49.231l-94.523-26.782z" fill="#dcb757"/><path d="M165.899 317.93l-59.471 16.935s6.302-37.022 50.018-51.594l-33.871-127.212c-.788.394-1.575.394-2.757.788-42.142 11.422-76.012 8.271-90.191 5.908-20.086-3.545-30.72-7.877-29.538 7.483.788 13.391 3.938 34.265 11.422 62.228 16.542 59.077 68.923 174.474 168.172 147.692l2.363-.788-16.147-61.44zM50.108 232.465l70.498-18.511s-1.969 27.175-28.357 34.265c-26.387 6.695-42.141-15.754-42.141-15.754z" fill="#d05046"/></svg>