<svg viewBox="0 0 512 512" xmlns="http://www.w3.org/2000/svg"><path d="M433 484c0 15-13 28-29 28H56c-16 0-29-13-29-28V28C27 13 40 0 56 0h348c16 0 29 13 29 28z" fill="#2d404e"/><path d="M423 471c0 15-12 27-28 27H54c-15 0-28-12-28-27V27C26 12 39 0 54 0h341c16 0 28 12 28 27z" fill="#e2e5e7"/><path d="M241 431l183-71v63z" fill="#c6cbcb"/><circle cx="64" cy="103" fill="#c6cbcb" r="26"/><circle cx="64" cy="103" fill="#2d404e" r="22"/><circle cx="63" cy="104" fill="#253744" r="15"/><path d="M72 103c0 7-5 12-12 12H12c-7 0-12-5-12-12 0-6 5-12 12-12h48c7 0 12 6 12 12z" fill="#586a73"/><path d="M4 112c2 2 5 3 8 3h48c7 0 12-5 12-12 0-6-5-12-12-12 0 0 6 4 6 10 1 7-7 11-14 11z" fill="#2d404e"/><circle cx="64" cy="209" fill="#c6cbcb" r="26"/><circle cx="64" cy="209" fill="#2d404e" r="22"/><circle cx="63" cy="210" fill="#253744" r="15"/><path d="M72 209c0 7-5 12-12 12H12c-7 0-12-5-12-12 0-6 5-11 12-11h48c7 0 12 5 12 11z" fill="#586a73"/><path d="M4 219l8 2h48c7 0 12-5 12-12 0-6-5-11-12-11 0 0 6 3 6 10 1 7-7 11-14 11z" fill="#2d404e"/><circle cx="64" cy="316" fill="#c6cbcb" r="26"/><circle cx="64" cy="316" fill="#2d404e" r="22"/><circle cx="63" cy="316" fill="#253744" r="15"/><path d="M72 316c0 6-5 12-12 12H12c-7 0-12-6-12-12 0-7 5-12 12-12h48c7 0 12 5 12 12z" fill="#586a73"/><path d="M4 325c2 2 5 3 8 3h48c7 0 12-6 12-12 0-7-5-12-12-12 0 0 6 4 6 10 1 7-7 11-14 11z" fill="#2d404e"/><path d="M459 210L283 381l15 18 183-165z" fill="#eb8923"/><path d="M283 381l-17-12 181-185 12 26z" fill="#ed9e43"/><path d="M298 399l7 19 207-174-31-10z" fill="#d27228"/><path d="M447 184l12 26 22 24 31 10-9-26-25-26zM266 369s35 14 39 49c0 0-59 21-64 13-5-7 25-62 25-62z" fill="#f2b643"/><path d="M241 431c2 3 15 1 29-2l-22-24c-5 12-9 23-7 26z" fill="#eb8923"/><path d="M423 27c0-15-12-27-28-27h-49l77 65z" fill="#d1d5d5"/><path d="M123 206h-1l-1-1-4-9a31 31 0 0 1-6-9l-3-9-1-11v-10h1v-1l1-1 1-5 1-3v-1l1-1 1-1v-2l1-2h1v-2l1-1v-1l1-1h1v-1l5-4h2v1l1 1 2 2h1v1l-1 2-2 2v1h-1l-2 3-1 2-1 2-2 5-2 5v3l-1 5c1 8 2 14 5 20h1c0 3 1 5 3 7l2 5 1 2 1 1v2l-1 1v1c-1 1-1 2-3 2zm44-17h-1l-1-2h-2v-3h-1v-1c0-6 1-11 3-16l1-4 1-7 1-1 1-1c0-2 1-4 3-5l1-4v-2h1c2 0 3-2 4-4h-4l-4 2h-1l-2-1h-1l-1 1-1 1h-9l1-2v-1c0 1-1 1-2-1v-1l-1-5 1-2h1l3 1 2 1v-1l1-1 1 1h1v-2l1 1h1l1 1 1-1h3l1-1 1 1 5-2h5v-1h6l1 2 2 3 2 1v1c0 3-3 5-5 7l-5 9c-3 6-6 11-7 17v1l-2 3-2 5 1 2v1l-1 1v4l-2 5h-1l-1-1zm56-22h-1l-1-1v-7h1c1-2 4-2 7-3l4-1h2v1l1-1h3l3 1 2 1v2l1 1-2 4-3 1a17 17 0 0 1-4 0 63 63 0 0 1-13 2zm57 11h-1v-1l-2-2-3-2c-2-2-2-4-1-6v-1l1-2 1-1 2 1h1v-1h2v1l1 1 2-1v5h3l4-1 2-1 5-7h1v-3l1-1 1-1-1-1-1-2 1-1c-1-1-4-3-7-2l-5 2v1h-1a16 16 0 0 0-3 0 273 273 0 0 0-2 0h-1l-1-1-1-2-1-2v-4h1l5-4v-2h1l5-4 3-5-3-1-4 1-3 1-1 1-3 2v2l-1 1h-1l-5-2c-2-1-2-3-2-6v-1l4-3 4-2 1-1h6l3-1h5l5 2 3 4c1 2 1 5-1 8 0 2-2 4-3 5l-1 2c2 0 6 0 8 2l2 2 2 2 1 4 1 7-1 4v1h-1c-1 4-3 8-6 11l-6 4c-2 2-5 2-7 2-3 1-6 0-8-1zm62 9v-5l1-4 1-2v-1l2-6v-1l1-1v-1l1-3v-4l1-3 1-4-1-2-2-12c-3-6-8-11-10-13l-2-1-3-3v-2c0-2 1-4 3-4h1c3-1 4 1 6 2l1 1 1 2v1h1l1 1c6 7 9 14 11 20v3h1l-1 1 1 1v13a19 19 0 0 1 0 4l-1 3-1 2v3l-1 3v1h-2v3l-4 9v1h-1v1a5 5 0 0 1-6-3zm-181 96l-1-2-1-1h1l1-3 1-4v-1l1-2 1-1 2-3c0-2 1-4 3-5l-5-6c-3-2-6-4-7-7l-2-3 1-3h2c7-1 9 3 10 5v1l4 3 3 3v-2h1c2 0 2 0 2-3l1-3 1-1v-1c1-2 2-6 5-7h1l4 1c3 1 3 3 3 4v1l-4 5-3 7c0 3 0 3-2 5l8 7 8 8 1 1v1c-1 1-2 4-5 4h-1c-3 0-6-3-9-7l-8-6c-2 1-3 4-4 7l-1 1-1 2c-1 3-3 7-6 8h-2zm108-36l1 3-1 3c0 7-3 13-5 18-1 5-3 9-7 12l-1 4-3 3-1 1-1 1h-1c-5-1-10-2-11-8v-2h1c8-7 13-23 13-23l-1-1 2-5-4 3-1 2h-1l-3 2v1h-3c0 1-1 2-3 2l-3-1h-1v1h-1l-1 1c-4-1-6-3-8-5l-4-2-1-1v-1l-2-9c-1-4-3-8-1-12l3-13c2-3 5-6 9-8 3-3 6-4 9-5l6-1c3 0 6 0 8 2h3l1 2 3 3 5 4h2v3l1 1v2c-1 2 0 6 1 9l1 6zm-19-25l-2-2h-2l-6 2-1 1-4 2-2 3-2 4c-1 5 0 13 3 16l3 2c6-3 8-6 11-10l4-4c1-4 1-11-2-14zm63 17h-10l-1 1h-6c-2 1-4 1-6-1h-1v-7h7l5-1h2l3-1 4 1 4-1h6l2-1h2s2-1 3 1h1l1 1v1l1 2v1l-1 1v2h-1l-6 1zm-14 20h-1l-2 1-4-1v-1h-1v-5l3-2 4-3h6v1l14-3 13-2h1l1 1c2 2 3 5 1 8l-20 4a235 235 0 0 0-11 2l-2 1z" fill="#eb8923"/><path d="M464 210l-4-19 8-2-21-5 12 26 22 24z" fill="#d89932"/><path d="M359 61l64 22V65z" fill="#c6cbcb"/><path d="M346 38c0 15 12 27 28 27h49L346 0z" fill="#586a73"/><path d="M248 433h-1zm-5-1h-1zm1 1h-1zm14-1h-1zm7-2h-1z" fill="#eb8923"/><path d="M248 433h1a48 48 0 0 0 4-1 89 89 0 0 0 4 0h1l2-1a193 193 0 0 0 4-1h1l2-1h3l-8-9-20 12h1v1z" fill="#d27228"/></svg>