<svg width="953" height="129" viewBox="0 0 953 129" fill="none" xmlns="http://www.w3.org/2000/svg"><path d="M112.737 122.371H0V128.152H112.737V122.371Z" fill="#fff"/><path d="M108.512 111.253H4.44702V119.258H108.512V111.253Z" fill="#fff"/><path d="M107.289 20.0848H3.78006V31.2029H107.289V20.0848Z" fill="#fff"/><path d="M55.5344 0.628052L1.33417 13.3027L4.44702 16.7493H55.5344H106.622L109.735 13.3027L55.5344 0.628052Z" fill="#fff"/><path d="M18.7099 66.3994C18.6206 60.9392 18.4792 55.4787 18.2653 50.0222C18.064 44.8811 17.7326 39.745 17.4825 34.6055C17.4609 34.1617 17.2729 34.0659 16.9048 33.9854C15.3885 33.6549 13.8641 33.4996 12.3334 33.4972C10.8027 33.4996 9.27834 33.6549 7.76199 33.9854C7.3939 34.0656 7.20585 34.1617 7.18428 34.6055C6.93417 39.745 6.60283 44.8811 6.40147 50.0222C6.18759 55.4787 6.04589 60.9392 5.95692 66.3994C5.8938 70.269 5.93295 74.1415 5.99421 78.0121C6.06187 82.3059 6.15722 86.6009 6.33115 90.8915C6.5176 95.4962 6.80579 100.097 7.05856 104.699C7.10703 105.581 7.19733 106.46 7.26631 107.317C8.96537 107.76 10.6501 108.015 12.3337 108.036C14.0173 108.015 15.7017 107.76 17.401 107.317C17.47 106.46 17.56 105.581 17.6085 104.699C17.8613 100.097 18.1495 95.4962 18.3359 90.8915C18.5098 86.6009 18.6052 82.3059 18.6728 78.0121C18.7338 74.1415 18.7733 70.269 18.7099 66.3994Z" fill="#fff"/><path d="M46.8929 66.3994C46.8037 60.9392 46.662 55.4787 46.4481 50.0222C46.2465 44.8811 45.9151 39.745 45.6653 34.6055C45.6437 34.1617 45.4559 34.0659 45.0876 33.9854C43.5715 33.6549 42.0469 33.4996 40.5164 33.4972C38.9857 33.4996 37.4614 33.6549 35.945 33.9854C35.5769 34.0656 35.3889 34.1617 35.3673 34.6055C35.1175 39.745 34.7858 44.8811 34.5845 50.0222C34.3706 55.4787 34.2289 60.9392 34.14 66.3994C34.0768 70.269 34.116 74.1415 34.177 78.0121C34.2449 82.3059 34.34 86.6009 34.5139 90.8915C34.7006 95.4962 34.9885 100.097 35.2413 104.699C35.2898 105.581 35.3801 106.46 35.4488 107.317C37.1481 107.76 38.8328 108.015 40.5162 108.036C42.1998 108.015 43.8842 107.76 45.5835 107.317C45.6522 106.46 45.7425 105.581 45.791 104.699C46.0435 100.097 46.3317 95.4962 46.5181 90.8915C46.6921 86.6009 46.7874 82.3059 46.8553 78.0121C46.9169 74.1415 46.956 70.269 46.8929 66.3994Z" fill="#fff"/><path d="M79.5783 66.3994C79.4891 60.9392 79.3477 55.4787 79.1335 50.0222C78.9322 44.8811 78.6008 39.745 78.351 34.6055C78.3291 34.1617 78.1414 34.0659 77.773 33.9854C76.2569 33.6549 74.7326 33.4996 73.2019 33.4972C71.6711 33.4996 70.1468 33.6549 68.6305 33.9854C68.2624 34.0656 68.0743 34.1617 68.0527 34.6055C67.8029 39.745 67.4713 44.8811 67.2702 50.0222C67.0561 55.4787 66.9146 60.9392 66.8254 66.3994C66.7623 70.269 66.8014 74.1415 66.8627 78.0121C66.9306 82.3059 67.0257 86.6009 67.1996 90.8915C67.3863 95.4962 67.6743 100.097 67.927 104.699C67.9758 105.581 68.0658 106.46 68.1345 107.317C69.8338 107.76 71.5183 108.015 73.2019 108.036C74.8855 108.015 76.5699 107.76 78.2692 107.317C78.3379 106.46 78.4282 105.581 78.4767 104.699C78.7295 100.097 79.0174 95.4962 79.2041 90.8915C79.3778 86.6009 79.4731 82.3059 79.541 78.0121C79.6023 74.1415 79.6414 70.269 79.5783 66.3994Z" fill="#fff"/><path d="M107.094 66.3994C107.005 60.9392 106.863 55.4787 106.649 50.0222C106.448 44.8811 106.116 39.745 105.866 34.6055C105.845 34.1617 105.657 34.0659 105.288 33.9854C103.773 33.6549 102.248 33.4996 100.717 33.4972C99.1869 33.4996 97.6623 33.6549 96.1462 33.9854C95.7778 34.0656 95.5901 34.1617 95.5685 34.6055C95.3184 39.745 94.9868 44.8811 94.7857 50.0222C94.5718 55.4787 94.4301 60.9392 94.3409 66.3994C94.2777 70.269 94.3169 74.1415 94.3782 78.0121C94.4461 82.3059 94.5412 86.6009 94.7154 90.8915C94.9018 95.4962 95.19 100.097 95.4425 104.699C95.4912 105.581 95.5813 106.46 95.65 107.317C97.3496 107.76 99.034 108.015 100.717 108.036C102.401 108.015 104.086 107.76 105.785 107.317C105.854 106.46 105.944 105.581 105.992 104.699C106.245 100.097 106.533 95.4962 106.72 90.8915C106.894 86.6009 106.989 82.3059 107.057 78.0121C107.118 74.1415 107.157 70.269 107.094 66.3994Z" fill="#fff"/><path d="M632.988 117.069L626.405 98.813H604.024L597.441 117.069H592L609.466 69.235C609.817 68.357 610.958 64.846 610.958 64.057C610.958 60.37 606.92 60.37 604.2 59.932V58H620.7L642.116 117.068H632.988V117.069ZM614.907 69.059L605.516 94.688H624.913L614.907 69.059Z" fill="#fff"/><path d="M688.085 117.069L672.55 89.773H667.109V117.069H657.454V69.936C657.454 61.51 657.454 61.16 649.116 59.931V58H671.673C682.293 58 695.458 60.282 695.458 73.71C695.458 82.575 690.368 86.876 682.029 88.192L698.179 117.068H688.085V117.069ZM672.989 62.125C666.67 62.125 667.109 64.495 667.109 70.024V85.647H672.111C679.747 85.647 685.803 82.838 685.803 74.237C685.803 65.548 681.327 62.125 672.989 62.125Z" fill="#fff"/><path d="M731.071 118.21C710.884 118.21 705.179 105.133 705.179 86.964C705.179 70.025 710.796 58 729.667 58C735.635 58 741.603 58.79 747.221 60.633L747.747 75.291H745.202C745.026 73.448 744.324 71.517 743.359 69.937C740.637 65.197 736.073 62.213 730.544 62.213C717.291 62.213 715.536 76.783 715.536 86.964C715.536 97.847 718.871 113.295 732.563 113.295C738.356 113.295 743.184 112.154 747.923 108.818V114.874C742.393 117.333 737.126 118.21 731.071 118.21Z" fill="#fff"/><path d="M797.226 117.034V88.333H773.354V117.034H763.699V69.551C763.699 61.915 762.295 61.739 754.923 60.95V59.019L773.354 57V84.208H797.226V57.965H806.881V117.033H797.226V117.034Z" fill="#fff"/><path d="M813.881 117.454V115.26C820.464 115.26 821.342 113.505 821.342 107.097V69.357C821.342 62.95 820.464 61.194 813.881 61.194V59H838.456V61.194C831.874 61.194 830.996 63.037 830.996 69.357V107.097C830.996 113.417 831.874 115.26 838.456 115.26V117.454H813.881V117.454Z" fill="#fff"/><path d="M880.914 117.069H873.278L856.075 69.235C853.442 61.862 853.004 61.336 845.456 59.931V58H862.482L879.685 106.097H879.86L896.625 58H902.33L880.914 117.069Z" fill="#fff"/><path d="M952.689 117.069H917.669V69.936C917.669 61.51 917.581 61.248 909.33 59.931V58H951.372L951.636 70.99H949.178C949.178 64.407 945.931 62.125 939.699 62.125H932.852C928.815 62.125 927.323 62.213 927.323 66.689V84.155H937.943C942.946 84.155 944.35 81.873 945.14 77.397H947.597V95.829H945.14C945.14 90.913 943.034 88.281 937.943 88.281H927.323V107.853C927.323 112.681 928.377 112.944 932.852 112.944H942.595C948.563 112.944 950.055 109.96 950.493 104.342H952.951L952.689 117.069Z" fill="#fff"/><path d="M150 116.454L150 114.26C156.582 114.26 157.46 112.505 157.46 106.097L157.46 68.357C157.46 61.95 156.582 60.195 150 60.195L150 58L174.575 58L174.575 60.194C167.992 60.194 167.114 62.037 167.114 68.356L167.114 106.097C167.114 112.416 167.992 114.26 174.575 114.26L174.575 116.454L150 116.454Z" fill="#fff"/><path d="M225.02 116.068L196.056 66.127L195.88 66.127L195.88 116.068L190.351 116.068L190.351 68.234C190.351 59.984 189.035 60.335 181.575 58.93L181.575 57L200.094 57L227.742 104.746L227.917 104.746L227.917 57L233.446 57L233.446 116.068L225.02 116.068Z" fill="#fff"/><path d="M283.629 69.989C283.629 63.143 280.645 61.125 274.062 61.125L268.094 61.125L268.094 116.068L258.439 116.068L258.439 61.125L252.383 61.125C245.713 61.125 243.431 63.056 242.904 69.726L240.446 69.726L240.797 57L285.735 57L286.086 69.989L283.629 69.989Z" fill="#fff"/><path d="M336.445 116.068L301.424 116.068L301.424 68.936C301.424 60.51 301.337 60.248 293.086 58.931L293.086 57L335.128 57L335.391 69.989L332.934 69.989C332.934 63.406 329.686 61.125 323.455 61.125L316.609 61.125C312.572 61.125 311.08 61.213 311.08 65.689L311.08 83.155L321.7 83.155C326.702 83.155 328.106 80.873 328.897 76.397L331.354 76.397L331.354 94.829L328.897 94.829C328.897 89.914 326.791 87.281 321.7 87.281L311.08 87.281L311.08 106.853C311.08 111.681 312.133 111.944 316.609 111.944L326.351 111.944C332.32 111.944 333.811 108.96 334.25 103.342L336.707 103.342L336.445 116.068Z" fill="#fff"/><path d="M382.676 116.068L367.141 88.772L361.699 88.772L361.699 116.068L352.045 116.068L352.045 68.936C352.045 60.51 352.045 60.16 343.707 58.931L343.707 57L366.263 57C376.883 57 390.049 59.282 390.049 72.71C390.049 81.574 384.958 85.876 376.62 87.191L392.769 116.067L382.676 116.067L382.676 116.068ZM367.58 61.125C361.26 61.125 361.699 63.495 361.699 69.024L361.699 84.647L366.702 84.647C374.338 84.647 380.394 81.838 380.394 73.237C380.394 64.548 375.918 61.125 367.58 61.125Z" fill="#fff"/><path d="M443.215 116.068L414.251 66.127L414.075 66.127L414.075 116.068L408.546 116.068L408.546 68.234C408.546 59.984 407.23 60.335 399.769 58.93L399.769 57L418.288 57L445.935 104.746L446.11 104.746L446.11 57L451.64 57L451.64 116.068L443.215 116.068Z" fill="#fff"/><path d="M501.998 116.068L466.977 116.068L466.977 68.936C466.977 60.51 466.89 60.248 458.64 58.931L458.64 57L500.681 57L500.944 69.989L498.486 69.989C498.486 63.406 495.239 61.125 489.007 61.125L482.161 61.125C478.124 61.125 476.632 61.213 476.632 65.689L476.632 83.155L487.252 83.155C492.255 83.155 493.659 80.873 494.449 76.397L496.907 76.397L496.907 94.829L494.449 94.829C494.449 89.914 492.343 87.281 487.252 87.281L476.632 87.281L476.632 106.853C476.632 111.681 477.685 111.944 482.161 111.944L491.904 111.944C497.872 111.944 499.364 108.96 499.803 103.342L502.261 103.342L501.998 116.068Z" fill="#fff"/><path d="M552.444 69.989C552.444 63.143 549.46 61.125 542.877 61.125L536.908 61.125L536.908 116.068L527.254 116.068L527.254 61.125L521.198 61.125C514.527 61.125 512.245 63.056 511.719 69.726L509.261 69.726L509.613 57L554.551 57L554.902 69.989L552.444 69.989Z" fill="#fff"/></svg>